<ttFont>
    <TTGlyph name="A" xMin="27" yMin="0" xMax="953" yMax="1642">
      <contour>
        <pt x="490" y="1642" on="1"/>
        <pt x="953" y="0" on="1"/>
        <pt x="753" y="0" on="1"/>
        <pt x="683" y="265" on="1"/>
        <pt x="296" y="265" on="1"/>
        <pt x="227" y="0" on="1"/>
        <pt x="27" y="0" on="1"/>
      </contour>
      <contour>
        <pt x="637" y="441" on="1"/>
        <pt x="530" y="852" on="1"/>
        <pt x="489" y="1042" on="1"/>
        <pt x="450" y="852" on="1"/>
        <pt x="342" y="441" on="1"/>
      </contour>
    </TTGlyph>
    <TTGlyph name="AE" xMin="16" yMin="0" xMax="1159" yMax="1593">
      <contour>
        <pt x="603" y="1593" on="1"/>
        <pt x="1159" y="1593" on="1"/>
        <pt x="1159" y="1417" on="1"/>
        <pt x="809" y="1417" on="1"/>
        <pt x="809" y="805" on="1"/>
        <pt x="1109" y="805" on="1"/>
        <pt x="1109" y="629" on="1"/>
        <pt x="809" y="629" on="1"/>
        <pt x="809" y="176" on="1"/>
        <pt x="1159" y="176" on="1"/>
        <pt x="1159" y="0" on="1"/>
        <pt x="602" y="0" on="1"/>
        <pt x="602" y="265" on="1"/>
        <pt x="307" y="265" on="1"/>
        <pt x="307" y="269" on="1"/>
        <pt x="216" y="0" on="1"/>
        <pt x="16" y="0" on="1"/>
      </contour>
      <contour>
        <pt x="602" y="441" on="1"/>
        <pt x="602" y="1144" on="1"/>
        <pt x="365" y="441" on="1"/>
      </contour>
    </TTGlyph>
    <TTGlyph name="Aacute" xMin="27" yMin="0" xMax="953" yMax="2020">
      <contour>
        <pt x="202" y="1825" on="1"/>
        <pt x="645" y="2020" on="1"/>
        <pt x="712" y="1867" on="1"/>
        <pt x="270" y="1671" on="1"/>
      </contour>
      <contour>
        <pt x="490" y="1642" on="1"/>
        <pt x="953" y="0" on="1"/>
        <pt x="753" y="0" on="1"/>
        <pt x="683" y="265" on="1"/>
        <pt x="296" y="265" on="1"/>
        <pt x="227" y="0" on="1"/>
        <pt x="27" y="0" on="1"/>
      </contour>
      <contour>
        <pt x="637" y="441" on="1"/>
        <pt x="530" y="852" on="1"/>
        <pt x="489" y="1042" on="1"/>
        <pt x="450" y="852" on="1"/>
        <pt x="342" y="441" on="1"/>
      </contour>
    </TTGlyph>
    <TTGlyph name="Acircumflex" xMin="27" yMin="0" xMax="953" yMax="2001">
      <contour>
        <pt x="169" y="1838" on="1"/>
        <pt x="485" y="2001" on="1"/>
        <pt x="801" y="1838" on="1"/>
        <pt x="725" y="1700" on="1"/>
        <pt x="485" y="1821" on="1"/>
        <pt x="245" y="1700" on="1"/>
      </contour>
      <contour>
        <pt x="490" y="1642" on="1"/>
        <pt x="953" y="0" on="1"/>
        <pt x="753" y="0" on="1"/>
        <pt x="683" y="265" on="1"/>
        <pt x="296" y="265" on="1"/>
        <pt x="227" y="0" on="1"/>
        <pt x="27" y="0" on="1"/>
      </contour>
      <contour>
        <pt x="637" y="441" on="1"/>
        <pt x="530" y="852" on="1"/>
        <pt x="489" y="1042" on="1"/>
        <pt x="450" y="852" on="1"/>
        <pt x="342" y="441" on="1"/>
      </contour>
    </TTGlyph>
    <TTGlyph name="Adieresis" xMin="27" yMin="0" xMax="953" yMax="1947">
      <contour>
        <pt x="670" y="1699" on="1"/>
        <pt x="641" y="1699" on="0"/>
        <pt x="593" y="1719" on="0"/>
        <pt x="559" y="1753" on="0"/>
        <pt x="541" y="1798" on="0"/>
        <pt x="541" y="1823" on="1"/>
        <pt x="541" y="1848" on="0"/>
        <pt x="559" y="1893" on="0"/>
        <pt x="593" y="1927" on="0"/>
        <pt x="641" y="1947" on="0"/>
        <pt x="670" y="1947" on="1"/>
        <pt x="699" y="1947" on="0"/>
        <pt x="747" y="1927" on="0"/>
        <pt x="781" y="1893" on="0"/>
        <pt x="799" y="1848" on="0"/>
        <pt x="799" y="1823" on="1"/>
        <pt x="799" y="1798" on="0"/>
        <pt x="781" y="1753" on="0"/>
        <pt x="747" y="1719" on="0"/>
        <pt x="699" y="1699" on="0"/>
      </contour>
      <contour>
        <pt x="294" y="1699" on="1"/>
        <pt x="265" y="1699" on="0"/>
        <pt x="217" y="1719" on="0"/>
        <pt x="183" y="1753" on="0"/>
        <pt x="165" y="1798" on="0"/>
        <pt x="165" y="1823" on="1"/>
        <pt x="165" y="1848" on="0"/>
        <pt x="183" y="1893" on="0"/>
        <pt x="217" y="1927" on="0"/>
        <pt x="265" y="1947" on="0"/>
        <pt x="294" y="1947" on="1"/>
        <pt x="323" y="1947" on="0"/>
        <pt x="371" y="1927" on="0"/>
        <pt x="405" y="1893" on="0"/>
        <pt x="423" y="1848" on="0"/>
        <pt x="423" y="1823" on="1"/>
        <pt x="423" y="1798" on="0"/>
        <pt x="405" y="1753" on="0"/>
        <pt x="371" y="1719" on="0"/>
        <pt x="323" y="1699" on="0"/>
      </contour>
      <contour>
        <pt x="490" y="1642" on="1"/>
        <pt x="953" y="0" on="1"/>
        <pt x="753" y="0" on="1"/>
        <pt x="683" y="265" on="1"/>
        <pt x="296" y="265" on="1"/>
        <pt x="227" y="0" on="1"/>
        <pt x="27" y="0" on="1"/>
      </contour>
      <contour>
        <pt x="637" y="441" on="1"/>
        <pt x="530" y="852" on="1"/>
        <pt x="489" y="1042" on="1"/>
        <pt x="450" y="852" on="1"/>
        <pt x="342" y="441" on="1"/>
      </contour>
    </TTGlyph>
    <TTGlyph name="Agrave" xMin="27" yMin="0" xMax="953" yMax="2003">
      <contour>
        <pt x="242" y="1850" on="1"/>
        <pt x="309" y="2003" on="1"/>
        <pt x="752" y="1808" on="1"/>
        <pt x="684" y="1654" on="1"/>
      </contour>
      <contour>
        <pt x="490" y="1642" on="1"/>
        <pt x="953" y="0" on="1"/>
        <pt x="753" y="0" on="1"/>
        <pt x="683" y="265" on="1"/>
        <pt x="296" y="265" on="1"/>
        <pt x="227" y="0" on="1"/>
        <pt x="27" y="0" on="1"/>
      </contour>
      <contour>
        <pt x="637" y="441" on="1"/>
        <pt x="530" y="852" on="1"/>
        <pt x="489" y="1042" on="1"/>
        <pt x="450" y="852" on="1"/>
        <pt x="342" y="441" on="1"/>
      </contour>
    </TTGlyph>
    <TTGlyph name="Aring" xMin="27" yMin="0" xMax="953" yMax="1859">
      <contour>
        <pt x="424" y="1410" on="1"/>
        <pt x="393" y="1422" on="0"/>
        <pt x="340" y="1463" on="0"/>
        <pt x="301" y="1519" on="0"/>
        <pt x="279" y="1588" on="0"/>
        <pt x="279" y="1627" on="1"/>
        <pt x="279" y="1679" on="0"/>
        <pt x="316" y="1764" on="0"/>
        <pt x="379" y="1825" on="0"/>
        <pt x="462" y="1859" on="0"/>
        <pt x="507" y="1859" on="1"/>
        <pt x="552" y="1859" on="0"/>
        <pt x="634" y="1825" on="0"/>
        <pt x="697" y="1764" on="0"/>
        <pt x="735" y="1679" on="0"/>
        <pt x="735" y="1627" on="1"/>
        <pt x="735" y="1583" on="0"/>
        <pt x="707" y="1507" on="0"/>
        <pt x="659" y="1449" on="0"/>
        <pt x="595" y="1409" on="0"/>
        <pt x="558" y="1400" on="1"/>
        <pt x="953" y="0" on="1"/>
        <pt x="753" y="0" on="1"/>
        <pt x="683" y="265" on="1"/>
        <pt x="296" y="265" on="1"/>
        <pt x="227" y="0" on="1"/>
        <pt x="27" y="0" on="1"/>
      </contour>
      <contour>
        <pt x="507" y="1522" on="1"/>
        <pt x="552" y="1522" on="0"/>
        <pt x="606" y="1575" on="0"/>
        <pt x="606" y="1627" on="1"/>
        <pt x="606" y="1679" on="0"/>
        <pt x="552" y="1732" on="0"/>
        <pt x="507" y="1732" on="1"/>
        <pt x="462" y="1732" on="0"/>
        <pt x="408" y="1679" on="0"/>
        <pt x="408" y="1627" on="1"/>
        <pt x="408" y="1575" on="0"/>
        <pt x="462" y="1522" on="0"/>
      </contour>
      <contour>
        <pt x="637" y="441" on="1"/>
        <pt x="530" y="852" on="1"/>
        <pt x="489" y="1042" on="1"/>
        <pt x="450" y="852" on="1"/>
        <pt x="342" y="441" on="1"/>
      </contour>
    </TTGlyph>
    <TTGlyph name="Atilde" xMin="27" yMin="0" xMax="953" yMax="1959">
      <contour>
        <pt x="153" y="1814" on="1"/>
        <pt x="168" y="1840" on="0"/>
        <pt x="213" y="1892" on="0"/>
        <pt x="267" y="1933" on="0"/>
        <pt x="326" y="1959" on="0"/>
        <pt x="355" y="1959" on="1"/>
        <pt x="394" y="1959" on="0"/>
        <pt x="457" y="1935" on="0"/>
        <pt x="514" y="1907" on="0"/>
        <pt x="566" y="1883" on="0"/>
        <pt x="594" y="1883" on="1"/>
        <pt x="623" y="1883" on="0"/>
        <pt x="698" y="1917" on="0"/>
        <pt x="733" y="1959" on="1"/>
        <pt x="809" y="1862" on="1"/>
        <pt x="794" y="1836" on="0"/>
        <pt x="748" y="1784" on="0"/>
        <pt x="694" y="1743" on="0"/>
        <pt x="635" y="1717" on="0"/>
        <pt x="607" y="1717" on="1"/>
        <pt x="568" y="1717" on="0"/>
        <pt x="505" y="1741" on="0"/>
        <pt x="448" y="1769" on="0"/>
        <pt x="396" y="1793" on="0"/>
        <pt x="368" y="1793" on="1"/>
        <pt x="339" y="1793" on="0"/>
        <pt x="264" y="1759" on="0"/>
        <pt x="229" y="1717" on="1"/>
      </contour>
      <contour>
        <pt x="490" y="1642" on="1"/>
        <pt x="953" y="0" on="1"/>
        <pt x="753" y="0" on="1"/>
        <pt x="683" y="265" on="1"/>
        <pt x="296" y="265" on="1"/>
        <pt x="227" y="0" on="1"/>
        <pt x="27" y="0" on="1"/>
      </contour>
      <contour>
        <pt x="637" y="441" on="1"/>
        <pt x="530" y="852" on="1"/>
        <pt x="489" y="1042" on="1"/>
        <pt x="450" y="852" on="1"/>
        <pt x="342" y="441" on="1"/>
      </contour>
    </TTGlyph>
    <TTGlyph name="B" xMin="170" yMin="-18" xMax="816" yMax="1612">
      <contour>
        <pt x="170" y="1612" on="1"/>
        <pt x="318" y="1612" on="0"/>
        <pt x="543" y="1533" on="0"/>
        <pt x="694" y="1398" on="0"/>
        <pt x="770" y="1220" on="0"/>
        <pt x="770" y="1122" on="1"/>
        <pt x="770" y="1080" on="0"/>
        <pt x="748" y="990" on="0"/>
        <pt x="706" y="903" on="0"/>
        <pt x="644" y="821" on="0"/>
        <pt x="605" y="785" on="1"/>
        <pt x="707" y="725" on="0"/>
        <pt x="816" y="548" on="0"/>
        <pt x="816" y="431" on="1"/>
        <pt x="816" y="334" on="0"/>
        <pt x="734" y="169" on="0"/>
        <pt x="572" y="49" on="0"/>
        <pt x="330" y="-18" on="0"/>
        <pt x="170" y="-18" on="1"/>
      </contour>
      <contour>
        <pt x="356" y="838" on="1"/>
        <pt x="393" y="838" on="0"/>
        <pt x="471" y="881" on="0"/>
        <pt x="536" y="956" on="0"/>
        <pt x="577" y="1060" on="0"/>
        <pt x="577" y="1121" on="1"/>
        <pt x="577" y="1184" on="0"/>
        <pt x="536" y="1288" on="0"/>
        <pt x="471" y="1363" on="0"/>
        <pt x="393" y="1404" on="0"/>
        <pt x="356" y="1404" on="1"/>
      </contour>
      <contour>
        <pt x="356" y="190" on="1"/>
        <pt x="413" y="190" on="0"/>
        <pt x="511" y="225" on="0"/>
        <pt x="582" y="288" on="0"/>
        <pt x="623" y="377" on="0"/>
        <pt x="623" y="431" on="1"/>
        <pt x="623" y="474" on="0"/>
        <pt x="582" y="560" on="0"/>
        <pt x="511" y="629" on="0"/>
        <pt x="413" y="672" on="0"/>
        <pt x="356" y="672" on="1"/>
      </contour>
    </TTGlyph>
    <TTGlyph name="C" xMin="90" yMin="-19" xMax="764" yMax="1611">
      <contour>
        <pt x="567" y="-19" on="1"/>
        <pt x="471" y="-19" on="0"/>
        <pt x="297" y="67" on="0"/>
        <pt x="167" y="261" on="0"/>
        <pt x="90" y="572" on="0"/>
        <pt x="90" y="796" on="1"/>
        <pt x="90" y="1020" on="0"/>
        <pt x="167" y="1331" on="0"/>
        <pt x="297" y="1524" on="0"/>
        <pt x="471" y="1611" on="0"/>
        <pt x="567" y="1611" on="1"/>
        <pt x="622" y="1611" on="0"/>
        <pt x="715" y="1591" on="0"/>
        <pt x="764" y="1570" on="1"/>
        <pt x="681" y="1409" on="1"/>
        <pt x="644" y="1426" on="0"/>
        <pt x="592" y="1426" on="1"/>
        <pt x="536" y="1426" on="0"/>
        <pt x="426" y="1359" on="0"/>
        <pt x="338" y="1209" on="0"/>
        <pt x="283" y="969" on="0"/>
        <pt x="283" y="796" on="1"/>
        <pt x="283" y="623" on="0"/>
        <pt x="338" y="383" on="0"/>
        <pt x="426" y="233" on="0"/>
        <pt x="536" y="166" on="0"/>
        <pt x="592" y="166" on="1"/>
        <pt x="644" y="166" on="0"/>
        <pt x="681" y="183" on="1"/>
        <pt x="764" y="22" on="1"/>
        <pt x="715" y="1" on="0"/>
        <pt x="622" y="-19" on="0"/>
      </contour>
    </TTGlyph>
    <TTGlyph name="Ccedilla" xMin="90" yMin="-531" xMax="764" yMax="1611">
      <contour>
        <pt x="450" y="-2" on="1"/>
        <pt x="374" y="20" on="0"/>
        <pt x="242" y="133" on="0"/>
        <pt x="145" y="327" on="0"/>
        <pt x="90" y="607" on="0"/>
        <pt x="90" y="796" on="1"/>
        <pt x="90" y="1020" on="0"/>
        <pt x="167" y="1331" on="0"/>
        <pt x="297" y="1524" on="0"/>
        <pt x="471" y="1611" on="0"/>
        <pt x="567" y="1611" on="1"/>
        <pt x="622" y="1611" on="0"/>
        <pt x="715" y="1591" on="0"/>
        <pt x="764" y="1570" on="1"/>
        <pt x="681" y="1409" on="1"/>
        <pt x="644" y="1426" on="0"/>
        <pt x="592" y="1426" on="1"/>
        <pt x="536" y="1426" on="0"/>
        <pt x="426" y="1359" on="0"/>
        <pt x="338" y="1209" on="0"/>
        <pt x="283" y="969" on="0"/>
        <pt x="283" y="796" on="1"/>
        <pt x="283" y="623" on="0"/>
        <pt x="338" y="383" on="0"/>
        <pt x="426" y="233" on="0"/>
        <pt x="536" y="166" on="0"/>
        <pt x="592" y="166" on="1"/>
        <pt x="644" y="166" on="0"/>
        <pt x="681" y="183" on="1"/>
        <pt x="764" y="22" on="1"/>
        <pt x="717" y="2" on="0"/>
        <pt x="628" y="-18" on="0"/>
        <pt x="576" y="-19" on="1"/>
        <pt x="545" y="-83" on="1"/>
        <pt x="580" y="-89" on="0"/>
        <pt x="646" y="-119" on="0"/>
        <pt x="696" y="-165" on="0"/>
        <pt x="726" y="-229" on="0"/>
        <pt x="726" y="-269" on="1"/>
        <pt x="726" y="-318" on="0"/>
        <pt x="680" y="-406" on="0"/>
        <pt x="594" y="-476" on="0"/>
        <pt x="471" y="-523" on="0"/>
        <pt x="394" y="-531" on="1"/>
        <pt x="358" y="-395" on="1"/>
        <pt x="451" y="-387" on="0"/>
        <pt x="558" y="-322" on="0"/>
        <pt x="558" y="-274" on="1"/>
        <pt x="558" y="-242" on="0"/>
        <pt x="503" y="-199" on="0"/>
        <pt x="450" y="-199" on="1"/>
        <pt x="427" y="-199" on="0"/>
        <pt x="378" y="-208" on="0"/>
        <pt x="355" y="-216" on="1"/>
      </contour>
    </TTGlyph>
    <TTGlyph name="D" xMin="170" yMin="-19" xMax="898" yMax="1611">
      <contour>
        <pt x="170" y="1611" on="1"/>
        <pt x="335" y="1602" on="0"/>
        <pt x="603" y="1484" on="0"/>
        <pt x="794" y="1276" on="0"/>
        <pt x="898" y="982" on="0"/>
        <pt x="898" y="796" on="1"/>
        <pt x="898" y="610" on="0"/>
        <pt x="794" y="316" on="0"/>
        <pt x="603" y="108" on="0"/>
        <pt x="335" y="-10" on="0"/>
        <pt x="170" y="-19" on="1"/>
      </contour>
      <contour>
        <pt x="356" y="197" on="1"/>
        <pt x="420" y="217" on="0"/>
        <pt x="545" y="305" on="0"/>
        <pt x="644" y="449" on="0"/>
        <pt x="705" y="656" on="0"/>
        <pt x="705" y="796" on="1"/>
        <pt x="705" y="936" on="0"/>
        <pt x="644" y="1143" on="0"/>
        <pt x="545" y="1287" on="0"/>
        <pt x="420" y="1375" on="0"/>
        <pt x="356" y="1395" on="1"/>
      </contour>
    </TTGlyph>
    <TTGlyph name="E" xMin="170" yMin="0" xMax="706" yMax="1593">
      <contour>
        <pt x="170" y="1593" on="1"/>
        <pt x="706" y="1593" on="1"/>
        <pt x="706" y="1417" on="1"/>
        <pt x="356" y="1417" on="1"/>
        <pt x="356" y="805" on="1"/>
        <pt x="656" y="805" on="1"/>
        <pt x="656" y="629" on="1"/>
        <pt x="356" y="629" on="1"/>
        <pt x="356" y="176" on="1"/>
        <pt x="706" y="176" on="1"/>
        <pt x="706" y="0" on="1"/>
        <pt x="170" y="0" on="1"/>
      </contour>
    </TTGlyph>
    <TTGlyph name="Eacute" xMin="170" yMin="0" xMax="706" yMax="2020">
      <contour>
        <pt x="178" y="1825" on="1"/>
        <pt x="621" y="2020" on="1"/>
        <pt x="688" y="1867" on="1"/>
        <pt x="246" y="1671" on="1"/>
      </contour>
      <contour>
        <pt x="170" y="1593" on="1"/>
        <pt x="706" y="1593" on="1"/>
        <pt x="706" y="1417" on="1"/>
        <pt x="356" y="1417" on="1"/>
        <pt x="356" y="805" on="1"/>
        <pt x="656" y="805" on="1"/>
        <pt x="656" y="629" on="1"/>
        <pt x="356" y="629" on="1"/>
        <pt x="356" y="176" on="1"/>
        <pt x="706" y="176" on="1"/>
        <pt x="706" y="0" on="1"/>
        <pt x="170" y="0" on="1"/>
      </contour>
    </TTGlyph>
    <TTGlyph name="Ecircumflex" xMin="102" yMin="0" xMax="734" yMax="2020">
      <contour>
        <pt x="102" y="1857" on="1"/>
        <pt x="418" y="2020" on="1"/>
        <pt x="734" y="1857" on="1"/>
        <pt x="658" y="1719" on="1"/>
        <pt x="418" y="1840" on="1"/>
        <pt x="178" y="1719" on="1"/>
      </contour>
      <contour>
        <pt x="170" y="1593" on="1"/>
        <pt x="706" y="1593" on="1"/>
        <pt x="706" y="1417" on="1"/>
        <pt x="356" y="1417" on="1"/>
        <pt x="356" y="805" on="1"/>
        <pt x="656" y="805" on="1"/>
        <pt x="656" y="629" on="1"/>
        <pt x="356" y="629" on="1"/>
        <pt x="356" y="176" on="1"/>
        <pt x="706" y="176" on="1"/>
        <pt x="706" y="0" on="1"/>
        <pt x="170" y="0" on="1"/>
      </contour>
    </TTGlyph>
    <TTGlyph name="Edieresis" xMin="113" yMin="0" xMax="747" yMax="1947">
      <contour>
        <pt x="618" y="1699" on="1"/>
        <pt x="589" y="1699" on="0"/>
        <pt x="541" y="1719" on="0"/>
        <pt x="507" y="1753" on="0"/>
        <pt x="489" y="1798" on="0"/>
        <pt x="489" y="1823" on="1"/>
        <pt x="489" y="1848" on="0"/>
        <pt x="507" y="1893" on="0"/>
        <pt x="541" y="1927" on="0"/>
        <pt x="589" y="1947" on="0"/>
        <pt x="618" y="1947" on="1"/>
        <pt x="647" y="1947" on="0"/>
        <pt x="695" y="1927" on="0"/>
        <pt x="729" y="1893" on="0"/>
        <pt x="747" y="1848" on="0"/>
        <pt x="747" y="1823" on="1"/>
        <pt x="747" y="1798" on="0"/>
        <pt x="729" y="1753" on="0"/>
        <pt x="695" y="1719" on="0"/>
        <pt x="647" y="1699" on="0"/>
      </contour>
      <contour>
        <pt x="242" y="1699" on="1"/>
        <pt x="213" y="1699" on="0"/>
        <pt x="165" y="1719" on="0"/>
        <pt x="131" y="1753" on="0"/>
        <pt x="113" y="1798" on="0"/>
        <pt x="113" y="1823" on="1"/>
        <pt x="113" y="1848" on="0"/>
        <pt x="131" y="1893" on="0"/>
        <pt x="165" y="1927" on="0"/>
        <pt x="213" y="1947" on="0"/>
        <pt x="242" y="1947" on="1"/>
        <pt x="271" y="1947" on="0"/>
        <pt x="319" y="1927" on="0"/>
        <pt x="353" y="1893" on="0"/>
        <pt x="371" y="1848" on="0"/>
        <pt x="371" y="1823" on="1"/>
        <pt x="371" y="1798" on="0"/>
        <pt x="353" y="1753" on="0"/>
        <pt x="319" y="1719" on="0"/>
        <pt x="271" y="1699" on="0"/>
      </contour>
      <contour>
        <pt x="170" y="1593" on="1"/>
        <pt x="706" y="1593" on="1"/>
        <pt x="706" y="1417" on="1"/>
        <pt x="356" y="1417" on="1"/>
        <pt x="356" y="805" on="1"/>
        <pt x="656" y="805" on="1"/>
        <pt x="656" y="629" on="1"/>
        <pt x="356" y="629" on="1"/>
        <pt x="356" y="176" on="1"/>
        <pt x="706" y="176" on="1"/>
        <pt x="706" y="0" on="1"/>
        <pt x="170" y="0" on="1"/>
      </contour>
    </TTGlyph>
    <TTGlyph name="Egrave" xMin="170" yMin="0" xMax="706" yMax="2020">
      <contour>
        <pt x="184" y="1867" on="1"/>
        <pt x="251" y="2020" on="1"/>
        <pt x="694" y="1825" on="1"/>
        <pt x="626" y="1671" on="1"/>
      </contour>
      <contour>
        <pt x="170" y="1593" on="1"/>
        <pt x="706" y="1593" on="1"/>
        <pt x="706" y="1417" on="1"/>
        <pt x="356" y="1417" on="1"/>
        <pt x="356" y="805" on="1"/>
        <pt x="656" y="805" on="1"/>
        <pt x="656" y="629" on="1"/>
        <pt x="356" y="629" on="1"/>
        <pt x="356" y="176" on="1"/>
        <pt x="706" y="176" on="1"/>
        <pt x="706" y="0" on="1"/>
        <pt x="170" y="0" on="1"/>
      </contour>
    </TTGlyph>
    <TTGlyph name="Eth" xMin="60" yMin="-19" xMax="898" yMax="1611">
      <contour>
        <pt x="170" y="716" on="1"/>
        <pt x="60" y="716" on="1"/>
        <pt x="60" y="884" on="1"/>
        <pt x="170" y="884" on="1"/>
        <pt x="170" y="1611" on="1"/>
        <pt x="335" y="1602" on="0"/>
        <pt x="603" y="1484" on="0"/>
        <pt x="794" y="1276" on="0"/>
        <pt x="898" y="982" on="0"/>
        <pt x="898" y="796" on="1"/>
        <pt x="898" y="610" on="0"/>
        <pt x="794" y="316" on="0"/>
        <pt x="603" y="108" on="0"/>
        <pt x="335" y="-10" on="0"/>
        <pt x="170" y="-19" on="1"/>
      </contour>
      <contour>
        <pt x="356" y="197" on="1"/>
        <pt x="420" y="217" on="0"/>
        <pt x="545" y="305" on="0"/>
        <pt x="644" y="449" on="0"/>
        <pt x="705" y="656" on="0"/>
        <pt x="705" y="796" on="1"/>
        <pt x="705" y="936" on="0"/>
        <pt x="644" y="1143" on="0"/>
        <pt x="545" y="1287" on="0"/>
        <pt x="420" y="1375" on="0"/>
        <pt x="356" y="1395" on="1"/>
        <pt x="356" y="884" on="1"/>
        <pt x="507" y="884" on="1"/>
        <pt x="507" y="716" on="1"/>
        <pt x="356" y="716" on="1"/>
      </contour>
    </TTGlyph>
    <TTGlyph name="Euro" xMin="82" yMin="-19" xMax="888" yMax="1611">
      <contour>
        <pt x="82" y="707" on="1"/>
        <pt x="215" y="707" on="1"/>
        <pt x="214" y="728" on="0"/>
        <pt x="214" y="773" on="0"/>
        <pt x="214" y="796" on="1"/>
        <pt x="214" y="835" on="1"/>
        <pt x="82" y="835" on="1"/>
        <pt x="82" y="1011" on="1"/>
        <pt x="225" y="1011" on="1"/>
        <pt x="243" y="1174" on="0"/>
        <pt x="330" y="1402" on="0"/>
        <pt x="454" y="1546" on="0"/>
        <pt x="607" y="1611" on="0"/>
        <pt x="691" y="1611" on="1"/>
        <pt x="746" y="1611" on="0"/>
        <pt x="839" y="1591" on="0"/>
        <pt x="888" y="1570" on="1"/>
        <pt x="805" y="1409" on="1"/>
        <pt x="768" y="1426" on="0"/>
        <pt x="716" y="1426" on="1"/>
        <pt x="670" y="1426" on="0"/>
        <pt x="578" y="1381" on="0"/>
        <pt x="499" y="1281" on="0"/>
        <pt x="437" y="1123" on="0"/>
        <pt x="421" y="1011" on="1"/>
        <pt x="746" y="1011" on="1"/>
        <pt x="746" y="835" on="1"/>
        <pt x="407" y="835" on="1"/>
        <pt x="407" y="796" on="1"/>
        <pt x="407" y="773" on="0"/>
        <pt x="407" y="728" on="0"/>
        <pt x="409" y="707" on="1"/>
        <pt x="746" y="707" on="1"/>
        <pt x="746" y="531" on="1"/>
        <pt x="429" y="531" on="1"/>
        <pt x="447" y="432" on="0"/>
        <pt x="509" y="294" on="0"/>
        <pt x="586" y="206" on="0"/>
        <pt x="673" y="166" on="0"/>
        <pt x="716" y="166" on="1"/>
        <pt x="768" y="166" on="0"/>
        <pt x="805" y="183" on="1"/>
        <pt x="888" y="22" on="1"/>
        <pt x="839" y="1" on="0"/>
        <pt x="746" y="-19" on="0"/>
        <pt x="691" y="-19" on="1"/>
        <pt x="610" y="-19" on="0"/>
        <pt x="462" y="41" on="0"/>
        <pt x="341" y="172" on="0"/>
        <pt x="252" y="381" on="0"/>
        <pt x="231" y="531" on="1"/>
        <pt x="82" y="531" on="1"/>
      </contour>
    </TTGlyph>
    <TTGlyph name="F" xMin="170" yMin="0" xMax="714" yMax="1594">
      <contour>
        <pt x="170" y="1594" on="1"/>
        <pt x="714" y="1593" on="1"/>
        <pt x="714" y="1417" on="1"/>
        <pt x="356" y="1417" on="1"/>
        <pt x="356" y="743" on="1"/>
        <pt x="664" y="743" on="1"/>
        <pt x="664" y="567" on="1"/>
        <pt x="356" y="567" on="1"/>
        <pt x="356" y="0" on="1"/>
        <pt x="170" y="0" on="1"/>
      </contour>
    </TTGlyph>
    <TTGlyph name="G" xMin="89" yMin="-18" xMax="825" yMax="1611">
      <contour>
        <pt x="631" y="748" on="1"/>
        <pt x="817" y="748" on="1"/>
        <pt x="817" y="-18" on="1"/>
        <pt x="668" y="-24" on="0"/>
        <pt x="403" y="79" on="0"/>
        <pt x="205" y="292" on="0"/>
        <pt x="89" y="614" on="0"/>
        <pt x="89" y="826" on="1"/>
        <pt x="89" y="1014" on="0"/>
        <pt x="179" y="1306" on="0"/>
        <pt x="330" y="1507" on="0"/>
        <pt x="528" y="1611" on="0"/>
        <pt x="636" y="1611" on="1"/>
        <pt x="683" y="1611" on="0"/>
        <pt x="774" y="1591" on="0"/>
        <pt x="825" y="1570" on="1"/>
        <pt x="741" y="1409" on="1"/>
        <pt x="721" y="1417" on="0"/>
        <pt x="662" y="1426" on="0"/>
        <pt x="640" y="1426" on="1"/>
        <pt x="574" y="1426" on="0"/>
        <pt x="446" y="1348" on="0"/>
        <pt x="345" y="1196" on="0"/>
        <pt x="282" y="971" on="0"/>
        <pt x="282" y="824" on="1"/>
        <pt x="282" y="693" on="0"/>
        <pt x="334" y="482" on="0"/>
        <pt x="426" y="325" on="0"/>
        <pt x="554" y="223" on="0"/>
        <pt x="631" y="201" on="1"/>
      </contour>
    </TTGlyph>
    <TTGlyph name="H" xMin="170" yMin="0" xMax="893" yMax="1593">
      <contour>
        <pt x="170" y="1593" on="1"/>
        <pt x="356" y="1593" on="1"/>
        <pt x="356" y="709" on="1"/>
        <pt x="707" y="709" on="1"/>
        <pt x="707" y="1593" on="1"/>
        <pt x="893" y="1593" on="1"/>
        <pt x="893" y="0" on="1"/>
        <pt x="707" y="0" on="1"/>
        <pt x="707" y="533" on="1"/>
        <pt x="356" y="533" on="1"/>
        <pt x="356" y="0" on="1"/>
        <pt x="170" y="0" on="1"/>
      </contour>
    </TTGlyph>
    <TTGlyph name="I" xMin="170" yMin="0" xMax="356" yMax="1593">
      <contour>
        <pt x="170" y="1593" on="1"/>
        <pt x="356" y="1593" on="1"/>
        <pt x="356" y="0" on="1"/>
        <pt x="170" y="0" on="1"/>
      </contour>
    </TTGlyph>
    <TTGlyph name="IJ" xMin="170" yMin="-18" xMax="841" yMax="1593">
      <contour>
        <pt x="171" y="156" on="1"/>
        <pt x="306" y="204" on="0"/>
        <pt x="491" y="334" on="0"/>
        <pt x="605" y="495" on="0"/>
        <pt x="655" y="687" on="0"/>
        <pt x="655" y="797" on="1"/>
        <pt x="655" y="1593" on="1"/>
        <pt x="841" y="1593" on="1"/>
        <pt x="841" y="798" on="1"/>
        <pt x="841" y="619" on="0"/>
        <pt x="746" y="347" on="0"/>
        <pt x="572" y="149" on="0"/>
        <pt x="324" y="19" on="0"/>
        <pt x="171" y="-18" on="1"/>
      </contour>
      <contour>
        <pt x="170" y="1593" on="1"/>
        <pt x="356" y="1593" on="1"/>
        <pt x="356" y="480" on="1"/>
        <pt x="170" y="480" on="1"/>
      </contour>
    </TTGlyph>
    <TTGlyph name="Iacute" xMin="-7" yMin="0" xMax="503" yMax="2020">
      <contour>
        <pt x="-7" y="1825" on="1"/>
        <pt x="436" y="2020" on="1"/>
        <pt x="503" y="1867" on="1"/>
        <pt x="61" y="1671" on="1"/>
      </contour>
      <contour>
        <pt x="170" y="1593" on="1"/>
        <pt x="356" y="1593" on="1"/>
        <pt x="356" y="0" on="1"/>
        <pt x="170" y="0" on="1"/>
      </contour>
    </TTGlyph>
    <TTGlyph name="Icircumflex" xMin="-53" yMin="0" xMax="579" yMax="2020">
      <contour>
        <pt x="-53" y="1857" on="1"/>
        <pt x="263" y="2020" on="1"/>
        <pt x="579" y="1857" on="1"/>
        <pt x="503" y="1719" on="1"/>
        <pt x="263" y="1840" on="1"/>
        <pt x="23" y="1719" on="1"/>
      </contour>
      <contour>
        <pt x="170" y="1593" on="1"/>
        <pt x="356" y="1593" on="1"/>
        <pt x="356" y="0" on="1"/>
        <pt x="170" y="0" on="1"/>
      </contour>
    </TTGlyph>
    <TTGlyph name="Idieresis" xMin="-54" yMin="0" xMax="580" yMax="1947">
      <contour>
        <pt x="451" y="1699" on="1"/>
        <pt x="422" y="1699" on="0"/>
        <pt x="374" y="1719" on="0"/>
        <pt x="340" y="1753" on="0"/>
        <pt x="322" y="1798" on="0"/>
        <pt x="322" y="1823" on="1"/>
        <pt x="322" y="1848" on="0"/>
        <pt x="340" y="1893" on="0"/>
        <pt x="374" y="1927" on="0"/>
        <pt x="422" y="1947" on="0"/>
        <pt x="451" y="1947" on="1"/>
        <pt x="480" y="1947" on="0"/>
        <pt x="528" y="1927" on="0"/>
        <pt x="562" y="1893" on="0"/>
        <pt x="580" y="1848" on="0"/>
        <pt x="580" y="1823" on="1"/>
        <pt x="580" y="1798" on="0"/>
        <pt x="562" y="1753" on="0"/>
        <pt x="528" y="1719" on="0"/>
        <pt x="480" y="1699" on="0"/>
      </contour>
      <contour>
        <pt x="75" y="1699" on="1"/>
        <pt x="46" y="1699" on="0"/>
        <pt x="-2" y="1719" on="0"/>
        <pt x="-36" y="1753" on="0"/>
        <pt x="-54" y="1798" on="0"/>
        <pt x="-54" y="1823" on="1"/>
        <pt x="-54" y="1848" on="0"/>
        <pt x="-36" y="1893" on="0"/>
        <pt x="-2" y="1927" on="0"/>
        <pt x="46" y="1947" on="0"/>
        <pt x="75" y="1947" on="1"/>
        <pt x="104" y="1947" on="0"/>
        <pt x="152" y="1927" on="0"/>
        <pt x="186" y="1893" on="0"/>
        <pt x="204" y="1848" on="0"/>
        <pt x="204" y="1823" on="1"/>
        <pt x="204" y="1798" on="0"/>
        <pt x="186" y="1753" on="0"/>
        <pt x="152" y="1719" on="0"/>
        <pt x="104" y="1699" on="0"/>
      </contour>
      <contour>
        <pt x="170" y="1593" on="1"/>
        <pt x="356" y="1593" on="1"/>
        <pt x="356" y="0" on="1"/>
        <pt x="170" y="0" on="1"/>
      </contour>
    </TTGlyph>
    <TTGlyph name="Igrave" xMin="31" yMin="0" xMax="541" yMax="2020">
      <contour>
        <pt x="31" y="1867" on="1"/>
        <pt x="98" y="2020" on="1"/>
        <pt x="541" y="1825" on="1"/>
        <pt x="473" y="1671" on="1"/>
      </contour>
      <contour>
        <pt x="170" y="1593" on="1"/>
        <pt x="356" y="1593" on="1"/>
        <pt x="356" y="0" on="1"/>
        <pt x="170" y="0" on="1"/>
      </contour>
    </TTGlyph>
    <TTGlyph name="Itilde" xMin="-61" yMin="0" xMax="595" yMax="1959">
      <contour>
        <pt x="-61" y="1814" on="1"/>
        <pt x="-46" y="1840" on="0"/>
        <pt x="-1" y="1892" on="0"/>
        <pt x="53" y="1933" on="0"/>
        <pt x="112" y="1959" on="0"/>
        <pt x="141" y="1959" on="1"/>
        <pt x="180" y="1959" on="0"/>
        <pt x="243" y="1935" on="0"/>
        <pt x="300" y="1907" on="0"/>
        <pt x="352" y="1883" on="0"/>
        <pt x="380" y="1883" on="1"/>
        <pt x="409" y="1883" on="0"/>
        <pt x="484" y="1917" on="0"/>
        <pt x="519" y="1959" on="1"/>
        <pt x="595" y="1862" on="1"/>
        <pt x="580" y="1836" on="0"/>
        <pt x="534" y="1784" on="0"/>
        <pt x="480" y="1743" on="0"/>
        <pt x="421" y="1717" on="0"/>
        <pt x="393" y="1717" on="1"/>
        <pt x="354" y="1717" on="0"/>
        <pt x="291" y="1741" on="0"/>
        <pt x="234" y="1769" on="0"/>
        <pt x="182" y="1793" on="0"/>
        <pt x="154" y="1793" on="1"/>
        <pt x="125" y="1793" on="0"/>
        <pt x="50" y="1759" on="0"/>
        <pt x="15" y="1717" on="1"/>
      </contour>
      <contour>
        <pt x="170" y="1593" on="1"/>
        <pt x="356" y="1593" on="1"/>
        <pt x="356" y="0" on="1"/>
        <pt x="170" y="0" on="1"/>
      </contour>
    </TTGlyph>
    <TTGlyph name="J" xMin="4" yMin="-27" xMax="366" yMax="1593">
      <contour>
        <pt x="4" y="140" on="1"/>
        <pt x="51" y="173" on="0"/>
        <pt x="118" y="243" on="0"/>
        <pt x="160" y="324" on="0"/>
        <pt x="180" y="417" on="0"/>
        <pt x="180" y="473" on="1"/>
        <pt x="180" y="1593" on="1"/>
        <pt x="366" y="1593" on="1"/>
        <pt x="366" y="453" on="1"/>
        <pt x="366" y="376" on="0"/>
        <pt x="338" y="236" on="0"/>
        <pt x="275" y="115" on="0"/>
        <pt x="176" y="13" on="0"/>
        <pt x="104" y="-27" on="1"/>
      </contour>
    </TTGlyph>
    <TTGlyph name="Jcircumflex" xMin="55" yMin="-27" xMax="701" yMax="2020">
      <contour>
        <pt x="69" y="1857" on="1"/>
        <pt x="385" y="2020" on="1"/>
        <pt x="701" y="1857" on="1"/>
        <pt x="625" y="1719" on="1"/>
        <pt x="385" y="1840" on="1"/>
        <pt x="145" y="1719" on="1"/>
      </contour>
      <contour>
        <pt x="55" y="140" on="1"/>
        <pt x="102" y="173" on="0"/>
        <pt x="169" y="243" on="0"/>
        <pt x="211" y="324" on="0"/>
        <pt x="231" y="417" on="0"/>
        <pt x="231" y="473" on="1"/>
        <pt x="231" y="1593" on="1"/>
        <pt x="417" y="1593" on="1"/>
        <pt x="417" y="453" on="1"/>
        <pt x="417" y="376" on="0"/>
        <pt x="389" y="236" on="0"/>
        <pt x="326" y="115" on="0"/>
        <pt x="227" y="13" on="0"/>
        <pt x="155" y="-27" on="1"/>
      </contour>
    </TTGlyph>
    <TTGlyph name="K" xMin="170" yMin="0" xMax="975" yMax="1593">
      <contour>
        <pt x="170" y="1593" on="1"/>
        <pt x="356" y="1593" on="1"/>
        <pt x="356" y="810" on="1"/>
        <pt x="740" y="1593" on="1"/>
        <pt x="940" y="1593" on="1"/>
        <pt x="527" y="757" on="1"/>
        <pt x="975" y="0" on="1"/>
        <pt x="760" y="0" on="1"/>
        <pt x="356" y="687" on="1"/>
        <pt x="356" y="0" on="1"/>
        <pt x="170" y="0" on="1"/>
      </contour>
    </TTGlyph>
    <TTGlyph name="L" xMin="170" yMin="0" xMax="767" yMax="1593">
      <contour>
        <pt x="170" y="1593" on="1"/>
        <pt x="356" y="1593" on="1"/>
        <pt x="356" y="174" on="1"/>
        <pt x="767" y="174" on="1"/>
        <pt x="767" y="0" on="1"/>
        <pt x="170" y="0" on="1"/>
      </contour>
    </TTGlyph>
    <TTGlyph name="Ldotaccent" xMin="170" yMin="0" xMax="815" yMax="1593">
      <contour>
        <pt x="170" y="1593" on="1"/>
        <pt x="356" y="1593" on="1"/>
        <pt x="356" y="174" on="1"/>
        <pt x="767" y="174" on="1"/>
        <pt x="767" y="0" on="1"/>
        <pt x="170" y="0" on="1"/>
      </contour>
      <contour>
        <pt x="676" y="668" on="1"/>
        <pt x="644" y="668" on="0"/>
        <pt x="593" y="690" on="0"/>
        <pt x="557" y="726" on="0"/>
        <pt x="537" y="774" on="0"/>
        <pt x="537" y="801" on="1"/>
        <pt x="537" y="828" on="0"/>
        <pt x="557" y="876" on="0"/>
        <pt x="593" y="913" on="0"/>
        <pt x="644" y="935" on="0"/>
        <pt x="676" y="935" on="1"/>
        <pt x="707" y="935" on="0"/>
        <pt x="759" y="913" on="0"/>
        <pt x="795" y="876" on="0"/>
        <pt x="815" y="828" on="0"/>
        <pt x="815" y="801" on="1"/>
        <pt x="815" y="774" on="0"/>
        <pt x="795" y="726" on="0"/>
        <pt x="759" y="690" on="0"/>
        <pt x="707" y="668" on="0"/>
      </contour>
    </TTGlyph>
    <TTGlyph name="Lslash" xMin="-60" yMin="0" xMax="767" yMax="1593">
      <contour>
        <pt x="170" y="689" on="1"/>
        <pt x="33" y="600" on="1"/>
        <pt x="-60" y="740" on="1"/>
        <pt x="170" y="890" on="1"/>
        <pt x="170" y="1593" on="1"/>
        <pt x="356" y="1593" on="1"/>
        <pt x="356" y="1011" on="1"/>
        <pt x="509" y="1111" on="1"/>
        <pt x="602" y="971" on="1"/>
        <pt x="356" y="810" on="1"/>
        <pt x="356" y="174" on="1"/>
        <pt x="767" y="174" on="1"/>
        <pt x="767" y="0" on="1"/>
        <pt x="170" y="0" on="1"/>
      </contour>
    </TTGlyph>
    <TTGlyph name="M" xMin="170" yMin="0" xMax="1091" yMax="1654">
      <contour>
        <pt x="170" y="1654" on="1"/>
        <pt x="630" y="810" on="1"/>
        <pt x="1091" y="1654" on="1"/>
        <pt x="1091" y="0" on="1"/>
        <pt x="905" y="0" on="1"/>
        <pt x="905" y="748" on="1"/>
        <pt x="910" y="949" on="1"/>
        <pt x="804" y="746" on="1"/>
        <pt x="631" y="431" on="1"/>
        <pt x="631" y="429" on="1"/>
        <pt x="630" y="430" on="1"/>
        <pt x="630" y="431" on="1"/>
        <pt x="456" y="747" on="1"/>
        <pt x="350" y="949" on="1"/>
        <pt x="356" y="750" on="1"/>
        <pt x="356" y="0" on="1"/>
        <pt x="170" y="0" on="1"/>
      </contour>
    </TTGlyph>
    <TTGlyph name="N" xMin="170" yMin="-34" xMax="961" yMax="1654">
      <contour>
        <pt x="170" y="1654" on="1"/>
        <pt x="671" y="819" on="1"/>
        <pt x="781" y="625" on="1"/>
        <pt x="776" y="816" on="1"/>
        <pt x="776" y="1593" on="1"/>
        <pt x="961" y="1593" on="1"/>
        <pt x="961" y="-34" on="1"/>
        <pt x="459" y="796" on="1"/>
        <pt x="350" y="970" on="1"/>
        <pt x="356" y="796" on="1"/>
        <pt x="356" y="0" on="1"/>
        <pt x="170" y="0" on="1"/>
      </contour>
    </TTGlyph>
    <TTGlyph name="Nacute" xMin="166" yMin="-34" xMax="957" yMax="2020">
      <contour>
        <pt x="284" y="1825" on="1"/>
        <pt x="727" y="2020" on="1"/>
        <pt x="794" y="1867" on="1"/>
        <pt x="352" y="1671" on="1"/>
      </contour>
      <contour>
        <pt x="166" y="1654" on="1"/>
        <pt x="667" y="819" on="1"/>
        <pt x="777" y="625" on="1"/>
        <pt x="772" y="816" on="1"/>
        <pt x="772" y="1593" on="1"/>
        <pt x="957" y="1593" on="1"/>
        <pt x="957" y="-34" on="1"/>
        <pt x="455" y="796" on="1"/>
        <pt x="346" y="970" on="1"/>
        <pt x="352" y="796" on="1"/>
        <pt x="352" y="0" on="1"/>
        <pt x="166" y="0" on="1"/>
      </contour>
    </TTGlyph>
    <TTGlyph name="Ntilde" xMin="166" yMin="-34" xMax="957" yMax="1959">
      <contour>
        <pt x="217" y="1814" on="1"/>
        <pt x="232" y="1840" on="0"/>
        <pt x="277" y="1892" on="0"/>
        <pt x="331" y="1933" on="0"/>
        <pt x="390" y="1959" on="0"/>
        <pt x="419" y="1959" on="1"/>
        <pt x="458" y="1959" on="0"/>
        <pt x="521" y="1935" on="0"/>
        <pt x="578" y="1907" on="0"/>
        <pt x="630" y="1883" on="0"/>
        <pt x="658" y="1883" on="1"/>
        <pt x="687" y="1883" on="0"/>
        <pt x="762" y="1917" on="0"/>
        <pt x="797" y="1959" on="1"/>
        <pt x="873" y="1862" on="1"/>
        <pt x="858" y="1836" on="0"/>
        <pt x="812" y="1784" on="0"/>
        <pt x="758" y="1743" on="0"/>
        <pt x="699" y="1717" on="0"/>
        <pt x="671" y="1717" on="1"/>
        <pt x="632" y="1717" on="0"/>
        <pt x="569" y="1741" on="0"/>
        <pt x="512" y="1769" on="0"/>
        <pt x="460" y="1793" on="0"/>
        <pt x="432" y="1793" on="1"/>
        <pt x="403" y="1793" on="0"/>
        <pt x="328" y="1759" on="0"/>
        <pt x="293" y="1717" on="1"/>
      </contour>
      <contour>
        <pt x="166" y="1654" on="1"/>
        <pt x="667" y="819" on="1"/>
        <pt x="777" y="625" on="1"/>
        <pt x="772" y="816" on="1"/>
        <pt x="772" y="1593" on="1"/>
        <pt x="957" y="1593" on="1"/>
        <pt x="957" y="-34" on="1"/>
        <pt x="455" y="796" on="1"/>
        <pt x="346" y="970" on="1"/>
        <pt x="352" y="796" on="1"/>
        <pt x="352" y="0" on="1"/>
        <pt x="166" y="0" on="1"/>
      </contour>
    </TTGlyph>
    <TTGlyph name="O" xMin="90" yMin="-19" xMax="958" yMax="1611">
      <contour>
        <pt x="524" y="-19" on="1"/>
        <pt x="476" y="-19" on="0"/>
        <pt x="375" y="10" on="0"/>
        <pt x="279" y="81" on="0"/>
        <pt x="193" y="200" on="0"/>
        <pt x="128" y="381" on="0"/>
        <pt x="90" y="631" on="0"/>
        <pt x="90" y="796" on="1"/>
        <pt x="90" y="961" on="0"/>
        <pt x="128" y="1211" on="0"/>
        <pt x="193" y="1392" on="0"/>
        <pt x="279" y="1511" on="0"/>
        <pt x="375" y="1582" on="0"/>
        <pt x="476" y="1611" on="0"/>
        <pt x="524" y="1611" on="1"/>
        <pt x="571" y="1611" on="0"/>
        <pt x="673" y="1582" on="0"/>
        <pt x="769" y="1511" on="0"/>
        <pt x="855" y="1392" on="0"/>
        <pt x="920" y="1211" on="0"/>
        <pt x="958" y="961" on="0"/>
        <pt x="958" y="796" on="1"/>
        <pt x="958" y="631" on="0"/>
        <pt x="920" y="381" on="0"/>
        <pt x="855" y="200" on="0"/>
        <pt x="769" y="81" on="0"/>
        <pt x="673" y="10" on="0"/>
        <pt x="571" y="-19" on="0"/>
      </contour>
      <contour>
        <pt x="524" y="165" on="1"/>
        <pt x="566" y="165" on="0"/>
        <pt x="652" y="226" on="0"/>
        <pt x="721" y="371" on="0"/>
        <pt x="765" y="614" on="0"/>
        <pt x="765" y="796" on="1"/>
        <pt x="765" y="978" on="0"/>
        <pt x="721" y="1221" on="0"/>
        <pt x="652" y="1366" on="0"/>
        <pt x="566" y="1427" on="0"/>
        <pt x="524" y="1427" on="1"/>
        <pt x="482" y="1427" on="0"/>
        <pt x="396" y="1366" on="0"/>
        <pt x="327" y="1221" on="0"/>
        <pt x="283" y="978" on="0"/>
        <pt x="283" y="796" on="1"/>
        <pt x="283" y="614" on="0"/>
        <pt x="327" y="371" on="0"/>
        <pt x="396" y="226" on="0"/>
        <pt x="482" y="165" on="0"/>
      </contour>
    </TTGlyph>
    <TTGlyph name="OE" xMin="90" yMin="-18" xMax="1304" yMax="1612">
      <contour>
        <pt x="524" y="-18" on="1"/>
        <pt x="476" y="-18" on="0"/>
        <pt x="375" y="10" on="0"/>
        <pt x="279" y="80" on="0"/>
        <pt x="193" y="198" on="0"/>
        <pt x="128" y="377" on="0"/>
        <pt x="90" y="626" on="0"/>
        <pt x="90" y="791" on="1"/>
        <pt x="90" y="957" on="0"/>
        <pt x="127" y="1207" on="0"/>
        <pt x="191" y="1390" on="0"/>
        <pt x="277" y="1511" on="0"/>
        <pt x="375" y="1582" on="0"/>
        <pt x="479" y="1612" on="0"/>
        <pt x="529" y="1612" on="1"/>
        <pt x="586" y="1612" on="0"/>
        <pt x="639" y="1593" on="1"/>
        <pt x="1304" y="1593" on="1"/>
        <pt x="1304" y="1417" on="1"/>
        <pt x="954" y="1417" on="1"/>
        <pt x="954" y="805" on="1"/>
        <pt x="1254" y="805" on="1"/>
        <pt x="1254" y="629" on="1"/>
        <pt x="954" y="629" on="1"/>
        <pt x="954" y="176" on="1"/>
        <pt x="1304" y="176" on="1"/>
        <pt x="1304" y="0" on="1"/>
        <pt x="631" y="0" on="1"/>
        <pt x="604" y="-10" on="0"/>
        <pt x="550" y="-18" on="0"/>
      </contour>
      <contour>
        <pt x="524" y="165" on="1"/>
        <pt x="564" y="165" on="0"/>
        <pt x="646" y="217" on="0"/>
        <pt x="715" y="345" on="0"/>
        <pt x="763" y="558" on="0"/>
        <pt x="768" y="719" on="1"/>
        <pt x="768" y="860" on="1"/>
        <pt x="764" y="1024" on="0"/>
        <pt x="720" y="1246" on="0"/>
        <pt x="654" y="1380" on="0"/>
        <pt x="571" y="1437" on="0"/>
        <pt x="529" y="1437" on="1"/>
        <pt x="484" y="1437" on="0"/>
        <pt x="396" y="1373" on="0"/>
        <pt x="326" y="1223" on="0"/>
        <pt x="283" y="974" on="0"/>
        <pt x="283" y="789" on="1"/>
        <pt x="283" y="607" on="0"/>
        <pt x="327" y="367" on="0"/>
        <pt x="396" y="224" on="0"/>
        <pt x="482" y="165" on="0"/>
      </contour>
    </TTGlyph>
    <TTGlyph name="Oacute" xMin="90" yMin="-19" xMax="958" yMax="2020">
      <contour>
        <pt x="251" y="1825" on="1"/>
        <pt x="694" y="2020" on="1"/>
        <pt x="761" y="1867" on="1"/>
        <pt x="319" y="1671" on="1"/>
      </contour>
      <contour>
        <pt x="524" y="-19" on="1"/>
        <pt x="476" y="-19" on="0"/>
        <pt x="375" y="10" on="0"/>
        <pt x="279" y="81" on="0"/>
        <pt x="193" y="200" on="0"/>
        <pt x="128" y="381" on="0"/>
        <pt x="90" y="631" on="0"/>
        <pt x="90" y="796" on="1"/>
        <pt x="90" y="961" on="0"/>
        <pt x="128" y="1211" on="0"/>
        <pt x="193" y="1392" on="0"/>
        <pt x="279" y="1511" on="0"/>
        <pt x="375" y="1582" on="0"/>
        <pt x="476" y="1611" on="0"/>
        <pt x="524" y="1611" on="1"/>
        <pt x="571" y="1611" on="0"/>
        <pt x="673" y="1582" on="0"/>
        <pt x="769" y="1511" on="0"/>
        <pt x="855" y="1392" on="0"/>
        <pt x="920" y="1211" on="0"/>
        <pt x="958" y="961" on="0"/>
        <pt x="958" y="796" on="1"/>
        <pt x="958" y="631" on="0"/>
        <pt x="920" y="381" on="0"/>
        <pt x="855" y="200" on="0"/>
        <pt x="769" y="81" on="0"/>
        <pt x="673" y="10" on="0"/>
        <pt x="571" y="-19" on="0"/>
      </contour>
      <contour>
        <pt x="524" y="165" on="1"/>
        <pt x="566" y="165" on="0"/>
        <pt x="652" y="226" on="0"/>
        <pt x="721" y="371" on="0"/>
        <pt x="765" y="614" on="0"/>
        <pt x="765" y="796" on="1"/>
        <pt x="765" y="978" on="0"/>
        <pt x="721" y="1221" on="0"/>
        <pt x="652" y="1366" on="0"/>
        <pt x="566" y="1427" on="0"/>
        <pt x="524" y="1427" on="1"/>
        <pt x="482" y="1427" on="0"/>
        <pt x="396" y="1366" on="0"/>
        <pt x="327" y="1221" on="0"/>
        <pt x="283" y="978" on="0"/>
        <pt x="283" y="796" on="1"/>
        <pt x="283" y="614" on="0"/>
        <pt x="327" y="371" on="0"/>
        <pt x="396" y="226" on="0"/>
        <pt x="482" y="165" on="0"/>
      </contour>
    </TTGlyph>
    <TTGlyph name="Ocircumflex" xMin="90" yMin="-19" xMax="958" yMax="2020">
      <contour>
        <pt x="210" y="1857" on="1"/>
        <pt x="526" y="2020" on="1"/>
        <pt x="842" y="1857" on="1"/>
        <pt x="766" y="1719" on="1"/>
        <pt x="526" y="1840" on="1"/>
        <pt x="286" y="1719" on="1"/>
      </contour>
      <contour>
        <pt x="524" y="-19" on="1"/>
        <pt x="476" y="-19" on="0"/>
        <pt x="375" y="10" on="0"/>
        <pt x="279" y="81" on="0"/>
        <pt x="193" y="200" on="0"/>
        <pt x="128" y="381" on="0"/>
        <pt x="90" y="631" on="0"/>
        <pt x="90" y="796" on="1"/>
        <pt x="90" y="961" on="0"/>
        <pt x="128" y="1211" on="0"/>
        <pt x="193" y="1392" on="0"/>
        <pt x="279" y="1511" on="0"/>
        <pt x="375" y="1582" on="0"/>
        <pt x="476" y="1611" on="0"/>
        <pt x="524" y="1611" on="1"/>
        <pt x="571" y="1611" on="0"/>
        <pt x="673" y="1582" on="0"/>
        <pt x="769" y="1511" on="0"/>
        <pt x="855" y="1392" on="0"/>
        <pt x="920" y="1211" on="0"/>
        <pt x="958" y="961" on="0"/>
        <pt x="958" y="796" on="1"/>
        <pt x="958" y="631" on="0"/>
        <pt x="920" y="381" on="0"/>
        <pt x="855" y="200" on="0"/>
        <pt x="769" y="81" on="0"/>
        <pt x="673" y="10" on="0"/>
        <pt x="571" y="-19" on="0"/>
      </contour>
      <contour>
        <pt x="524" y="165" on="1"/>
        <pt x="566" y="165" on="0"/>
        <pt x="652" y="226" on="0"/>
        <pt x="721" y="371" on="0"/>
        <pt x="765" y="614" on="0"/>
        <pt x="765" y="796" on="1"/>
        <pt x="765" y="978" on="0"/>
        <pt x="721" y="1221" on="0"/>
        <pt x="652" y="1366" on="0"/>
        <pt x="566" y="1427" on="0"/>
        <pt x="524" y="1427" on="1"/>
        <pt x="482" y="1427" on="0"/>
        <pt x="396" y="1366" on="0"/>
        <pt x="327" y="1221" on="0"/>
        <pt x="283" y="978" on="0"/>
        <pt x="283" y="796" on="1"/>
        <pt x="283" y="614" on="0"/>
        <pt x="327" y="371" on="0"/>
        <pt x="396" y="226" on="0"/>
        <pt x="482" y="165" on="0"/>
      </contour>
    </TTGlyph>
    <TTGlyph name="Odieresis" xMin="90" yMin="-19" xMax="958" yMax="1947">
      <contour>
        <pt x="709" y="1699" on="1"/>
        <pt x="680" y="1699" on="0"/>
        <pt x="632" y="1719" on="0"/>
        <pt x="598" y="1753" on="0"/>
        <pt x="580" y="1798" on="0"/>
        <pt x="580" y="1823" on="1"/>
        <pt x="580" y="1848" on="0"/>
        <pt x="598" y="1893" on="0"/>
        <pt x="632" y="1927" on="0"/>
        <pt x="680" y="1947" on="0"/>
        <pt x="709" y="1947" on="1"/>
        <pt x="738" y="1947" on="0"/>
        <pt x="786" y="1927" on="0"/>
        <pt x="820" y="1893" on="0"/>
        <pt x="838" y="1848" on="0"/>
        <pt x="838" y="1823" on="1"/>
        <pt x="838" y="1798" on="0"/>
        <pt x="820" y="1753" on="0"/>
        <pt x="786" y="1719" on="0"/>
        <pt x="738" y="1699" on="0"/>
      </contour>
      <contour>
        <pt x="333" y="1699" on="1"/>
        <pt x="304" y="1699" on="0"/>
        <pt x="256" y="1719" on="0"/>
        <pt x="222" y="1753" on="0"/>
        <pt x="204" y="1798" on="0"/>
        <pt x="204" y="1823" on="1"/>
        <pt x="204" y="1848" on="0"/>
        <pt x="222" y="1893" on="0"/>
        <pt x="256" y="1927" on="0"/>
        <pt x="304" y="1947" on="0"/>
        <pt x="333" y="1947" on="1"/>
        <pt x="362" y="1947" on="0"/>
        <pt x="410" y="1927" on="0"/>
        <pt x="444" y="1893" on="0"/>
        <pt x="462" y="1848" on="0"/>
        <pt x="462" y="1823" on="1"/>
        <pt x="462" y="1798" on="0"/>
        <pt x="444" y="1753" on="0"/>
        <pt x="410" y="1719" on="0"/>
        <pt x="362" y="1699" on="0"/>
      </contour>
      <contour>
        <pt x="524" y="-19" on="1"/>
        <pt x="476" y="-19" on="0"/>
        <pt x="375" y="10" on="0"/>
        <pt x="279" y="81" on="0"/>
        <pt x="193" y="200" on="0"/>
        <pt x="128" y="381" on="0"/>
        <pt x="90" y="631" on="0"/>
        <pt x="90" y="796" on="1"/>
        <pt x="90" y="961" on="0"/>
        <pt x="128" y="1211" on="0"/>
        <pt x="193" y="1392" on="0"/>
        <pt x="279" y="1511" on="0"/>
        <pt x="375" y="1582" on="0"/>
        <pt x="476" y="1611" on="0"/>
        <pt x="524" y="1611" on="1"/>
        <pt x="571" y="1611" on="0"/>
        <pt x="673" y="1582" on="0"/>
        <pt x="769" y="1511" on="0"/>
        <pt x="855" y="1392" on="0"/>
        <pt x="920" y="1211" on="0"/>
        <pt x="958" y="961" on="0"/>
        <pt x="958" y="796" on="1"/>
        <pt x="958" y="631" on="0"/>
        <pt x="920" y="381" on="0"/>
        <pt x="855" y="200" on="0"/>
        <pt x="769" y="81" on="0"/>
        <pt x="673" y="10" on="0"/>
        <pt x="571" y="-19" on="0"/>
      </contour>
      <contour>
        <pt x="524" y="165" on="1"/>
        <pt x="566" y="165" on="0"/>
        <pt x="652" y="226" on="0"/>
        <pt x="721" y="371" on="0"/>
        <pt x="765" y="614" on="0"/>
        <pt x="765" y="796" on="1"/>
        <pt x="765" y="978" on="0"/>
        <pt x="721" y="1221" on="0"/>
        <pt x="652" y="1366" on="0"/>
        <pt x="566" y="1427" on="0"/>
        <pt x="524" y="1427" on="1"/>
        <pt x="482" y="1427" on="0"/>
        <pt x="396" y="1366" on="0"/>
        <pt x="327" y="1221" on="0"/>
        <pt x="283" y="978" on="0"/>
        <pt x="283" y="796" on="1"/>
        <pt x="283" y="614" on="0"/>
        <pt x="327" y="371" on="0"/>
        <pt x="396" y="226" on="0"/>
        <pt x="482" y="165" on="0"/>
      </contour>
    </TTGlyph>
    <TTGlyph name="Ograve" xMin="90" yMin="-19" xMax="958" yMax="2020">
      <contour>
        <pt x="298" y="1867" on="1"/>
        <pt x="365" y="2020" on="1"/>
        <pt x="808" y="1825" on="1"/>
        <pt x="740" y="1671" on="1"/>
      </contour>
      <contour>
        <pt x="524" y="-19" on="1"/>
        <pt x="476" y="-19" on="0"/>
        <pt x="375" y="10" on="0"/>
        <pt x="279" y="81" on="0"/>
        <pt x="193" y="200" on="0"/>
        <pt x="128" y="381" on="0"/>
        <pt x="90" y="631" on="0"/>
        <pt x="90" y="796" on="1"/>
        <pt x="90" y="961" on="0"/>
        <pt x="128" y="1211" on="0"/>
        <pt x="193" y="1392" on="0"/>
        <pt x="279" y="1511" on="0"/>
        <pt x="375" y="1582" on="0"/>
        <pt x="476" y="1611" on="0"/>
        <pt x="524" y="1611" on="1"/>
        <pt x="571" y="1611" on="0"/>
        <pt x="673" y="1582" on="0"/>
        <pt x="769" y="1511" on="0"/>
        <pt x="855" y="1392" on="0"/>
        <pt x="920" y="1211" on="0"/>
        <pt x="958" y="961" on="0"/>
        <pt x="958" y="796" on="1"/>
        <pt x="958" y="631" on="0"/>
        <pt x="920" y="381" on="0"/>
        <pt x="855" y="200" on="0"/>
        <pt x="769" y="81" on="0"/>
        <pt x="673" y="10" on="0"/>
        <pt x="571" y="-19" on="0"/>
      </contour>
      <contour>
        <pt x="524" y="165" on="1"/>
        <pt x="566" y="165" on="0"/>
        <pt x="652" y="226" on="0"/>
        <pt x="721" y="371" on="0"/>
        <pt x="765" y="614" on="0"/>
        <pt x="765" y="796" on="1"/>
        <pt x="765" y="978" on="0"/>
        <pt x="721" y="1221" on="0"/>
        <pt x="652" y="1366" on="0"/>
        <pt x="566" y="1427" on="0"/>
        <pt x="524" y="1427" on="1"/>
        <pt x="482" y="1427" on="0"/>
        <pt x="396" y="1366" on="0"/>
        <pt x="327" y="1221" on="0"/>
        <pt x="283" y="978" on="0"/>
        <pt x="283" y="796" on="1"/>
        <pt x="283" y="614" on="0"/>
        <pt x="327" y="371" on="0"/>
        <pt x="396" y="226" on="0"/>
        <pt x="482" y="165" on="0"/>
      </contour>
    </TTGlyph>
    <TTGlyph name="Oslash" xMin="90" yMin="-87" xMax="958" yMax="1679">
      <contour>
        <pt x="208" y="184" on="1"/>
        <pt x="182" y="230" on="0"/>
        <pt x="138" y="351" on="0"/>
        <pt x="107" y="502" on="0"/>
        <pt x="90" y="686" on="0"/>
        <pt x="90" y="796" on="1"/>
        <pt x="90" y="961" on="0"/>
        <pt x="128" y="1211" on="0"/>
        <pt x="193" y="1392" on="0"/>
        <pt x="279" y="1511" on="0"/>
        <pt x="375" y="1582" on="0"/>
        <pt x="476" y="1611" on="0"/>
        <pt x="524" y="1611" on="1"/>
        <pt x="564" y="1611" on="0"/>
        <pt x="648" y="1591" on="0"/>
        <pt x="690" y="1567" on="1"/>
        <pt x="729" y="1679" on="1"/>
        <pt x="881" y="1631" on="1"/>
        <pt x="816" y="1445" on="1"/>
        <pt x="847" y="1399" on="0"/>
        <pt x="899" y="1276" on="0"/>
        <pt x="937" y="1117" on="0"/>
        <pt x="958" y="918" on="0"/>
        <pt x="958" y="796" on="1"/>
        <pt x="958" y="631" on="0"/>
        <pt x="920" y="381" on="0"/>
        <pt x="855" y="200" on="0"/>
        <pt x="769" y="81" on="0"/>
        <pt x="673" y="10" on="0"/>
        <pt x="571" y="-19" on="0"/>
        <pt x="524" y="-19" on="1"/>
        <pt x="476" y="-19" on="0"/>
        <pt x="376" y="9" on="0"/>
        <pt x="328" y="44" on="1"/>
        <pt x="283" y="-87" on="1"/>
        <pt x="131" y="-39" on="1"/>
      </contour>
      <contour>
        <pt x="625" y="1382" on="1"/>
        <pt x="601" y="1406" on="0"/>
        <pt x="549" y="1427" on="0"/>
        <pt x="524" y="1427" on="1"/>
        <pt x="482" y="1427" on="0"/>
        <pt x="396" y="1366" on="0"/>
        <pt x="327" y="1221" on="0"/>
        <pt x="283" y="978" on="0"/>
        <pt x="283" y="796" on="1"/>
        <pt x="283" y="696" on="0"/>
        <pt x="296" y="536" on="0"/>
        <pt x="308" y="471" on="1"/>
      </contour>
      <contour>
        <pt x="396" y="240" on="1"/>
        <pt x="426" y="199" on="0"/>
        <pt x="492" y="165" on="0"/>
        <pt x="524" y="165" on="1"/>
        <pt x="566" y="165" on="0"/>
        <pt x="652" y="226" on="0"/>
        <pt x="721" y="371" on="0"/>
        <pt x="765" y="614" on="0"/>
        <pt x="765" y="796" on="1"/>
        <pt x="765" y="922" on="0"/>
        <pt x="743" y="1112" on="0"/>
        <pt x="725" y="1184" on="1"/>
      </contour>
    </TTGlyph>
    <TTGlyph name="Otilde" xMin="90" yMin="-19" xMax="958" yMax="1959">
      <contour>
        <pt x="195" y="1814" on="1"/>
        <pt x="210" y="1840" on="0"/>
        <pt x="255" y="1892" on="0"/>
        <pt x="309" y="1933" on="0"/>
        <pt x="368" y="1959" on="0"/>
        <pt x="397" y="1959" on="1"/>
        <pt x="436" y="1959" on="0"/>
        <pt x="499" y="1935" on="0"/>
        <pt x="556" y="1907" on="0"/>
        <pt x="608" y="1883" on="0"/>
        <pt x="636" y="1883" on="1"/>
        <pt x="665" y="1883" on="0"/>
        <pt x="740" y="1917" on="0"/>
        <pt x="775" y="1959" on="1"/>
        <pt x="851" y="1862" on="1"/>
        <pt x="836" y="1836" on="0"/>
        <pt x="790" y="1784" on="0"/>
        <pt x="736" y="1743" on="0"/>
        <pt x="677" y="1717" on="0"/>
        <pt x="649" y="1717" on="1"/>
        <pt x="610" y="1717" on="0"/>
        <pt x="547" y="1741" on="0"/>
        <pt x="490" y="1769" on="0"/>
        <pt x="438" y="1793" on="0"/>
        <pt x="410" y="1793" on="1"/>
        <pt x="381" y="1793" on="0"/>
        <pt x="306" y="1759" on="0"/>
        <pt x="271" y="1717" on="1"/>
      </contour>
      <contour>
        <pt x="524" y="-19" on="1"/>
        <pt x="476" y="-19" on="0"/>
        <pt x="375" y="10" on="0"/>
        <pt x="279" y="81" on="0"/>
        <pt x="193" y="200" on="0"/>
        <pt x="128" y="381" on="0"/>
        <pt x="90" y="631" on="0"/>
        <pt x="90" y="796" on="1"/>
        <pt x="90" y="961" on="0"/>
        <pt x="128" y="1211" on="0"/>
        <pt x="193" y="1392" on="0"/>
        <pt x="279" y="1511" on="0"/>
        <pt x="375" y="1582" on="0"/>
        <pt x="476" y="1611" on="0"/>
        <pt x="524" y="1611" on="1"/>
        <pt x="571" y="1611" on="0"/>
        <pt x="673" y="1582" on="0"/>
        <pt x="769" y="1511" on="0"/>
        <pt x="855" y="1392" on="0"/>
        <pt x="920" y="1211" on="0"/>
        <pt x="958" y="961" on="0"/>
        <pt x="958" y="796" on="1"/>
        <pt x="958" y="631" on="0"/>
        <pt x="920" y="381" on="0"/>
        <pt x="855" y="200" on="0"/>
        <pt x="769" y="81" on="0"/>
        <pt x="673" y="10" on="0"/>
        <pt x="571" y="-19" on="0"/>
      </contour>
      <contour>
        <pt x="524" y="165" on="1"/>
        <pt x="566" y="165" on="0"/>
        <pt x="652" y="226" on="0"/>
        <pt x="721" y="371" on="0"/>
        <pt x="765" y="614" on="0"/>
        <pt x="765" y="796" on="1"/>
        <pt x="765" y="978" on="0"/>
        <pt x="721" y="1221" on="0"/>
        <pt x="652" y="1366" on="0"/>
        <pt x="566" y="1427" on="0"/>
        <pt x="524" y="1427" on="1"/>
        <pt x="482" y="1427" on="0"/>
        <pt x="396" y="1366" on="0"/>
        <pt x="327" y="1221" on="0"/>
        <pt x="283" y="978" on="0"/>
        <pt x="283" y="796" on="1"/>
        <pt x="283" y="614" on="0"/>
        <pt x="327" y="371" on="0"/>
        <pt x="396" y="226" on="0"/>
        <pt x="482" y="165" on="0"/>
      </contour>
    </TTGlyph>
    <TTGlyph name="P" xMin="170" yMin="0" xMax="843" yMax="1613">
      <contour>
        <pt x="170" y="1613" on="1"/>
        <pt x="341" y="1620" on="0"/>
        <pt x="595" y="1543" on="0"/>
        <pt x="761" y="1391" on="0"/>
        <pt x="843" y="1173" on="0"/>
        <pt x="843" y="1041" on="1"/>
        <pt x="843" y="928" on="0"/>
        <pt x="784" y="736" on="0"/>
        <pt x="663" y="589" on="0"/>
        <pt x="480" y="493" on="0"/>
        <pt x="356" y="476" on="1"/>
        <pt x="356" y="0" on="1"/>
        <pt x="170" y="0" on="1"/>
      </contour>
      <contour>
        <pt x="356" y="665" on="1"/>
        <pt x="420" y="671" on="0"/>
        <pt x="528" y="722" on="0"/>
        <pt x="606" y="816" on="0"/>
        <pt x="650" y="951" on="0"/>
        <pt x="650" y="1041" on="1"/>
        <pt x="650" y="1131" on="0"/>
        <pt x="606" y="1266" on="0"/>
        <pt x="528" y="1360" on="0"/>
        <pt x="420" y="1411" on="0"/>
        <pt x="356" y="1417" on="1"/>
      </contour>
    </TTGlyph>
    <TTGlyph name="Q" xMin="90" yMin="-73" xMax="969" yMax="1611">
      <contour>
        <pt x="524" y="-19" on="1"/>
        <pt x="476" y="-19" on="0"/>
        <pt x="375" y="10" on="0"/>
        <pt x="279" y="81" on="0"/>
        <pt x="193" y="200" on="0"/>
        <pt x="128" y="381" on="0"/>
        <pt x="90" y="631" on="0"/>
        <pt x="90" y="796" on="1"/>
        <pt x="90" y="961" on="0"/>
        <pt x="128" y="1211" on="0"/>
        <pt x="193" y="1392" on="0"/>
        <pt x="279" y="1511" on="0"/>
        <pt x="375" y="1582" on="0"/>
        <pt x="476" y="1611" on="0"/>
        <pt x="524" y="1611" on="1"/>
        <pt x="571" y="1611" on="0"/>
        <pt x="673" y="1582" on="0"/>
        <pt x="769" y="1511" on="0"/>
        <pt x="855" y="1392" on="0"/>
        <pt x="920" y="1211" on="0"/>
        <pt x="958" y="961" on="0"/>
        <pt x="958" y="796" on="1"/>
        <pt x="958" y="685" on="0"/>
        <pt x="940" y="500" on="0"/>
        <pt x="909" y="349" on="0"/>
        <pt x="865" y="228" on="0"/>
        <pt x="838" y="181" on="1"/>
        <pt x="969" y="34" on="1"/>
        <pt x="839" y="-73" on="1"/>
        <pt x="729" y="51" on="1"/>
        <pt x="678" y="13" on="0"/>
        <pt x="574" y="-19" on="0"/>
      </contour>
      <contour>
        <pt x="524" y="165" on="1"/>
        <pt x="544" y="165" on="0"/>
        <pt x="584" y="178" on="0"/>
        <pt x="604" y="192" on="1"/>
        <pt x="434" y="384" on="1"/>
        <pt x="564" y="491" on="1"/>
        <pt x="702" y="335" on="1"/>
        <pt x="731" y="409" on="0"/>
        <pt x="765" y="634" on="0"/>
        <pt x="765" y="796" on="1"/>
        <pt x="765" y="978" on="0"/>
        <pt x="721" y="1221" on="0"/>
        <pt x="652" y="1366" on="0"/>
        <pt x="566" y="1427" on="0"/>
        <pt x="524" y="1427" on="1"/>
        <pt x="482" y="1427" on="0"/>
        <pt x="396" y="1366" on="0"/>
        <pt x="327" y="1221" on="0"/>
        <pt x="283" y="978" on="0"/>
        <pt x="283" y="796" on="1"/>
        <pt x="283" y="614" on="0"/>
        <pt x="327" y="371" on="0"/>
        <pt x="396" y="226" on="0"/>
        <pt x="482" y="165" on="0"/>
      </contour>
    </TTGlyph>
    <TTGlyph name="R" xMin="170" yMin="0" xMax="900" yMax="1613">
      <contour>
        <pt x="170" y="1613" on="1"/>
        <pt x="341" y="1620" on="0"/>
        <pt x="595" y="1546" on="0"/>
        <pt x="761" y="1399" on="0"/>
        <pt x="843" y="1189" on="0"/>
        <pt x="843" y="1061" on="1"/>
        <pt x="843" y="912" on="0"/>
        <pt x="735" y="680" on="0"/>
        <pt x="623" y="607" on="1"/>
        <pt x="900" y="0" on="1"/>
        <pt x="690" y="0" on="1"/>
        <pt x="462" y="537" on="1"/>
        <pt x="412" y="523" on="0"/>
        <pt x="356" y="516" on="1"/>
        <pt x="356" y="0" on="1"/>
        <pt x="170" y="0" on="1"/>
      </contour>
      <contour>
        <pt x="356" y="705" on="1"/>
        <pt x="420" y="711" on="0"/>
        <pt x="528" y="759" on="0"/>
        <pt x="606" y="848" on="0"/>
        <pt x="650" y="976" on="0"/>
        <pt x="650" y="1061" on="1"/>
        <pt x="650" y="1146" on="0"/>
        <pt x="606" y="1274" on="0"/>
        <pt x="528" y="1363" on="0"/>
        <pt x="420" y="1411" on="0"/>
        <pt x="356" y="1417" on="1"/>
      </contour>
    </TTGlyph>
    <TTGlyph name="Racute" xMin="164" yMin="0" xMax="900" yMax="2020">
      <contour>
        <pt x="164" y="1825" on="1"/>
        <pt x="607" y="2020" on="1"/>
        <pt x="674" y="1867" on="1"/>
        <pt x="232" y="1671" on="1"/>
      </contour>
      <contour>
        <pt x="170" y="1613" on="1"/>
        <pt x="341" y="1620" on="0"/>
        <pt x="595" y="1546" on="0"/>
        <pt x="761" y="1399" on="0"/>
        <pt x="843" y="1189" on="0"/>
        <pt x="843" y="1061" on="1"/>
        <pt x="843" y="912" on="0"/>
        <pt x="735" y="680" on="0"/>
        <pt x="623" y="607" on="1"/>
        <pt x="900" y="0" on="1"/>
        <pt x="690" y="0" on="1"/>
        <pt x="462" y="537" on="1"/>
        <pt x="412" y="523" on="0"/>
        <pt x="356" y="516" on="1"/>
        <pt x="356" y="0" on="1"/>
        <pt x="170" y="0" on="1"/>
      </contour>
      <contour>
        <pt x="356" y="705" on="1"/>
        <pt x="420" y="711" on="0"/>
        <pt x="528" y="759" on="0"/>
        <pt x="606" y="848" on="0"/>
        <pt x="650" y="976" on="0"/>
        <pt x="650" y="1061" on="1"/>
        <pt x="650" y="1146" on="0"/>
        <pt x="606" y="1274" on="0"/>
        <pt x="528" y="1363" on="0"/>
        <pt x="420" y="1411" on="0"/>
        <pt x="356" y="1417" on="1"/>
      </contour>
    </TTGlyph>
    <TTGlyph name="Rcaron" xMin="123" yMin="0" xMax="900" yMax="2017">
      <contour>
        <pt x="123" y="1879" on="1"/>
        <pt x="199" y="2017" on="1"/>
        <pt x="439" y="1896" on="1"/>
        <pt x="679" y="2017" on="1"/>
        <pt x="755" y="1879" on="1"/>
        <pt x="439" y="1716" on="1"/>
      </contour>
      <contour>
        <pt x="170" y="1613" on="1"/>
        <pt x="341" y="1620" on="0"/>
        <pt x="595" y="1546" on="0"/>
        <pt x="761" y="1399" on="0"/>
        <pt x="843" y="1189" on="0"/>
        <pt x="843" y="1061" on="1"/>
        <pt x="843" y="912" on="0"/>
        <pt x="735" y="680" on="0"/>
        <pt x="623" y="607" on="1"/>
        <pt x="900" y="0" on="1"/>
        <pt x="690" y="0" on="1"/>
        <pt x="462" y="537" on="1"/>
        <pt x="412" y="523" on="0"/>
        <pt x="356" y="516" on="1"/>
        <pt x="356" y="0" on="1"/>
        <pt x="170" y="0" on="1"/>
      </contour>
      <contour>
        <pt x="356" y="705" on="1"/>
        <pt x="420" y="711" on="0"/>
        <pt x="528" y="759" on="0"/>
        <pt x="606" y="848" on="0"/>
        <pt x="650" y="976" on="0"/>
        <pt x="650" y="1061" on="1"/>
        <pt x="650" y="1146" on="0"/>
        <pt x="606" y="1274" on="0"/>
        <pt x="528" y="1363" on="0"/>
        <pt x="420" y="1411" on="0"/>
        <pt x="356" y="1417" on="1"/>
      </contour>
    </TTGlyph>
    <TTGlyph name="Rcommaaccent" xMin="166" yMin="-503" xMax="896" yMax="1613">
      <contour>
        <pt x="166" y="1613" on="1"/>
        <pt x="337" y="1620" on="0"/>
        <pt x="591" y="1546" on="0"/>
        <pt x="757" y="1399" on="0"/>
        <pt x="839" y="1189" on="0"/>
        <pt x="839" y="1061" on="1"/>
        <pt x="839" y="912" on="0"/>
        <pt x="731" y="680" on="0"/>
        <pt x="619" y="607" on="1"/>
        <pt x="896" y="0" on="1"/>
        <pt x="686" y="0" on="1"/>
        <pt x="458" y="537" on="1"/>
        <pt x="408" y="523" on="0"/>
        <pt x="352" y="516" on="1"/>
        <pt x="352" y="0" on="1"/>
        <pt x="166" y="0" on="1"/>
      </contour>
      <contour>
        <pt x="352" y="705" on="1"/>
        <pt x="416" y="711" on="0"/>
        <pt x="524" y="759" on="0"/>
        <pt x="602" y="848" on="0"/>
        <pt x="646" y="976" on="0"/>
        <pt x="646" y="1061" on="1"/>
        <pt x="646" y="1146" on="0"/>
        <pt x="602" y="1274" on="0"/>
        <pt x="524" y="1363" on="0"/>
        <pt x="416" y="1411" on="0"/>
        <pt x="352" y="1417" on="1"/>
      </contour>
      <contour>
        <pt x="374" y="-188" on="1"/>
        <pt x="374" y="-167" on="0"/>
        <pt x="392" y="-128" on="0"/>
        <pt x="424" y="-98" on="0"/>
        <pt x="470" y="-81" on="0"/>
        <pt x="499" y="-81" on="1"/>
        <pt x="526" y="-81" on="0"/>
        <pt x="574" y="-98" on="0"/>
        <pt x="610" y="-131" on="0"/>
        <pt x="632" y="-182" on="0"/>
        <pt x="632" y="-215" on="1"/>
        <pt x="632" y="-339" on="0"/>
        <pt x="453" y="-503" on="1"/>
        <pt x="374" y="-436" on="1"/>
        <pt x="393" y="-420" on="0"/>
        <pt x="430" y="-383" on="0"/>
        <pt x="460" y="-345" on="0"/>
        <pt x="481" y="-309" on="0"/>
        <pt x="486" y="-293" on="1"/>
        <pt x="435" y="-288" on="0"/>
        <pt x="374" y="-227" on="0"/>
      </contour>
    </TTGlyph>
    <TTGlyph name="S" xMin="80" yMin="-19" xMax="776" yMax="1611">
      <contour>
        <pt x="166" y="239" on="1"/>
        <pt x="215" y="210" on="0"/>
        <pt x="322" y="164" on="0"/>
        <pt x="386" y="164" on="1"/>
        <pt x="425" y="164" on="0"/>
        <pt x="497" y="186" on="0"/>
        <pt x="551" y="232" on="0"/>
        <pt x="583" y="303" on="0"/>
        <pt x="583" y="352" on="1"/>
        <pt x="583" y="385" on="0"/>
        <pt x="566" y="455" on="0"/>
        <pt x="527" y="536" on="0"/>
        <pt x="464" y="632" on="0"/>
        <pt x="417" y="691" on="1"/>
        <pt x="288" y="854" on="1"/>
        <pt x="240" y="915" on="0"/>
        <pt x="173" y="1025" on="0"/>
        <pt x="131" y="1126" on="0"/>
        <pt x="112" y="1219" on="0"/>
        <pt x="112" y="1264" on="1"/>
        <pt x="112" y="1339" on="0"/>
        <pt x="160" y="1466" on="0"/>
        <pt x="252" y="1559" on="0"/>
        <pt x="383" y="1611" on="0"/>
        <pt x="466" y="1611" on="1"/>
        <pt x="532" y="1611" on="0"/>
        <pt x="666" y="1576" on="0"/>
        <pt x="730" y="1538" on="1"/>
        <pt x="650" y="1383" on="1"/>
        <pt x="615" y="1404" on="0"/>
        <pt x="534" y="1435" on="0"/>
        <pt x="485" y="1435" on="1"/>
        <pt x="403" y="1435" on="0"/>
        <pt x="305" y="1342" on="0"/>
        <pt x="305" y="1257" on="1"/>
        <pt x="305" y="1234" on="0"/>
        <pt x="315" y="1185" on="0"/>
        <pt x="340" y="1127" on="0"/>
        <pt x="383" y="1057" on="0"/>
        <pt x="416" y="1013" on="1"/>
        <pt x="603" y="767" on="1"/>
        <pt x="639" y="719" on="0"/>
        <pt x="703" y="628" on="0"/>
        <pt x="749" y="533" on="0"/>
        <pt x="776" y="428" on="0"/>
        <pt x="776" y="367" on="1"/>
        <pt x="776" y="277" on="0"/>
        <pt x="718" y="134" on="0"/>
        <pt x="614" y="34" on="0"/>
        <pt x="471" y="-19" on="0"/>
        <pt x="386" y="-19" on="1"/>
        <pt x="298" y="-19" on="0"/>
        <pt x="138" y="33" on="0"/>
        <pt x="80" y="73" on="1"/>
      </contour>
    </TTGlyph>
    <TTGlyph name="T" xMin="70" yMin="0" xMax="756" yMax="1593">
      <contour>
        <pt x="320" y="1417" on="1"/>
        <pt x="70" y="1417" on="1"/>
        <pt x="70" y="1593" on="1"/>
        <pt x="756" y="1593" on="1"/>
        <pt x="756" y="1417" on="1"/>
        <pt x="506" y="1417" on="1"/>
        <pt x="506" y="0" on="1"/>
        <pt x="320" y="0" on="1"/>
      </contour>
    </TTGlyph>
    <TTGlyph name="Thorn" xMin="166" yMin="0" xMax="839" yMax="1593">
      <contour>
        <pt x="166" y="1593" on="1"/>
        <pt x="352" y="1593" on="1"/>
        <pt x="352" y="1369" on="1"/>
        <pt x="476" y="1352" on="0"/>
        <pt x="659" y="1256" on="0"/>
        <pt x="780" y="1110" on="0"/>
        <pt x="839" y="918" on="0"/>
        <pt x="839" y="805" on="1"/>
        <pt x="839" y="692" on="0"/>
        <pt x="780" y="500" on="0"/>
        <pt x="659" y="353" on="0"/>
        <pt x="476" y="257" on="0"/>
        <pt x="352" y="240" on="1"/>
        <pt x="352" y="0" on="1"/>
        <pt x="166" y="0" on="1"/>
      </contour>
      <contour>
        <pt x="352" y="429" on="1"/>
        <pt x="416" y="435" on="0"/>
        <pt x="524" y="486" on="0"/>
        <pt x="602" y="580" on="0"/>
        <pt x="646" y="715" on="0"/>
        <pt x="646" y="805" on="1"/>
        <pt x="646" y="895" on="0"/>
        <pt x="602" y="1030" on="0"/>
        <pt x="524" y="1124" on="0"/>
        <pt x="416" y="1175" on="0"/>
        <pt x="352" y="1181" on="1"/>
      </contour>
    </TTGlyph>
    <TTGlyph name="U" xMin="168" yMin="-19" xMax="918" yMax="1593">
      <contour>
        <pt x="168" y="1593" on="1"/>
        <pt x="354" y="1593" on="1"/>
        <pt x="354" y="466" on="1"/>
        <pt x="354" y="383" on="0"/>
        <pt x="379" y="268" on="0"/>
        <pt x="428" y="197" on="0"/>
        <pt x="498" y="165" on="0"/>
        <pt x="543" y="165" on="1"/>
        <pt x="588" y="165" on="0"/>
        <pt x="658" y="197" on="0"/>
        <pt x="707" y="268" on="0"/>
        <pt x="732" y="383" on="0"/>
        <pt x="732" y="466" on="1"/>
        <pt x="732" y="1593" on="1"/>
        <pt x="918" y="1593" on="1"/>
        <pt x="918" y="443" on="1"/>
        <pt x="918" y="322" on="0"/>
        <pt x="867" y="148" on="0"/>
        <pt x="770" y="35" on="0"/>
        <pt x="631" y="-19" on="0"/>
        <pt x="543" y="-19" on="1"/>
        <pt x="455" y="-19" on="0"/>
        <pt x="316" y="35" on="0"/>
        <pt x="219" y="148" on="0"/>
        <pt x="168" y="322" on="0"/>
        <pt x="168" y="443" on="1"/>
      </contour>
    </TTGlyph>
    <TTGlyph name="Uacute" xMin="168" yMin="-19" xMax="918" yMax="2020">
      <contour>
        <pt x="289" y="1825" on="1"/>
        <pt x="732" y="2020" on="1"/>
        <pt x="799" y="1867" on="1"/>
        <pt x="357" y="1671" on="1"/>
      </contour>
      <contour>
        <pt x="168" y="1593" on="1"/>
        <pt x="354" y="1593" on="1"/>
        <pt x="354" y="466" on="1"/>
        <pt x="354" y="383" on="0"/>
        <pt x="379" y="268" on="0"/>
        <pt x="428" y="197" on="0"/>
        <pt x="498" y="165" on="0"/>
        <pt x="543" y="165" on="1"/>
        <pt x="588" y="165" on="0"/>
        <pt x="658" y="197" on="0"/>
        <pt x="707" y="268" on="0"/>
        <pt x="732" y="383" on="0"/>
        <pt x="732" y="466" on="1"/>
        <pt x="732" y="1593" on="1"/>
        <pt x="918" y="1593" on="1"/>
        <pt x="918" y="443" on="1"/>
        <pt x="918" y="322" on="0"/>
        <pt x="867" y="148" on="0"/>
        <pt x="770" y="35" on="0"/>
        <pt x="631" y="-19" on="0"/>
        <pt x="543" y="-19" on="1"/>
        <pt x="455" y="-19" on="0"/>
        <pt x="316" y="35" on="0"/>
        <pt x="219" y="148" on="0"/>
        <pt x="168" y="322" on="0"/>
        <pt x="168" y="443" on="1"/>
      </contour>
    </TTGlyph>
    <TTGlyph name="Ucircumflex" xMin="168" yMin="-19" xMax="918" yMax="1976">
      <contour>
        <pt x="230" y="1813" on="1"/>
        <pt x="546" y="1976" on="1"/>
        <pt x="862" y="1813" on="1"/>
        <pt x="786" y="1675" on="1"/>
        <pt x="546" y="1796" on="1"/>
        <pt x="306" y="1675" on="1"/>
      </contour>
      <contour>
        <pt x="168" y="1593" on="1"/>
        <pt x="354" y="1593" on="1"/>
        <pt x="354" y="466" on="1"/>
        <pt x="354" y="383" on="0"/>
        <pt x="379" y="268" on="0"/>
        <pt x="428" y="197" on="0"/>
        <pt x="498" y="165" on="0"/>
        <pt x="543" y="165" on="1"/>
        <pt x="588" y="165" on="0"/>
        <pt x="658" y="197" on="0"/>
        <pt x="707" y="268" on="0"/>
        <pt x="732" y="383" on="0"/>
        <pt x="732" y="466" on="1"/>
        <pt x="732" y="1593" on="1"/>
        <pt x="918" y="1593" on="1"/>
        <pt x="918" y="443" on="1"/>
        <pt x="918" y="322" on="0"/>
        <pt x="867" y="148" on="0"/>
        <pt x="770" y="35" on="0"/>
        <pt x="631" y="-19" on="0"/>
        <pt x="543" y="-19" on="1"/>
        <pt x="455" y="-19" on="0"/>
        <pt x="316" y="35" on="0"/>
        <pt x="219" y="148" on="0"/>
        <pt x="168" y="322" on="0"/>
        <pt x="168" y="443" on="1"/>
      </contour>
    </TTGlyph>
    <TTGlyph name="Udieresis" xMin="168" yMin="-19" xMax="918" yMax="1947">
      <contour>
        <pt x="733" y="1699" on="1"/>
        <pt x="704" y="1699" on="0"/>
        <pt x="656" y="1719" on="0"/>
        <pt x="622" y="1753" on="0"/>
        <pt x="604" y="1798" on="0"/>
        <pt x="604" y="1823" on="1"/>
        <pt x="604" y="1848" on="0"/>
        <pt x="622" y="1893" on="0"/>
        <pt x="656" y="1927" on="0"/>
        <pt x="704" y="1947" on="0"/>
        <pt x="733" y="1947" on="1"/>
        <pt x="762" y="1947" on="0"/>
        <pt x="810" y="1927" on="0"/>
        <pt x="844" y="1893" on="0"/>
        <pt x="862" y="1848" on="0"/>
        <pt x="862" y="1823" on="1"/>
        <pt x="862" y="1798" on="0"/>
        <pt x="844" y="1753" on="0"/>
        <pt x="810" y="1719" on="0"/>
        <pt x="762" y="1699" on="0"/>
      </contour>
      <contour>
        <pt x="357" y="1699" on="1"/>
        <pt x="328" y="1699" on="0"/>
        <pt x="280" y="1719" on="0"/>
        <pt x="246" y="1753" on="0"/>
        <pt x="228" y="1798" on="0"/>
        <pt x="228" y="1823" on="1"/>
        <pt x="228" y="1848" on="0"/>
        <pt x="246" y="1893" on="0"/>
        <pt x="280" y="1927" on="0"/>
        <pt x="328" y="1947" on="0"/>
        <pt x="357" y="1947" on="1"/>
        <pt x="386" y="1947" on="0"/>
        <pt x="434" y="1927" on="0"/>
        <pt x="468" y="1893" on="0"/>
        <pt x="486" y="1848" on="0"/>
        <pt x="486" y="1823" on="1"/>
        <pt x="486" y="1798" on="0"/>
        <pt x="468" y="1753" on="0"/>
        <pt x="434" y="1719" on="0"/>
        <pt x="386" y="1699" on="0"/>
      </contour>
      <contour>
        <pt x="168" y="1593" on="1"/>
        <pt x="354" y="1593" on="1"/>
        <pt x="354" y="466" on="1"/>
        <pt x="354" y="383" on="0"/>
        <pt x="379" y="268" on="0"/>
        <pt x="428" y="197" on="0"/>
        <pt x="498" y="165" on="0"/>
        <pt x="543" y="165" on="1"/>
        <pt x="588" y="165" on="0"/>
        <pt x="658" y="197" on="0"/>
        <pt x="707" y="268" on="0"/>
        <pt x="732" y="383" on="0"/>
        <pt x="732" y="466" on="1"/>
        <pt x="732" y="1593" on="1"/>
        <pt x="918" y="1593" on="1"/>
        <pt x="918" y="443" on="1"/>
        <pt x="918" y="322" on="0"/>
        <pt x="867" y="148" on="0"/>
        <pt x="770" y="35" on="0"/>
        <pt x="631" y="-19" on="0"/>
        <pt x="543" y="-19" on="1"/>
        <pt x="455" y="-19" on="0"/>
        <pt x="316" y="35" on="0"/>
        <pt x="219" y="148" on="0"/>
        <pt x="168" y="322" on="0"/>
        <pt x="168" y="443" on="1"/>
      </contour>
    </TTGlyph>
    <TTGlyph name="Ugrave" xMin="168" yMin="-19" xMax="918" yMax="2020">
      <contour>
        <pt x="274" y="1867" on="1"/>
        <pt x="341" y="2020" on="1"/>
        <pt x="784" y="1825" on="1"/>
        <pt x="716" y="1671" on="1"/>
      </contour>
      <contour>
        <pt x="168" y="1593" on="1"/>
        <pt x="354" y="1593" on="1"/>
        <pt x="354" y="466" on="1"/>
        <pt x="354" y="383" on="0"/>
        <pt x="379" y="268" on="0"/>
        <pt x="428" y="197" on="0"/>
        <pt x="498" y="165" on="0"/>
        <pt x="543" y="165" on="1"/>
        <pt x="588" y="165" on="0"/>
        <pt x="658" y="197" on="0"/>
        <pt x="707" y="268" on="0"/>
        <pt x="732" y="383" on="0"/>
        <pt x="732" y="466" on="1"/>
        <pt x="732" y="1593" on="1"/>
        <pt x="918" y="1593" on="1"/>
        <pt x="918" y="443" on="1"/>
        <pt x="918" y="322" on="0"/>
        <pt x="867" y="148" on="0"/>
        <pt x="770" y="35" on="0"/>
        <pt x="631" y="-19" on="0"/>
        <pt x="543" y="-19" on="1"/>
        <pt x="455" y="-19" on="0"/>
        <pt x="316" y="35" on="0"/>
        <pt x="219" y="148" on="0"/>
        <pt x="168" y="322" on="0"/>
        <pt x="168" y="443" on="1"/>
      </contour>
    </TTGlyph>
    <TTGlyph name="V" xMin="31" yMin="-49" xMax="957" yMax="1593">
      <contour>
        <pt x="31" y="1593" on="1"/>
        <pt x="231" y="1593" on="1"/>
        <pt x="451" y="741" on="1"/>
        <pt x="493" y="550" on="1"/>
        <pt x="537" y="741" on="1"/>
        <pt x="757" y="1593" on="1"/>
        <pt x="957" y="1593" on="1"/>
        <pt x="494" y="-49" on="1"/>
      </contour>
    </TTGlyph>
    <TTGlyph name="W" xMin="31" yMin="-49" xMax="1219" yMax="1593">
      <contour>
        <pt x="31" y="1593" on="1"/>
        <pt x="231" y="1593" on="1"/>
        <pt x="384" y="796" on="1"/>
        <pt x="423" y="540" on="1"/>
        <pt x="513" y="796" on="1"/>
        <pt x="625" y="1102" on="1"/>
        <pt x="737" y="796" on="1"/>
        <pt x="826" y="540" on="1"/>
        <pt x="866" y="796" on="1"/>
        <pt x="1019" y="1593" on="1"/>
        <pt x="1219" y="1593" on="1"/>
        <pt x="876" y="-49" on="1"/>
        <pt x="704" y="418" on="1"/>
        <pt x="625" y="641" on="1"/>
        <pt x="546" y="418" on="1"/>
        <pt x="374" y="-49" on="1"/>
      </contour>
    </TTGlyph>
    <TTGlyph name="X" xMin="43" yMin="0" xMax="855" yMax="1593">
      <contour>
        <pt x="352" y="815" on="1"/>
        <pt x="64" y="1593" on="1"/>
        <pt x="264" y="1593" on="1"/>
        <pt x="465" y="1051" on="1"/>
        <pt x="634" y="1593" on="1"/>
        <pt x="834" y="1593" on="1"/>
        <pt x="561" y="791" on="1"/>
        <pt x="855" y="0" on="1"/>
        <pt x="655" y="0" on="1"/>
        <pt x="445" y="565" on="1"/>
        <pt x="243" y="0" on="1"/>
        <pt x="43" y="0" on="1"/>
      </contour>
    </TTGlyph>
    <TTGlyph name="Y" xMin="31" yMin="0" xMax="879" yMax="1594">
      <contour>
        <pt x="361" y="543" on="1"/>
        <pt x="31" y="1594" on="1"/>
        <pt x="231" y="1594" on="1"/>
        <pt x="455" y="808" on="1"/>
        <pt x="679" y="1594" on="1"/>
        <pt x="879" y="1594" on="1"/>
        <pt x="547" y="536" on="1"/>
        <pt x="547" y="0" on="1"/>
        <pt x="361" y="0" on="1"/>
      </contour>
    </TTGlyph>
    <TTGlyph name="Yacute" xMin="25" yMin="0" xMax="873" yMax="2020">
      <contour>
        <pt x="211" y="1825" on="1"/>
        <pt x="654" y="2020" on="1"/>
        <pt x="721" y="1867" on="1"/>
        <pt x="279" y="1671" on="1"/>
      </contour>
      <contour>
        <pt x="355" y="543" on="1"/>
        <pt x="25" y="1594" on="1"/>
        <pt x="225" y="1594" on="1"/>
        <pt x="449" y="808" on="1"/>
        <pt x="673" y="1594" on="1"/>
        <pt x="873" y="1594" on="1"/>
        <pt x="541" y="536" on="1"/>
        <pt x="541" y="0" on="1"/>
        <pt x="355" y="0" on="1"/>
      </contour>
    </TTGlyph>
    <TTGlyph name="Z" xMin="111" yMin="0" xMax="808" yMax="1593">
      <contour>
        <pt x="560" y="1417" on="1"/>
        <pt x="146" y="1417" on="1"/>
        <pt x="146" y="1593" on="1"/>
        <pt x="808" y="1593" on="1"/>
        <pt x="359" y="176" on="1"/>
        <pt x="808" y="176" on="1"/>
        <pt x="808" y="0" on="1"/>
        <pt x="111" y="0" on="1"/>
      </contour>
    </TTGlyph>
    <TTGlyph name="a" xMin="104" yMin="-19" xMax="732" yMax="1081">
      <contour>
        <pt x="104" y="332" on="1"/>
        <pt x="104" y="494" on="0"/>
        <pt x="333" y="680" on="0"/>
        <pt x="556" y="691" on="1"/>
        <pt x="556" y="712" on="1"/>
        <pt x="556" y="806" on="0"/>
        <pt x="467" y="912" on="0"/>
        <pt x="390" y="912" on="1"/>
        <pt x="350" y="912" on="0"/>
        <pt x="265" y="883" on="0"/>
        <pt x="223" y="859" on="1"/>
        <pt x="155" y="1019" on="1"/>
        <pt x="218" y="1051" on="0"/>
        <pt x="356" y="1081" on="0"/>
        <pt x="412" y="1081" on="1"/>
        <pt x="484" y="1081" on="0"/>
        <pt x="602" y="1031" on="0"/>
        <pt x="686" y="938" on="0"/>
        <pt x="732" y="804" on="0"/>
        <pt x="732" y="719" on="1"/>
        <pt x="732" y="-19" on="1"/>
        <pt x="601" y="45" on="1"/>
        <pt x="563" y="15" on="0"/>
        <pt x="470" y="-19" on="0"/>
        <pt x="416" y="-19" on="1"/>
        <pt x="348" y="-19" on="0"/>
        <pt x="233" y="36" on="0"/>
        <pt x="150" y="130" on="0"/>
        <pt x="104" y="258" on="0"/>
      </contour>
      <contour>
        <pt x="285" y="329" on="1"/>
        <pt x="285" y="292" on="0"/>
        <pt x="307" y="229" on="0"/>
        <pt x="347" y="182" on="0"/>
        <pt x="403" y="156" on="0"/>
        <pt x="437" y="156" on="1"/>
        <pt x="472" y="156" on="0"/>
        <pt x="536" y="182" on="0"/>
        <pt x="556" y="202" on="1"/>
        <pt x="556" y="531" on="1"/>
        <pt x="492" y="532" on="0"/>
        <pt x="392" y="505" on="0"/>
        <pt x="322" y="452" on="0"/>
        <pt x="285" y="377" on="0"/>
      </contour>
    </TTGlyph>
    <TTGlyph name="aacute" xMin="104" yMin="-19" xMax="732" yMax="1631">
      <contour>
        <pt x="141" y="1329" on="1"/>
        <pt x="520" y="1631" on="1"/>
        <pt x="619" y="1508" on="1"/>
        <pt x="240" y="1206" on="1"/>
      </contour>
      <contour>
        <pt x="104" y="332" on="1"/>
        <pt x="104" y="494" on="0"/>
        <pt x="333" y="680" on="0"/>
        <pt x="556" y="691" on="1"/>
        <pt x="556" y="712" on="1"/>
        <pt x="556" y="806" on="0"/>
        <pt x="467" y="912" on="0"/>
        <pt x="390" y="912" on="1"/>
        <pt x="350" y="912" on="0"/>
        <pt x="265" y="883" on="0"/>
        <pt x="223" y="859" on="1"/>
        <pt x="155" y="1019" on="1"/>
        <pt x="218" y="1051" on="0"/>
        <pt x="356" y="1081" on="0"/>
        <pt x="412" y="1081" on="1"/>
        <pt x="484" y="1081" on="0"/>
        <pt x="602" y="1031" on="0"/>
        <pt x="686" y="938" on="0"/>
        <pt x="732" y="804" on="0"/>
        <pt x="732" y="719" on="1"/>
        <pt x="732" y="-19" on="1"/>
        <pt x="601" y="45" on="1"/>
        <pt x="563" y="15" on="0"/>
        <pt x="470" y="-19" on="0"/>
        <pt x="416" y="-19" on="1"/>
        <pt x="348" y="-19" on="0"/>
        <pt x="233" y="36" on="0"/>
        <pt x="150" y="130" on="0"/>
        <pt x="104" y="258" on="0"/>
      </contour>
      <contour>
        <pt x="285" y="329" on="1"/>
        <pt x="285" y="292" on="0"/>
        <pt x="307" y="229" on="0"/>
        <pt x="347" y="182" on="0"/>
        <pt x="403" y="156" on="0"/>
        <pt x="437" y="156" on="1"/>
        <pt x="472" y="156" on="0"/>
        <pt x="536" y="182" on="0"/>
        <pt x="556" y="202" on="1"/>
        <pt x="556" y="531" on="1"/>
        <pt x="492" y="532" on="0"/>
        <pt x="392" y="505" on="0"/>
        <pt x="322" y="452" on="0"/>
        <pt x="285" y="377" on="0"/>
      </contour>
    </TTGlyph>
    <TTGlyph name="acircumflex" xMin="104" yMin="-19" xMax="732" yMax="1612">
      <contour>
        <pt x="117" y="1374" on="1"/>
        <pt x="410" y="1612" on="1"/>
        <pt x="703" y="1374" on="1"/>
        <pt x="611" y="1266" on="1"/>
        <pt x="410" y="1427" on="1"/>
        <pt x="209" y="1266" on="1"/>
      </contour>
      <contour>
        <pt x="104" y="332" on="1"/>
        <pt x="104" y="494" on="0"/>
        <pt x="333" y="680" on="0"/>
        <pt x="556" y="691" on="1"/>
        <pt x="556" y="712" on="1"/>
        <pt x="556" y="806" on="0"/>
        <pt x="467" y="912" on="0"/>
        <pt x="390" y="912" on="1"/>
        <pt x="350" y="912" on="0"/>
        <pt x="265" y="883" on="0"/>
        <pt x="223" y="859" on="1"/>
        <pt x="155" y="1019" on="1"/>
        <pt x="218" y="1051" on="0"/>
        <pt x="356" y="1081" on="0"/>
        <pt x="412" y="1081" on="1"/>
        <pt x="484" y="1081" on="0"/>
        <pt x="602" y="1031" on="0"/>
        <pt x="686" y="938" on="0"/>
        <pt x="732" y="804" on="0"/>
        <pt x="732" y="719" on="1"/>
        <pt x="732" y="-19" on="1"/>
        <pt x="601" y="45" on="1"/>
        <pt x="563" y="15" on="0"/>
        <pt x="470" y="-19" on="0"/>
        <pt x="416" y="-19" on="1"/>
        <pt x="348" y="-19" on="0"/>
        <pt x="233" y="36" on="0"/>
        <pt x="150" y="130" on="0"/>
        <pt x="104" y="258" on="0"/>
      </contour>
      <contour>
        <pt x="285" y="329" on="1"/>
        <pt x="285" y="292" on="0"/>
        <pt x="307" y="229" on="0"/>
        <pt x="347" y="182" on="0"/>
        <pt x="403" y="156" on="0"/>
        <pt x="437" y="156" on="1"/>
        <pt x="472" y="156" on="0"/>
        <pt x="536" y="182" on="0"/>
        <pt x="556" y="202" on="1"/>
        <pt x="556" y="531" on="1"/>
        <pt x="492" y="532" on="0"/>
        <pt x="392" y="505" on="0"/>
        <pt x="322" y="452" on="0"/>
        <pt x="285" y="377" on="0"/>
      </contour>
    </TTGlyph>
    <TTGlyph name="acute" xMin="94" yMin="1206" xMax="572" yMax="1631">
      <contour>
        <pt x="94" y="1329" on="1"/>
        <pt x="473" y="1631" on="1"/>
        <pt x="572" y="1508" on="1"/>
        <pt x="193" y="1206" on="1"/>
      </contour>
    </TTGlyph>
    <TTGlyph name="acute.cap" xMin="96" yMin="1671" xMax="606" yMax="2020">
      <contour>
        <pt x="96" y="1825" on="1"/>
        <pt x="539" y="2020" on="1"/>
        <pt x="606" y="1867" on="1"/>
        <pt x="164" y="1671" on="1"/>
      </contour>
    </TTGlyph>
    <TTGlyph name="adieresis" xMin="99" yMin="-19" xMax="732" yMax="1521">
      <contour>
        <pt x="594" y="1273" on="1"/>
        <pt x="565" y="1273" on="0"/>
        <pt x="517" y="1293" on="0"/>
        <pt x="483" y="1327" on="0"/>
        <pt x="465" y="1372" on="0"/>
        <pt x="465" y="1397" on="1"/>
        <pt x="465" y="1422" on="0"/>
        <pt x="483" y="1467" on="0"/>
        <pt x="517" y="1501" on="0"/>
        <pt x="565" y="1521" on="0"/>
        <pt x="594" y="1521" on="1"/>
        <pt x="623" y="1521" on="0"/>
        <pt x="671" y="1501" on="0"/>
        <pt x="705" y="1467" on="0"/>
        <pt x="723" y="1422" on="0"/>
        <pt x="723" y="1397" on="1"/>
        <pt x="723" y="1372" on="0"/>
        <pt x="705" y="1327" on="0"/>
        <pt x="671" y="1293" on="0"/>
        <pt x="623" y="1273" on="0"/>
      </contour>
      <contour>
        <pt x="228" y="1273" on="1"/>
        <pt x="199" y="1273" on="0"/>
        <pt x="151" y="1293" on="0"/>
        <pt x="117" y="1327" on="0"/>
        <pt x="99" y="1372" on="0"/>
        <pt x="99" y="1397" on="1"/>
        <pt x="99" y="1422" on="0"/>
        <pt x="117" y="1467" on="0"/>
        <pt x="151" y="1501" on="0"/>
        <pt x="199" y="1521" on="0"/>
        <pt x="228" y="1521" on="1"/>
        <pt x="257" y="1521" on="0"/>
        <pt x="305" y="1501" on="0"/>
        <pt x="339" y="1467" on="0"/>
        <pt x="357" y="1422" on="0"/>
        <pt x="357" y="1397" on="1"/>
        <pt x="357" y="1372" on="0"/>
        <pt x="339" y="1327" on="0"/>
        <pt x="305" y="1293" on="0"/>
        <pt x="257" y="1273" on="0"/>
      </contour>
      <contour>
        <pt x="104" y="332" on="1"/>
        <pt x="104" y="494" on="0"/>
        <pt x="333" y="680" on="0"/>
        <pt x="556" y="691" on="1"/>
        <pt x="556" y="712" on="1"/>
        <pt x="556" y="806" on="0"/>
        <pt x="467" y="912" on="0"/>
        <pt x="390" y="912" on="1"/>
        <pt x="350" y="912" on="0"/>
        <pt x="265" y="883" on="0"/>
        <pt x="223" y="859" on="1"/>
        <pt x="155" y="1019" on="1"/>
        <pt x="218" y="1051" on="0"/>
        <pt x="356" y="1081" on="0"/>
        <pt x="412" y="1081" on="1"/>
        <pt x="484" y="1081" on="0"/>
        <pt x="602" y="1031" on="0"/>
        <pt x="686" y="938" on="0"/>
        <pt x="732" y="804" on="0"/>
        <pt x="732" y="719" on="1"/>
        <pt x="732" y="-19" on="1"/>
        <pt x="601" y="45" on="1"/>
        <pt x="563" y="15" on="0"/>
        <pt x="470" y="-19" on="0"/>
        <pt x="416" y="-19" on="1"/>
        <pt x="348" y="-19" on="0"/>
        <pt x="233" y="36" on="0"/>
        <pt x="150" y="130" on="0"/>
        <pt x="104" y="258" on="0"/>
      </contour>
      <contour>
        <pt x="285" y="329" on="1"/>
        <pt x="285" y="292" on="0"/>
        <pt x="307" y="229" on="0"/>
        <pt x="347" y="182" on="0"/>
        <pt x="403" y="156" on="0"/>
        <pt x="437" y="156" on="1"/>
        <pt x="472" y="156" on="0"/>
        <pt x="536" y="182" on="0"/>
        <pt x="556" y="202" on="1"/>
        <pt x="556" y="531" on="1"/>
        <pt x="492" y="532" on="0"/>
        <pt x="392" y="505" on="0"/>
        <pt x="322" y="452" on="0"/>
        <pt x="285" y="377" on="0"/>
      </contour>
    </TTGlyph>
    <TTGlyph name="ae" xMin="104" yMin="-19" xMax="1229" yMax="1081">
      <contour>
        <pt x="104" y="332" on="1"/>
        <pt x="104" y="494" on="0"/>
        <pt x="333" y="680" on="0"/>
        <pt x="556" y="691" on="1"/>
        <pt x="556" y="712" on="1"/>
        <pt x="556" y="806" on="0"/>
        <pt x="467" y="912" on="0"/>
        <pt x="390" y="912" on="1"/>
        <pt x="350" y="912" on="0"/>
        <pt x="265" y="883" on="0"/>
        <pt x="223" y="859" on="1"/>
        <pt x="155" y="1019" on="1"/>
        <pt x="218" y="1051" on="0"/>
        <pt x="356" y="1081" on="0"/>
        <pt x="412" y="1081" on="1"/>
        <pt x="498" y="1081" on="0"/>
        <pt x="630" y="1012" on="0"/>
        <pt x="672" y="948" on="1"/>
        <pt x="723" y="1016" on="0"/>
        <pt x="854" y="1081" on="0"/>
        <pt x="928" y="1081" on="1"/>
        <pt x="1014" y="1081" on="0"/>
        <pt x="1144" y="992" on="0"/>
        <pt x="1220" y="828" on="0"/>
        <pt x="1238" y="597" on="0"/>
        <pt x="1213" y="455" on="1"/>
        <pt x="735" y="456" on="1"/>
        <pt x="742" y="370" on="0"/>
        <pt x="790" y="253" on="0"/>
        <pt x="856" y="181" on="0"/>
        <pt x="936" y="150" on="0"/>
        <pt x="976" y="150" on="1"/>
        <pt x="995" y="150" on="0"/>
        <pt x="1039" y="160" on="0"/>
        <pt x="1082" y="177" on="0"/>
        <pt x="1119" y="196" on="0"/>
        <pt x="1130" y="205" on="1"/>
        <pt x="1198" y="53" on="1"/>
        <pt x="1175" y="38" on="0"/>
        <pt x="1115" y="12" on="0"/>
        <pt x="1049" y="-8" on="0"/>
        <pt x="983" y="-19" on="0"/>
        <pt x="955" y="-19" on="1"/>
        <pt x="874" y="-19" on="0"/>
        <pt x="738" y="43" on="0"/>
        <pt x="687" y="103" on="1"/>
        <pt x="636" y="50" on="0"/>
        <pt x="501" y="-19" on="0"/>
        <pt x="416" y="-19" on="1"/>
        <pt x="348" y="-19" on="0"/>
        <pt x="233" y="36" on="0"/>
        <pt x="150" y="130" on="0"/>
        <pt x="104" y="258" on="0"/>
      </contour>
      <contour>
        <pt x="1049" y="623" on="1"/>
        <pt x="1053" y="708" on="0"/>
        <pt x="1038" y="818" on="0"/>
        <pt x="1002" y="881" on="0"/>
        <pt x="949" y="906" on="0"/>
        <pt x="916" y="906" on="1"/>
        <pt x="884" y="906" on="0"/>
        <pt x="824" y="870" on="0"/>
        <pt x="776" y="800" on="0"/>
        <pt x="743" y="693" on="0"/>
        <pt x="736" y="623" on="1"/>
      </contour>
      <contour>
        <pt x="285" y="329" on="1"/>
        <pt x="285" y="287" on="0"/>
        <pt x="309" y="223" on="0"/>
        <pt x="348" y="179" on="0"/>
        <pt x="399" y="156" on="0"/>
        <pt x="427" y="156" on="1"/>
        <pt x="513" y="156" on="0"/>
        <pt x="556" y="211" on="1"/>
        <pt x="556" y="531" on="1"/>
        <pt x="428" y="532" on="0"/>
        <pt x="285" y="423" on="0"/>
      </contour>
    </TTGlyph>
    <TTGlyph name="agrave" xMin="104" yMin="-19" xMax="732" yMax="1631">
      <contour>
        <pt x="173" y="1508" on="1"/>
        <pt x="272" y="1631" on="1"/>
        <pt x="651" y="1329" on="1"/>
        <pt x="552" y="1206" on="1"/>
      </contour>
      <contour>
        <pt x="104" y="332" on="1"/>
        <pt x="104" y="494" on="0"/>
        <pt x="333" y="680" on="0"/>
        <pt x="556" y="691" on="1"/>
        <pt x="556" y="712" on="1"/>
        <pt x="556" y="806" on="0"/>
        <pt x="467" y="912" on="0"/>
        <pt x="390" y="912" on="1"/>
        <pt x="350" y="912" on="0"/>
        <pt x="265" y="883" on="0"/>
        <pt x="223" y="859" on="1"/>
        <pt x="155" y="1019" on="1"/>
        <pt x="218" y="1051" on="0"/>
        <pt x="356" y="1081" on="0"/>
        <pt x="412" y="1081" on="1"/>
        <pt x="484" y="1081" on="0"/>
        <pt x="602" y="1031" on="0"/>
        <pt x="686" y="938" on="0"/>
        <pt x="732" y="804" on="0"/>
        <pt x="732" y="719" on="1"/>
        <pt x="732" y="-19" on="1"/>
        <pt x="601" y="45" on="1"/>
        <pt x="563" y="15" on="0"/>
        <pt x="470" y="-19" on="0"/>
        <pt x="416" y="-19" on="1"/>
        <pt x="348" y="-19" on="0"/>
        <pt x="233" y="36" on="0"/>
        <pt x="150" y="130" on="0"/>
        <pt x="104" y="258" on="0"/>
      </contour>
      <contour>
        <pt x="285" y="329" on="1"/>
        <pt x="285" y="292" on="0"/>
        <pt x="307" y="229" on="0"/>
        <pt x="347" y="182" on="0"/>
        <pt x="403" y="156" on="0"/>
        <pt x="437" y="156" on="1"/>
        <pt x="472" y="156" on="0"/>
        <pt x="536" y="182" on="0"/>
        <pt x="556" y="202" on="1"/>
        <pt x="556" y="531" on="1"/>
        <pt x="492" y="532" on="0"/>
        <pt x="392" y="505" on="0"/>
        <pt x="322" y="452" on="0"/>
        <pt x="285" y="377" on="0"/>
      </contour>
    </TTGlyph>
    <TTGlyph name="ampersand" xMin="160" yMin="-18" xMax="1132" yMax="1612">
      <contour>
        <pt x="160" y="395" on="1"/>
        <pt x="160" y="502" on="0"/>
        <pt x="246" y="729" on="0"/>
        <pt x="335" y="846" on="1"/>
        <pt x="271" y="965" on="0"/>
        <pt x="211" y="1164" on="0"/>
        <pt x="211" y="1252" on="1"/>
        <pt x="211" y="1330" on="0"/>
        <pt x="258" y="1462" on="0"/>
        <pt x="345" y="1558" on="0"/>
        <pt x="471" y="1612" on="0"/>
        <pt x="551" y="1612" on="1"/>
        <pt x="632" y="1612" on="0"/>
        <pt x="764" y="1558" on="0"/>
        <pt x="820" y="1510" on="1"/>
        <pt x="718" y="1378" on="1"/>
        <pt x="681" y="1407" on="0"/>
        <pt x="601" y="1437" on="0"/>
        <pt x="558" y="1437" on="1"/>
        <pt x="483" y="1437" on="0"/>
        <pt x="393" y="1344" on="0"/>
        <pt x="393" y="1250" on="1"/>
        <pt x="393" y="1212" on="0"/>
        <pt x="413" y="1113" on="0"/>
        <pt x="465" y="981" on="0"/>
        <pt x="558" y="812" on="0"/>
        <pt x="631" y="706" on="1"/>
        <pt x="796" y="465" on="1"/>
        <pt x="797" y="480" on="0"/>
        <pt x="798" y="512" on="0"/>
        <pt x="798" y="529" on="1"/>
        <pt x="798" y="728" on="1"/>
        <pt x="728" y="728" on="1"/>
        <pt x="728" y="885" on="1"/>
        <pt x="1132" y="885" on="1"/>
        <pt x="1132" y="728" on="1"/>
        <pt x="971" y="728" on="1"/>
        <pt x="972" y="529" on="1"/>
        <pt x="972" y="378" on="0"/>
        <pt x="933" y="266" on="1"/>
        <pt x="1056" y="87" on="1"/>
        <pt x="924" y="-18" on="1"/>
        <pt x="839" y="103" on="1"/>
        <pt x="785" y="44" on="0"/>
        <pt x="642" y="-18" on="0"/>
        <pt x="554" y="-18" on="1"/>
        <pt x="463" y="-18" on="0"/>
        <pt x="317" y="46" on="0"/>
        <pt x="215" y="158" on="0"/>
        <pt x="160" y="308" on="0"/>
      </contour>
      <contour>
        <pt x="342" y="407" on="1"/>
        <pt x="342" y="342" on="0"/>
        <pt x="376" y="248" on="0"/>
        <pt x="435" y="186" on="0"/>
        <pt x="515" y="157" on="0"/>
        <pt x="561" y="157" on="1"/>
        <pt x="618" y="157" on="0"/>
        <pt x="706" y="201" on="0"/>
        <pt x="737" y="249" on="1"/>
        <pt x="479" y="617" on="1"/>
        <pt x="466" y="634" on="0"/>
        <pt x="443" y="669" on="0"/>
        <pt x="432" y="686" on="1"/>
        <pt x="377" y="605" on="0"/>
        <pt x="342" y="462" on="0"/>
      </contour>
    </TTGlyph>
    <TTGlyph name="aring" xMin="104" yMin="-19" xMax="732" yMax="1717">
      <contour>
        <pt x="422" y="1253" on="1"/>
        <pt x="377" y="1253" on="0"/>
        <pt x="294" y="1287" on="0"/>
        <pt x="231" y="1348" on="0"/>
        <pt x="194" y="1433" on="0"/>
        <pt x="194" y="1485" on="1"/>
        <pt x="194" y="1537" on="0"/>
        <pt x="231" y="1622" on="0"/>
        <pt x="294" y="1683" on="0"/>
        <pt x="377" y="1717" on="0"/>
        <pt x="422" y="1717" on="1"/>
        <pt x="467" y="1717" on="0"/>
        <pt x="549" y="1683" on="0"/>
        <pt x="612" y="1622" on="0"/>
        <pt x="650" y="1537" on="0"/>
        <pt x="650" y="1485" on="1"/>
        <pt x="650" y="1433" on="0"/>
        <pt x="612" y="1348" on="0"/>
        <pt x="549" y="1287" on="0"/>
        <pt x="467" y="1253" on="0"/>
      </contour>
      <contour>
        <pt x="422" y="1380" on="1"/>
        <pt x="467" y="1380" on="0"/>
        <pt x="521" y="1433" on="0"/>
        <pt x="521" y="1485" on="1"/>
        <pt x="521" y="1537" on="0"/>
        <pt x="467" y="1590" on="0"/>
        <pt x="422" y="1590" on="1"/>
        <pt x="377" y="1590" on="0"/>
        <pt x="323" y="1537" on="0"/>
        <pt x="323" y="1485" on="1"/>
        <pt x="323" y="1433" on="0"/>
        <pt x="377" y="1380" on="0"/>
      </contour>
      <contour>
        <pt x="104" y="332" on="1"/>
        <pt x="104" y="494" on="0"/>
        <pt x="333" y="680" on="0"/>
        <pt x="556" y="691" on="1"/>
        <pt x="556" y="712" on="1"/>
        <pt x="556" y="806" on="0"/>
        <pt x="467" y="912" on="0"/>
        <pt x="390" y="912" on="1"/>
        <pt x="350" y="912" on="0"/>
        <pt x="265" y="883" on="0"/>
        <pt x="223" y="859" on="1"/>
        <pt x="155" y="1019" on="1"/>
        <pt x="218" y="1051" on="0"/>
        <pt x="356" y="1081" on="0"/>
        <pt x="412" y="1081" on="1"/>
        <pt x="484" y="1081" on="0"/>
        <pt x="602" y="1031" on="0"/>
        <pt x="686" y="938" on="0"/>
        <pt x="732" y="804" on="0"/>
        <pt x="732" y="719" on="1"/>
        <pt x="732" y="-19" on="1"/>
        <pt x="601" y="45" on="1"/>
        <pt x="563" y="15" on="0"/>
        <pt x="470" y="-19" on="0"/>
        <pt x="416" y="-19" on="1"/>
        <pt x="348" y="-19" on="0"/>
        <pt x="233" y="36" on="0"/>
        <pt x="150" y="130" on="0"/>
        <pt x="104" y="258" on="0"/>
      </contour>
      <contour>
        <pt x="285" y="329" on="1"/>
        <pt x="285" y="292" on="0"/>
        <pt x="307" y="229" on="0"/>
        <pt x="347" y="182" on="0"/>
        <pt x="403" y="156" on="0"/>
        <pt x="437" y="156" on="1"/>
        <pt x="472" y="156" on="0"/>
        <pt x="536" y="182" on="0"/>
        <pt x="556" y="202" on="1"/>
        <pt x="556" y="531" on="1"/>
        <pt x="492" y="532" on="0"/>
        <pt x="392" y="505" on="0"/>
        <pt x="322" y="452" on="0"/>
        <pt x="285" y="377" on="0"/>
      </contour>
    </TTGlyph>
    <TTGlyph name="asciicircum" xMin="125" yMin="516" xMax="1061" yMax="1380">
      <contour>
        <pt x="125" y="594" on="1"/>
        <pt x="593" y="1380" on="1"/>
        <pt x="1061" y="594" on="1"/>
        <pt x="930" y="516" on="1"/>
        <pt x="593" y="1092" on="1"/>
        <pt x="256" y="516" on="1"/>
      </contour>
    </TTGlyph>
    <TTGlyph name="asciitilde" xMin="139" yMin="680" xMax="969" yMax="975">
      <contour>
        <pt x="139" y="810" on="1"/>
        <pt x="160" y="840" on="0"/>
        <pt x="222" y="899" on="0"/>
        <pt x="295" y="946" on="0"/>
        <pt x="376" y="975" on="0"/>
        <pt x="415" y="975" on="1"/>
        <pt x="453" y="975" on="0"/>
        <pt x="526" y="942" on="0"/>
        <pt x="596" y="902" on="0"/>
        <pt x="664" y="869" on="0"/>
        <pt x="697" y="869" on="1"/>
        <pt x="733" y="869" on="0"/>
        <pt x="828" y="917" on="0"/>
        <pt x="873" y="965" on="1"/>
        <pt x="969" y="845" on="1"/>
        <pt x="949" y="815" on="0"/>
        <pt x="889" y="756" on="0"/>
        <pt x="818" y="709" on="0"/>
        <pt x="741" y="680" on="0"/>
        <pt x="704" y="680" on="1"/>
        <pt x="663" y="680" on="0"/>
        <pt x="587" y="713" on="0"/>
        <pt x="515" y="753" on="0"/>
        <pt x="445" y="786" on="0"/>
        <pt x="411" y="786" on="1"/>
        <pt x="375" y="786" on="0"/>
        <pt x="280" y="738" on="0"/>
        <pt x="235" y="690" on="1"/>
      </contour>
    </TTGlyph>
    <TTGlyph name="asterisk" xMin="150" yMin="883" xMax="847" yMax="1619">
      <contour>
        <pt x="412" y="1179" on="1"/>
        <pt x="150" y="1173" on="1"/>
        <pt x="150" y="1331" on="1"/>
        <pt x="410" y="1324" on="1"/>
        <pt x="324" y="1570" on="1"/>
        <pt x="475" y="1619" on="1"/>
        <pt x="547" y="1370" on="1"/>
        <pt x="752" y="1527" on="1"/>
        <pt x="845" y="1399" on="1"/>
        <pt x="632" y="1253" on="1"/>
        <pt x="847" y="1107" on="1"/>
        <pt x="754" y="979" on="1"/>
        <pt x="550" y="1134" on="1"/>
        <pt x="475" y="883" on="1"/>
        <pt x="325" y="932" on="1"/>
      </contour>
    </TTGlyph>
    <TTGlyph name="at" xMin="153" yMin="-19" xMax="1376" yMax="1146">
      <contour>
        <pt x="153" y="438" on="1"/>
        <pt x="153" y="598" on="0"/>
        <pt x="249" y="859" on="0"/>
        <pt x="418" y="1045" on="0"/>
        <pt x="648" y="1146" on="0"/>
        <pt x="780" y="1146" on="1"/>
        <pt x="900" y="1146" on="0"/>
        <pt x="1117" y="1062" on="0"/>
        <pt x="1280" y="908" on="0"/>
        <pt x="1376" y="688" on="0"/>
        <pt x="1376" y="553" on="1"/>
        <pt x="1376" y="431" on="0"/>
        <pt x="1299" y="222" on="0"/>
        <pt x="1167" y="68" on="0"/>
        <pt x="993" y="-19" on="0"/>
        <pt x="896" y="-19" on="1"/>
        <pt x="790" y="-19" on="0"/>
        <pt x="626" y="47" on="0"/>
        <pt x="515" y="160" on="0"/>
        <pt x="458" y="308" on="0"/>
        <pt x="458" y="391" on="1"/>
        <pt x="458" y="482" on="0"/>
        <pt x="528" y="637" on="0"/>
        <pt x="667" y="751" on="0"/>
        <pt x="872" y="815" on="0"/>
        <pt x="1007" y="815" on="1"/>
        <pt x="1007" y="157" on="1"/>
        <pt x="1053" y="181" on="0"/>
        <pt x="1123" y="262" on="0"/>
        <pt x="1170" y="364" on="0"/>
        <pt x="1194" y="480" on="0"/>
        <pt x="1194" y="540" on="1"/>
        <pt x="1194" y="637" on="0"/>
        <pt x="1134" y="796" on="0"/>
        <pt x="1027" y="909" on="0"/>
        <pt x="879" y="971" on="0"/>
        <pt x="792" y="971" on="1"/>
        <pt x="693" y="971" on="0"/>
        <pt x="526" y="893" on="0"/>
        <pt x="404" y="752" on="0"/>
        <pt x="335" y="556" on="0"/>
        <pt x="335" y="438" on="1"/>
        <pt x="334" y="0" on="1"/>
        <pt x="154" y="0" on="1"/>
      </contour>
      <contour>
        <pt x="640" y="397" on="1"/>
        <pt x="640" y="297" on="0"/>
        <pt x="737" y="170" on="0"/>
        <pt x="833" y="150" on="1"/>
        <pt x="833" y="636" on="1"/>
        <pt x="742" y="617" on="0"/>
        <pt x="640" y="500" on="0"/>
      </contour>
    </TTGlyph>
    <TTGlyph name="atilde" xMin="95" yMin="-19" xMax="751" yMax="1504">
      <contour>
        <pt x="95" y="1359" on="1"/>
        <pt x="110" y="1385" on="0"/>
        <pt x="155" y="1437" on="0"/>
        <pt x="209" y="1478" on="0"/>
        <pt x="268" y="1504" on="0"/>
        <pt x="297" y="1504" on="1"/>
        <pt x="336" y="1504" on="0"/>
        <pt x="399" y="1480" on="0"/>
        <pt x="456" y="1452" on="0"/>
        <pt x="508" y="1428" on="0"/>
        <pt x="536" y="1428" on="1"/>
        <pt x="565" y="1428" on="0"/>
        <pt x="640" y="1462" on="0"/>
        <pt x="675" y="1504" on="1"/>
        <pt x="751" y="1407" on="1"/>
        <pt x="736" y="1381" on="0"/>
        <pt x="690" y="1329" on="0"/>
        <pt x="636" y="1288" on="0"/>
        <pt x="577" y="1262" on="0"/>
        <pt x="549" y="1262" on="1"/>
        <pt x="510" y="1262" on="0"/>
        <pt x="447" y="1286" on="0"/>
        <pt x="390" y="1314" on="0"/>
        <pt x="338" y="1338" on="0"/>
        <pt x="310" y="1338" on="1"/>
        <pt x="281" y="1338" on="0"/>
        <pt x="206" y="1304" on="0"/>
        <pt x="171" y="1262" on="1"/>
      </contour>
      <contour>
        <pt x="104" y="332" on="1"/>
        <pt x="104" y="494" on="0"/>
        <pt x="333" y="680" on="0"/>
        <pt x="556" y="691" on="1"/>
        <pt x="556" y="712" on="1"/>
        <pt x="556" y="806" on="0"/>
        <pt x="467" y="912" on="0"/>
        <pt x="390" y="912" on="1"/>
        <pt x="350" y="912" on="0"/>
        <pt x="265" y="883" on="0"/>
        <pt x="223" y="859" on="1"/>
        <pt x="155" y="1019" on="1"/>
        <pt x="218" y="1051" on="0"/>
        <pt x="356" y="1081" on="0"/>
        <pt x="412" y="1081" on="1"/>
        <pt x="484" y="1081" on="0"/>
        <pt x="602" y="1031" on="0"/>
        <pt x="686" y="938" on="0"/>
        <pt x="732" y="804" on="0"/>
        <pt x="732" y="719" on="1"/>
        <pt x="732" y="-19" on="1"/>
        <pt x="601" y="45" on="1"/>
        <pt x="563" y="15" on="0"/>
        <pt x="470" y="-19" on="0"/>
        <pt x="416" y="-19" on="1"/>
        <pt x="348" y="-19" on="0"/>
        <pt x="233" y="36" on="0"/>
        <pt x="150" y="130" on="0"/>
        <pt x="104" y="258" on="0"/>
      </contour>
      <contour>
        <pt x="285" y="329" on="1"/>
        <pt x="285" y="292" on="0"/>
        <pt x="307" y="229" on="0"/>
        <pt x="347" y="182" on="0"/>
        <pt x="403" y="156" on="0"/>
        <pt x="437" y="156" on="1"/>
        <pt x="472" y="156" on="0"/>
        <pt x="536" y="182" on="0"/>
        <pt x="556" y="202" on="1"/>
        <pt x="556" y="531" on="1"/>
        <pt x="492" y="532" on="0"/>
        <pt x="392" y="505" on="0"/>
        <pt x="322" y="452" on="0"/>
        <pt x="285" y="377" on="0"/>
      </contour>
    </TTGlyph>
    <TTGlyph name="b" xMin="145" yMin="-19" xMax="847" yMax="1593">
      <contour>
        <pt x="145" y="1593" on="1"/>
        <pt x="323" y="1593" on="1"/>
        <pt x="323" y="1042" on="1"/>
        <pt x="355" y="1061" on="0"/>
        <pt x="427" y="1081" on="0"/>
        <pt x="466" y="1081" on="1"/>
        <pt x="543" y="1081" on="0"/>
        <pt x="682" y="1017" on="0"/>
        <pt x="786" y="883" on="0"/>
        <pt x="847" y="675" on="0"/>
        <pt x="847" y="531" on="1"/>
        <pt x="847" y="387" on="0"/>
        <pt x="786" y="179" on="0"/>
        <pt x="682" y="45" on="0"/>
        <pt x="543" y="-19" on="0"/>
        <pt x="466" y="-19" on="1"/>
        <pt x="345" y="-19" on="0"/>
        <pt x="262" y="67" on="1"/>
        <pt x="145" y="-17" on="1"/>
      </contour>
      <contour>
        <pt x="323" y="199" on="1"/>
        <pt x="349" y="175" on="0"/>
        <pt x="416" y="149" on="0"/>
        <pt x="454" y="149" on="1"/>
        <pt x="495" y="149" on="0"/>
        <pt x="571" y="185" on="0"/>
        <pt x="630" y="272" on="0"/>
        <pt x="666" y="419" on="0"/>
        <pt x="666" y="531" on="1"/>
        <pt x="666" y="643" on="0"/>
        <pt x="630" y="790" on="0"/>
        <pt x="571" y="877" on="0"/>
        <pt x="495" y="913" on="0"/>
        <pt x="454" y="913" on="1"/>
        <pt x="377" y="913" on="0"/>
        <pt x="323" y="862" on="1"/>
      </contour>
    </TTGlyph>
    <TTGlyph name="backslash" xMin="76" yMin="-19" xMax="770" yMax="1612">
      <contour>
        <pt x="76" y="1559" on="1"/>
        <pt x="229" y="1612" on="1"/>
        <pt x="770" y="34" on="1"/>
        <pt x="618" y="-19" on="1"/>
      </contour>
    </TTGlyph>
    <TTGlyph name="bar" xMin="209" yMin="-177" xMax="357" yMax="1771">
      <contour>
        <pt x="209" y="1771" on="1"/>
        <pt x="357" y="1771" on="1"/>
        <pt x="357" y="-177" on="1"/>
        <pt x="209" y="-177" on="1"/>
      </contour>
    </TTGlyph>
    <TTGlyph name="braceleft" xMin="76" yMin="-158" xMax="669" yMax="1751">
      <contour>
        <pt x="316" y="357" on="1"/>
        <pt x="316" y="427" on="0"/>
        <pt x="294" y="541" on="0"/>
        <pt x="240" y="644" on="0"/>
        <pt x="147" y="742" on="0"/>
        <pt x="76" y="796" on="1"/>
        <pt x="147" y="850" on="0"/>
        <pt x="240" y="948" on="0"/>
        <pt x="294" y="1051" on="0"/>
        <pt x="316" y="1165" on="0"/>
        <pt x="316" y="1235" on="1"/>
        <pt x="316" y="1478" on="1"/>
        <pt x="316" y="1617" on="0"/>
        <pt x="446" y="1751" on="0"/>
        <pt x="589" y="1751" on="1"/>
        <pt x="669" y="1751" on="1"/>
        <pt x="669" y="1593" on="1"/>
        <pt x="589" y="1593" on="1"/>
        <pt x="535" y="1593" on="0"/>
        <pt x="484" y="1538" on="0"/>
        <pt x="484" y="1478" on="1"/>
        <pt x="484" y="1235" on="1"/>
        <pt x="484" y="1174" on="0"/>
        <pt x="468" y="1056" on="0"/>
        <pt x="427" y="946" on="0"/>
        <pt x="357" y="843" on="0"/>
        <pt x="304" y="797" on="1"/>
        <pt x="357" y="750" on="0"/>
        <pt x="427" y="647" on="0"/>
        <pt x="468" y="536" on="0"/>
        <pt x="484" y="418" on="0"/>
        <pt x="484" y="357" on="1"/>
        <pt x="484" y="115" on="1"/>
        <pt x="484" y="55" on="0"/>
        <pt x="535" y="0" on="0"/>
        <pt x="589" y="0" on="1"/>
        <pt x="669" y="0" on="1"/>
        <pt x="669" y="-158" on="1"/>
        <pt x="589" y="-158" on="1"/>
        <pt x="446" y="-158" on="0"/>
        <pt x="316" y="-25" on="0"/>
        <pt x="316" y="115" on="1"/>
      </contour>
    </TTGlyph>
    <TTGlyph name="braceright" xMin="150" yMin="-158" xMax="743" yMax="1751">
      <contour>
        <pt x="230" y="0" on="1"/>
        <pt x="284" y="0" on="0"/>
        <pt x="335" y="55" on="0"/>
        <pt x="335" y="115" on="1"/>
        <pt x="335" y="357" on="1"/>
        <pt x="335" y="418" on="0"/>
        <pt x="351" y="535" on="0"/>
        <pt x="392" y="646" on="0"/>
        <pt x="462" y="749" on="0"/>
        <pt x="515" y="796" on="1"/>
        <pt x="462" y="842" on="0"/>
        <pt x="392" y="945" on="0"/>
        <pt x="351" y="1056" on="0"/>
        <pt x="335" y="1174" on="0"/>
        <pt x="335" y="1235" on="1"/>
        <pt x="335" y="1478" on="1"/>
        <pt x="335" y="1538" on="0"/>
        <pt x="284" y="1593" on="0"/>
        <pt x="230" y="1593" on="1"/>
        <pt x="150" y="1593" on="1"/>
        <pt x="150" y="1751" on="1"/>
        <pt x="230" y="1751" on="1"/>
        <pt x="373" y="1751" on="0"/>
        <pt x="503" y="1617" on="0"/>
        <pt x="503" y="1478" on="1"/>
        <pt x="503" y="1235" on="1"/>
        <pt x="503" y="1165" on="0"/>
        <pt x="525" y="1051" on="0"/>
        <pt x="579" y="948" on="0"/>
        <pt x="672" y="850" on="0"/>
        <pt x="743" y="796" on="1"/>
        <pt x="672" y="742" on="0"/>
        <pt x="579" y="644" on="0"/>
        <pt x="525" y="541" on="0"/>
        <pt x="503" y="427" on="0"/>
        <pt x="503" y="357" on="1"/>
        <pt x="503" y="115" on="1"/>
        <pt x="503" y="-25" on="0"/>
        <pt x="373" y="-158" on="0"/>
        <pt x="230" y="-158" on="1"/>
        <pt x="150" y="-158" on="1"/>
        <pt x="150" y="0" on="1"/>
      </contour>
    </TTGlyph>
    <TTGlyph name="bracketleft" xMin="184" yMin="-158" xMax="527" yMax="1751">
      <contour>
        <pt x="184" y="1751" on="1"/>
        <pt x="527" y="1751" on="1"/>
        <pt x="527" y="1593" on="1"/>
        <pt x="352" y="1593" on="1"/>
        <pt x="352" y="0" on="1"/>
        <pt x="527" y="0" on="1"/>
        <pt x="527" y="-158" on="1"/>
        <pt x="184" y="-158" on="1"/>
      </contour>
    </TTGlyph>
    <TTGlyph name="bracketright" xMin="150" yMin="-158" xMax="493" yMax="1751">
      <contour>
        <pt x="325" y="0" on="1"/>
        <pt x="325" y="1593" on="1"/>
        <pt x="150" y="1593" on="1"/>
        <pt x="150" y="1751" on="1"/>
        <pt x="493" y="1751" on="1"/>
        <pt x="493" y="-158" on="1"/>
        <pt x="150" y="-158" on="1"/>
        <pt x="150" y="0" on="1"/>
      </contour>
    </TTGlyph>
    <TTGlyph name="brokenbar" xMin="209" yMin="-177" xMax="357" yMax="1771">
      <contour>
        <pt x="209" y="1771" on="1"/>
        <pt x="357" y="1771" on="1"/>
        <pt x="357" y="1062" on="1"/>
        <pt x="209" y="1062" on="1"/>
      </contour>
      <contour>
        <pt x="209" y="532" on="1"/>
        <pt x="357" y="532" on="1"/>
        <pt x="357" y="-177" on="1"/>
        <pt x="209" y="-177" on="1"/>
      </contour>
    </TTGlyph>
    <TTGlyph name="bullet" xMin="150" yMin="394" xMax="570" yMax="797">
      <contour>
        <pt x="360" y="394" on="1"/>
        <pt x="312" y="394" on="0"/>
        <pt x="235" y="426" on="0"/>
        <pt x="180" y="482" on="0"/>
        <pt x="150" y="554" on="0"/>
        <pt x="150" y="595" on="1"/>
        <pt x="150" y="635" on="0"/>
        <pt x="180" y="708" on="0"/>
        <pt x="235" y="764" on="0"/>
        <pt x="312" y="797" on="0"/>
        <pt x="360" y="797" on="1"/>
        <pt x="408" y="797" on="0"/>
        <pt x="485" y="764" on="0"/>
        <pt x="540" y="708" on="0"/>
        <pt x="570" y="635" on="0"/>
        <pt x="570" y="595" on="1"/>
        <pt x="570" y="554" on="0"/>
        <pt x="540" y="482" on="0"/>
        <pt x="485" y="426" on="0"/>
        <pt x="408" y="394" on="0"/>
      </contour>
    </TTGlyph>
    <TTGlyph name="c" xMin="90" yMin="-19" xMax="697" yMax="1081">
      <contour>
        <pt x="479" y="-19" on="1"/>
        <pt x="396" y="-19" on="0"/>
        <pt x="254" y="49" on="0"/>
        <pt x="149" y="187" on="0"/>
        <pt x="90" y="393" on="0"/>
        <pt x="90" y="531" on="1"/>
        <pt x="90" y="669" on="0"/>
        <pt x="149" y="875" on="0"/>
        <pt x="254" y="1013" on="0"/>
        <pt x="396" y="1081" on="0"/>
        <pt x="479" y="1081" on="1"/>
        <pt x="540" y="1081" on="0"/>
        <pt x="653" y="1043" on="0"/>
        <pt x="697" y="1017" on="1"/>
        <pt x="622" y="862" on="1"/>
        <pt x="593" y="879" on="0"/>
        <pt x="518" y="906" on="0"/>
        <pt x="479" y="906" on="1"/>
        <pt x="440" y="906" on="0"/>
        <pt x="366" y="866" on="0"/>
        <pt x="307" y="776" on="0"/>
        <pt x="272" y="633" on="0"/>
        <pt x="272" y="531" on="1"/>
        <pt x="272" y="429" on="0"/>
        <pt x="307" y="286" on="0"/>
        <pt x="366" y="196" on="0"/>
        <pt x="440" y="156" on="0"/>
        <pt x="479" y="156" on="1"/>
        <pt x="518" y="156" on="0"/>
        <pt x="593" y="183" on="0"/>
        <pt x="622" y="200" on="1"/>
        <pt x="697" y="45" on="1"/>
        <pt x="653" y="19" on="0"/>
        <pt x="540" y="-19" on="0"/>
      </contour>
    </TTGlyph>
    <TTGlyph name="caron" xMin="94" yMin="1266" xMax="680" yMax="1612">
      <contour>
        <pt x="94" y="1504" on="1"/>
        <pt x="186" y="1612" on="1"/>
        <pt x="387" y="1451" on="1"/>
        <pt x="588" y="1612" on="1"/>
        <pt x="680" y="1504" on="1"/>
        <pt x="387" y="1266" on="1"/>
      </contour>
    </TTGlyph>
    <TTGlyph name="caron.cap" xMin="72" yMin="1719" xMax="704" yMax="2020">
      <contour>
        <pt x="72" y="1882" on="1"/>
        <pt x="148" y="2020" on="1"/>
        <pt x="388" y="1899" on="1"/>
        <pt x="628" y="2020" on="1"/>
        <pt x="704" y="1882" on="1"/>
        <pt x="388" y="1719" on="1"/>
      </contour>
    </TTGlyph>
    <TTGlyph name="ccedilla" xMin="90" yMin="-531" xMax="697" yMax="1081">
      <contour>
        <pt x="379" y="-5" on="1"/>
        <pt x="315" y="13" on="0"/>
        <pt x="209" y="97" on="0"/>
        <pt x="132" y="231" on="0"/>
        <pt x="90" y="414" on="0"/>
        <pt x="90" y="531" on="1"/>
        <pt x="90" y="669" on="0"/>
        <pt x="149" y="875" on="0"/>
        <pt x="254" y="1013" on="0"/>
        <pt x="396" y="1081" on="0"/>
        <pt x="479" y="1081" on="1"/>
        <pt x="540" y="1081" on="0"/>
        <pt x="653" y="1043" on="0"/>
        <pt x="697" y="1017" on="1"/>
        <pt x="622" y="862" on="1"/>
        <pt x="593" y="879" on="0"/>
        <pt x="518" y="906" on="0"/>
        <pt x="479" y="906" on="1"/>
        <pt x="440" y="906" on="0"/>
        <pt x="366" y="866" on="0"/>
        <pt x="307" y="776" on="0"/>
        <pt x="272" y="633" on="0"/>
        <pt x="272" y="531" on="1"/>
        <pt x="272" y="429" on="0"/>
        <pt x="307" y="286" on="0"/>
        <pt x="366" y="196" on="0"/>
        <pt x="440" y="156" on="0"/>
        <pt x="479" y="156" on="1"/>
        <pt x="518" y="156" on="0"/>
        <pt x="593" y="183" on="0"/>
        <pt x="622" y="200" on="1"/>
        <pt x="697" y="45" on="1"/>
        <pt x="658" y="22" on="0"/>
        <pt x="561" y="-13" on="0"/>
        <pt x="507" y="-17" on="1"/>
        <pt x="475" y="-83" on="1"/>
        <pt x="510" y="-89" on="0"/>
        <pt x="576" y="-119" on="0"/>
        <pt x="626" y="-165" on="0"/>
        <pt x="656" y="-229" on="0"/>
        <pt x="656" y="-269" on="1"/>
        <pt x="656" y="-318" on="0"/>
        <pt x="610" y="-406" on="0"/>
        <pt x="524" y="-476" on="0"/>
        <pt x="401" y="-523" on="0"/>
        <pt x="324" y="-531" on="1"/>
        <pt x="288" y="-395" on="1"/>
        <pt x="381" y="-387" on="0"/>
        <pt x="488" y="-322" on="0"/>
        <pt x="488" y="-274" on="1"/>
        <pt x="488" y="-242" on="0"/>
        <pt x="433" y="-199" on="0"/>
        <pt x="380" y="-199" on="1"/>
        <pt x="357" y="-199" on="0"/>
        <pt x="308" y="-208" on="0"/>
        <pt x="285" y="-216" on="1"/>
      </contour>
    </TTGlyph>
    <TTGlyph name="cedilla" xMin="125" yMin="-531" xMax="496" yMax="63">
      <contour>
        <pt x="250" y="63" on="1"/>
        <pt x="387" y="63" on="1"/>
        <pt x="315" y="-83" on="1"/>
        <pt x="350" y="-89" on="0"/>
        <pt x="416" y="-119" on="0"/>
        <pt x="466" y="-165" on="0"/>
        <pt x="496" y="-229" on="0"/>
        <pt x="496" y="-269" on="1"/>
        <pt x="496" y="-318" on="0"/>
        <pt x="450" y="-406" on="0"/>
        <pt x="364" y="-476" on="0"/>
        <pt x="241" y="-523" on="0"/>
        <pt x="164" y="-531" on="1"/>
        <pt x="128" y="-395" on="1"/>
        <pt x="221" y="-387" on="0"/>
        <pt x="328" y="-322" on="0"/>
        <pt x="328" y="-274" on="1"/>
        <pt x="328" y="-242" on="0"/>
        <pt x="273" y="-199" on="0"/>
        <pt x="220" y="-199" on="1"/>
        <pt x="197" y="-199" on="0"/>
        <pt x="148" y="-208" on="0"/>
        <pt x="125" y="-216" on="1"/>
      </contour>
    </TTGlyph>
    <TTGlyph name="cedilla.cap" xMin="125" yMin="-531" xMax="502" yMax="63">
      <contour>
        <pt x="244" y="63" on="1"/>
        <pt x="387" y="63" on="1"/>
        <pt x="318" y="-75" on="1"/>
        <pt x="360" y="-84" on="0"/>
        <pt x="428" y="-122" on="0"/>
        <pt x="476" y="-175" on="0"/>
        <pt x="502" y="-241" on="0"/>
        <pt x="502" y="-278" on="1"/>
        <pt x="502" y="-330" on="0"/>
        <pt x="451" y="-422" on="0"/>
        <pt x="361" y="-491" on="0"/>
        <pt x="237" y="-531" on="0"/>
        <pt x="164" y="-531" on="1"/>
        <pt x="125" y="-385" on="1"/>
        <pt x="178" y="-385" on="0"/>
        <pt x="255" y="-366" on="0"/>
        <pt x="304" y="-335" on="0"/>
        <pt x="328" y="-296" on="0"/>
        <pt x="328" y="-276" on="1"/>
        <pt x="328" y="-242" on="0"/>
        <pt x="273" y="-199" on="0"/>
        <pt x="219" y="-199" on="1"/>
        <pt x="198" y="-199" on="0"/>
        <pt x="148" y="-208" on="0"/>
        <pt x="125" y="-216" on="1"/>
      </contour>
    </TTGlyph>
    <TTGlyph name="cent" xMin="94" yMin="-176" xMax="701" yMax="1238">
      <contour>
        <pt x="360" y="2" on="1"/>
        <pt x="301" y="23" on="0"/>
        <pt x="203" y="111" on="0"/>
        <pt x="133" y="243" on="0"/>
        <pt x="94" y="420" on="0"/>
        <pt x="94" y="531" on="1"/>
        <pt x="94" y="642" on="0"/>
        <pt x="133" y="819" on="0"/>
        <pt x="203" y="951" on="0"/>
        <pt x="301" y="1038" on="0"/>
        <pt x="360" y="1060" on="1"/>
        <pt x="360" y="1238" on="1"/>
        <pt x="508" y="1238" on="1"/>
        <pt x="508" y="1080" on="1"/>
        <pt x="562" y="1076" on="0"/>
        <pt x="662" y="1040" on="0"/>
        <pt x="701" y="1017" on="1"/>
        <pt x="626" y="862" on="1"/>
        <pt x="597" y="879" on="0"/>
        <pt x="522" y="906" on="0"/>
        <pt x="483" y="906" on="1"/>
        <pt x="444" y="906" on="0"/>
        <pt x="370" y="866" on="0"/>
        <pt x="311" y="776" on="0"/>
        <pt x="276" y="633" on="0"/>
        <pt x="276" y="531" on="1"/>
        <pt x="276" y="429" on="0"/>
        <pt x="311" y="286" on="0"/>
        <pt x="370" y="196" on="0"/>
        <pt x="444" y="156" on="0"/>
        <pt x="483" y="156" on="1"/>
        <pt x="522" y="156" on="0"/>
        <pt x="597" y="183" on="0"/>
        <pt x="626" y="200" on="1"/>
        <pt x="701" y="45" on="1"/>
        <pt x="662" y="21" on="0"/>
        <pt x="562" y="-14" on="0"/>
        <pt x="508" y="-18" on="1"/>
        <pt x="508" y="-176" on="1"/>
        <pt x="360" y="-176" on="1"/>
        <pt x="360" y="2" on="1"/>
      </contour>
    </TTGlyph>
    <TTGlyph name="circumflex" xMin="94" yMin="1266" xMax="680" yMax="1612">
      <contour>
        <pt x="94" y="1374" on="1"/>
        <pt x="387" y="1612" on="1"/>
        <pt x="680" y="1374" on="1"/>
        <pt x="588" y="1266" on="1"/>
        <pt x="387" y="1427" on="1"/>
        <pt x="186" y="1266" on="1"/>
      </contour>
    </TTGlyph>
    <TTGlyph name="circumflex.cap" xMin="72" yMin="1719" xMax="704" yMax="2020">
      <contour>
        <pt x="72" y="1857" on="1"/>
        <pt x="388" y="2020" on="1"/>
        <pt x="704" y="1857" on="1"/>
        <pt x="628" y="1719" on="1"/>
        <pt x="388" y="1840" on="1"/>
        <pt x="148" y="1719" on="1"/>
      </contour>
    </TTGlyph>
    <TTGlyph name="colon" xMin="145" yMin="-18" xMax="423" yMax="881">
      <contour>
        <pt x="284" y="614" on="1"/>
        <pt x="252" y="614" on="0"/>
        <pt x="201" y="636" on="0"/>
        <pt x="165" y="672" on="0"/>
        <pt x="145" y="720" on="0"/>
        <pt x="145" y="747" on="1"/>
        <pt x="145" y="774" on="0"/>
        <pt x="165" y="822" on="0"/>
        <pt x="201" y="859" on="0"/>
        <pt x="252" y="881" on="0"/>
        <pt x="284" y="881" on="1"/>
        <pt x="315" y="881" on="0"/>
        <pt x="367" y="859" on="0"/>
        <pt x="403" y="822" on="0"/>
        <pt x="423" y="774" on="0"/>
        <pt x="423" y="747" on="1"/>
        <pt x="423" y="720" on="0"/>
        <pt x="403" y="672" on="0"/>
        <pt x="367" y="636" on="0"/>
        <pt x="315" y="614" on="0"/>
      </contour>
      <contour>
        <pt x="145" y="115" on="1"/>
        <pt x="145" y="142" on="0"/>
        <pt x="165" y="190" on="0"/>
        <pt x="201" y="227" on="0"/>
        <pt x="252" y="249" on="0"/>
        <pt x="284" y="249" on="1"/>
        <pt x="315" y="249" on="0"/>
        <pt x="367" y="227" on="0"/>
        <pt x="403" y="190" on="0"/>
        <pt x="423" y="142" on="0"/>
        <pt x="423" y="115" on="1"/>
        <pt x="423" y="88" on="0"/>
        <pt x="403" y="40" on="0"/>
        <pt x="367" y="4" on="0"/>
        <pt x="315" y="-18" on="0"/>
        <pt x="284" y="-18" on="1"/>
        <pt x="252" y="-18" on="0"/>
        <pt x="201" y="4" on="0"/>
        <pt x="165" y="40" on="0"/>
        <pt x="145" y="88" on="0"/>
      </contour>
    </TTGlyph>
    <TTGlyph name="comma" xMin="104" yMin="-283" xMax="390" yMax="249">
      <contour>
        <pt x="104" y="115" on="1"/>
        <pt x="104" y="142" on="0"/>
        <pt x="124" y="190" on="0"/>
        <pt x="160" y="227" on="0"/>
        <pt x="211" y="249" on="0"/>
        <pt x="243" y="249" on="1"/>
        <pt x="272" y="249" on="0"/>
        <pt x="325" y="228" on="0"/>
        <pt x="366" y="185" on="0"/>
        <pt x="390" y="122" on="0"/>
        <pt x="390" y="80" on="1"/>
        <pt x="390" y="-78" on="0"/>
        <pt x="192" y="-283" on="1"/>
        <pt x="104" y="-198" on="1"/>
        <pt x="125" y="-178" on="0"/>
        <pt x="166" y="-132" on="0"/>
        <pt x="199" y="-84" on="0"/>
        <pt x="223" y="-37" on="0"/>
        <pt x="229" y="-17" on="1"/>
        <pt x="172" y="-12" on="0"/>
        <pt x="104" y="64" on="0"/>
      </contour>
    </TTGlyph>
    <TTGlyph name="commaaccent" xMin="94" yMin="-503" xMax="352" yMax="-81">
      <contour>
        <pt x="94" y="-188" on="1"/>
        <pt x="94" y="-167" on="0"/>
        <pt x="112" y="-128" on="0"/>
        <pt x="144" y="-98" on="0"/>
        <pt x="190" y="-81" on="0"/>
        <pt x="219" y="-81" on="1"/>
        <pt x="246" y="-81" on="0"/>
        <pt x="294" y="-98" on="0"/>
        <pt x="330" y="-131" on="0"/>
        <pt x="352" y="-182" on="0"/>
        <pt x="352" y="-215" on="1"/>
        <pt x="352" y="-339" on="0"/>
        <pt x="173" y="-503" on="1"/>
        <pt x="94" y="-436" on="1"/>
        <pt x="113" y="-420" on="0"/>
        <pt x="150" y="-383" on="0"/>
        <pt x="180" y="-345" on="0"/>
        <pt x="201" y="-309" on="0"/>
        <pt x="206" y="-293" on="1"/>
        <pt x="155" y="-288" on="0"/>
        <pt x="94" y="-227" on="0"/>
      </contour>
    </TTGlyph>
    <TTGlyph name="copyright" xMin="121" yMin="-19" xMax="1249" yMax="1611">
      <contour>
        <pt x="685" y="-19" on="1"/>
        <pt x="571" y="-19" on="0"/>
        <pt x="366" y="81" on="0"/>
        <pt x="211" y="283" on="0"/>
        <pt x="121" y="589" on="0"/>
        <pt x="121" y="796" on="1"/>
        <pt x="121" y="1003" on="0"/>
        <pt x="211" y="1309" on="0"/>
        <pt x="366" y="1511" on="0"/>
        <pt x="571" y="1611" on="0"/>
        <pt x="685" y="1611" on="1"/>
        <pt x="799" y="1611" on="0"/>
        <pt x="1004" y="1511" on="0"/>
        <pt x="1159" y="1309" on="0"/>
        <pt x="1249" y="1003" on="0"/>
        <pt x="1249" y="796" on="1"/>
        <pt x="1249" y="589" on="0"/>
        <pt x="1159" y="283" on="0"/>
        <pt x="1004" y="81" on="0"/>
        <pt x="799" y="-19" on="0"/>
      </contour>
      <contour>
        <pt x="685" y="119" on="1"/>
        <pt x="765" y="119" on="0"/>
        <pt x="916" y="196" on="0"/>
        <pt x="1034" y="359" on="0"/>
        <pt x="1106" y="616" on="0"/>
        <pt x="1106" y="796" on="1"/>
        <pt x="1104" y="978" on="0"/>
        <pt x="1032" y="1235" on="0"/>
        <pt x="915" y="1398" on="0"/>
        <pt x="765" y="1473" on="0"/>
        <pt x="685" y="1473" on="1"/>
        <pt x="605" y="1473" on="0"/>
        <pt x="454" y="1396" on="0"/>
        <pt x="336" y="1233" on="0"/>
        <pt x="264" y="976" on="0"/>
        <pt x="264" y="796" on="1"/>
        <pt x="264" y="616" on="0"/>
        <pt x="336" y="359" on="0"/>
        <pt x="454" y="196" on="0"/>
        <pt x="605" y="119" on="0"/>
      </contour>
      <contour>
        <pt x="724" y="364" on="1"/>
        <pt x="659" y="364" on="0"/>
        <pt x="548" y="418" on="0"/>
        <pt x="467" y="526" on="0"/>
        <pt x="420" y="688" on="0"/>
        <pt x="420" y="796" on="1"/>
        <pt x="420" y="904" on="0"/>
        <pt x="467" y="1066" on="0"/>
        <pt x="548" y="1174" on="0"/>
        <pt x="659" y="1228" on="0"/>
        <pt x="724" y="1228" on="1"/>
        <pt x="777" y="1228" on="0"/>
        <pt x="864" y="1201" on="0"/>
        <pt x="899" y="1178" on="1"/>
        <pt x="838" y="1054" on="1"/>
        <pt x="815" y="1068" on="0"/>
        <pt x="758" y="1091" on="0"/>
        <pt x="724" y="1091" on="1"/>
        <pt x="694" y="1091" on="0"/>
        <pt x="636" y="1060" on="0"/>
        <pt x="591" y="990" on="0"/>
        <pt x="564" y="877" on="0"/>
        <pt x="564" y="796" on="1"/>
        <pt x="564" y="715" on="0"/>
        <pt x="591" y="602" on="0"/>
        <pt x="636" y="531" on="0"/>
        <pt x="694" y="500" on="0"/>
        <pt x="724" y="500" on="1"/>
        <pt x="758" y="500" on="0"/>
        <pt x="815" y="524" on="0"/>
        <pt x="838" y="538" on="1"/>
        <pt x="899" y="414" on="1"/>
        <pt x="864" y="391" on="0"/>
        <pt x="777" y="364" on="0"/>
      </contour>
    </TTGlyph>
    <TTGlyph name="currency" xMin="86" yMin="281" xMax="973" yMax="1167">
      <contour>
        <pt x="86" y="388" on="1"/>
        <pt x="228" y="529" on="1"/>
        <pt x="201" y="571" on="0"/>
        <pt x="171" y="669" on="0"/>
        <pt x="171" y="723" on="1"/>
        <pt x="171" y="777" on="0"/>
        <pt x="201" y="876" on="0"/>
        <pt x="229" y="918" on="1"/>
        <pt x="87" y="1060" on="1"/>
        <pt x="195" y="1167" on="1"/>
        <pt x="336" y="1025" on="1"/>
        <pt x="378" y="1051" on="0"/>
        <pt x="474" y="1081" on="0"/>
        <pt x="528" y="1081" on="1"/>
        <pt x="582" y="1081" on="0"/>
        <pt x="680" y="1051" on="0"/>
        <pt x="722" y="1023" on="1"/>
        <pt x="866" y="1167" on="1"/>
        <pt x="973" y="1060" on="1"/>
        <pt x="829" y="916" on="1"/>
        <pt x="856" y="874" on="0"/>
        <pt x="886" y="777" on="0"/>
        <pt x="886" y="723" on="1"/>
        <pt x="886" y="669" on="0"/>
        <pt x="856" y="573" on="0"/>
        <pt x="830" y="531" on="1"/>
        <pt x="973" y="389" on="1"/>
        <pt x="866" y="282" on="1"/>
        <pt x="723" y="424" on="1"/>
        <pt x="681" y="396" on="0"/>
        <pt x="582" y="366" on="0"/>
        <pt x="528" y="366" on="1"/>
        <pt x="474" y="366" on="0"/>
        <pt x="376" y="396" on="0"/>
        <pt x="334" y="423" on="1"/>
        <pt x="193" y="281" on="1"/>
      </contour>
      <contour>
        <pt x="528" y="526" on="1"/>
        <pt x="568" y="526" on="0"/>
        <pt x="640" y="557" on="0"/>
        <pt x="694" y="611" on="0"/>
        <pt x="726" y="682" on="0"/>
        <pt x="726" y="723" on="1"/>
        <pt x="726" y="763" on="0"/>
        <pt x="694" y="835" on="0"/>
        <pt x="640" y="889" on="0"/>
        <pt x="568" y="921" on="0"/>
        <pt x="528" y="921" on="1"/>
        <pt x="487" y="921" on="0"/>
        <pt x="416" y="889" on="0"/>
        <pt x="362" y="835" on="0"/>
        <pt x="331" y="763" on="0"/>
        <pt x="331" y="723" on="1"/>
        <pt x="331" y="682" on="0"/>
        <pt x="362" y="611" on="0"/>
        <pt x="416" y="557" on="0"/>
        <pt x="487" y="526" on="0"/>
      </contour>
    </TTGlyph>
    <TTGlyph name="d" xMin="100" yMin="-23" xMax="802" yMax="1593">
      <contour>
        <pt x="481" y="-19" on="1"/>
        <pt x="404" y="-19" on="0"/>
        <pt x="265" y="45" on="0"/>
        <pt x="161" y="179" on="0"/>
        <pt x="100" y="387" on="0"/>
        <pt x="100" y="531" on="1"/>
        <pt x="100" y="675" on="0"/>
        <pt x="161" y="883" on="0"/>
        <pt x="265" y="1017" on="0"/>
        <pt x="404" y="1081" on="0"/>
        <pt x="481" y="1081" on="1"/>
        <pt x="520" y="1081" on="0"/>
        <pt x="592" y="1061" on="0"/>
        <pt x="624" y="1042" on="1"/>
        <pt x="624" y="1593" on="1"/>
        <pt x="802" y="1593" on="1"/>
        <pt x="802" y="-23" on="1"/>
        <pt x="681" y="63" on="1"/>
        <pt x="641" y="23" on="0"/>
        <pt x="539" y="-19" on="0"/>
      </contour>
      <contour>
        <pt x="493" y="149" on="1"/>
        <pt x="531" y="149" on="0"/>
        <pt x="597" y="175" on="0"/>
        <pt x="624" y="199" on="1"/>
        <pt x="624" y="862" on="1"/>
        <pt x="568" y="913" on="0"/>
        <pt x="493" y="913" on="1"/>
        <pt x="452" y="913" on="0"/>
        <pt x="376" y="877" on="0"/>
        <pt x="317" y="790" on="0"/>
        <pt x="281" y="643" on="0"/>
        <pt x="281" y="531" on="1"/>
        <pt x="281" y="419" on="0"/>
        <pt x="317" y="272" on="0"/>
        <pt x="376" y="185" on="0"/>
        <pt x="452" y="149" on="0"/>
      </contour>
    </TTGlyph>
    <TTGlyph name="degree" xMin="115" yMin="984" xMax="609" yMax="1614">
      <contour>
        <pt x="362" y="984" on="1"/>
        <pt x="308" y="984" on="0"/>
        <pt x="217" y="1028" on="0"/>
        <pt x="151" y="1110" on="0"/>
        <pt x="115" y="1226" on="0"/>
        <pt x="115" y="1299" on="1"/>
        <pt x="115" y="1372" on="0"/>
        <pt x="151" y="1488" on="0"/>
        <pt x="217" y="1570" on="0"/>
        <pt x="308" y="1614" on="0"/>
        <pt x="362" y="1614" on="1"/>
        <pt x="416" y="1614" on="0"/>
        <pt x="507" y="1570" on="0"/>
        <pt x="573" y="1488" on="0"/>
        <pt x="609" y="1372" on="0"/>
        <pt x="609" y="1299" on="1"/>
        <pt x="609" y="1226" on="0"/>
        <pt x="573" y="1110" on="0"/>
        <pt x="507" y="1028" on="0"/>
        <pt x="416" y="984" on="0"/>
      </contour>
      <contour>
        <pt x="362" y="1119" on="1"/>
        <pt x="384" y="1119" on="0"/>
        <pt x="423" y="1138" on="0"/>
        <pt x="451" y="1181" on="0"/>
        <pt x="468" y="1250" on="0"/>
        <pt x="468" y="1299" on="1"/>
        <pt x="468" y="1348" on="0"/>
        <pt x="451" y="1417" on="0"/>
        <pt x="423" y="1460" on="0"/>
        <pt x="384" y="1479" on="0"/>
        <pt x="362" y="1479" on="1"/>
        <pt x="340" y="1479" on="0"/>
        <pt x="301" y="1460" on="0"/>
        <pt x="273" y="1417" on="0"/>
        <pt x="256" y="1348" on="0"/>
        <pt x="256" y="1299" on="1"/>
        <pt x="256" y="1250" on="0"/>
        <pt x="273" y="1181" on="0"/>
        <pt x="301" y="1138" on="0"/>
        <pt x="340" y="1119" on="0"/>
      </contour>
    </TTGlyph>
    <TTGlyph name="dieresis" xMin="94" yMin="1273" xMax="718" yMax="1521">
      <contour>
        <pt x="589" y="1273" on="1"/>
        <pt x="560" y="1273" on="0"/>
        <pt x="512" y="1293" on="0"/>
        <pt x="478" y="1327" on="0"/>
        <pt x="460" y="1372" on="0"/>
        <pt x="460" y="1397" on="1"/>
        <pt x="460" y="1422" on="0"/>
        <pt x="478" y="1467" on="0"/>
        <pt x="512" y="1501" on="0"/>
        <pt x="560" y="1521" on="0"/>
        <pt x="589" y="1521" on="1"/>
        <pt x="618" y="1521" on="0"/>
        <pt x="666" y="1501" on="0"/>
        <pt x="700" y="1467" on="0"/>
        <pt x="718" y="1422" on="0"/>
        <pt x="718" y="1397" on="1"/>
        <pt x="718" y="1372" on="0"/>
        <pt x="700" y="1327" on="0"/>
        <pt x="666" y="1293" on="0"/>
        <pt x="618" y="1273" on="0"/>
      </contour>
      <contour>
        <pt x="223" y="1273" on="1"/>
        <pt x="194" y="1273" on="0"/>
        <pt x="146" y="1293" on="0"/>
        <pt x="112" y="1327" on="0"/>
        <pt x="94" y="1372" on="0"/>
        <pt x="94" y="1397" on="1"/>
        <pt x="94" y="1422" on="0"/>
        <pt x="112" y="1467" on="0"/>
        <pt x="146" y="1501" on="0"/>
        <pt x="194" y="1521" on="0"/>
        <pt x="223" y="1521" on="1"/>
        <pt x="252" y="1521" on="0"/>
        <pt x="300" y="1501" on="0"/>
        <pt x="334" y="1467" on="0"/>
        <pt x="352" y="1422" on="0"/>
        <pt x="352" y="1397" on="1"/>
        <pt x="352" y="1372" on="0"/>
        <pt x="334" y="1327" on="0"/>
        <pt x="300" y="1293" on="0"/>
        <pt x="252" y="1273" on="0"/>
      </contour>
    </TTGlyph>
    <TTGlyph name="dieresis.cap" xMin="94" yMin="1699" xMax="728" yMax="1947">
      <contour>
        <pt x="599" y="1699" on="1"/>
        <pt x="570" y="1699" on="0"/>
        <pt x="522" y="1719" on="0"/>
        <pt x="488" y="1753" on="0"/>
        <pt x="470" y="1798" on="0"/>
        <pt x="470" y="1823" on="1"/>
        <pt x="470" y="1848" on="0"/>
        <pt x="488" y="1893" on="0"/>
        <pt x="522" y="1927" on="0"/>
        <pt x="570" y="1947" on="0"/>
        <pt x="599" y="1947" on="1"/>
        <pt x="628" y="1947" on="0"/>
        <pt x="676" y="1927" on="0"/>
        <pt x="710" y="1893" on="0"/>
        <pt x="728" y="1848" on="0"/>
        <pt x="728" y="1823" on="1"/>
        <pt x="728" y="1798" on="0"/>
        <pt x="710" y="1753" on="0"/>
        <pt x="676" y="1719" on="0"/>
        <pt x="628" y="1699" on="0"/>
      </contour>
      <contour>
        <pt x="223" y="1699" on="1"/>
        <pt x="194" y="1699" on="0"/>
        <pt x="146" y="1719" on="0"/>
        <pt x="112" y="1753" on="0"/>
        <pt x="94" y="1798" on="0"/>
        <pt x="94" y="1823" on="1"/>
        <pt x="94" y="1848" on="0"/>
        <pt x="112" y="1893" on="0"/>
        <pt x="146" y="1927" on="0"/>
        <pt x="194" y="1947" on="0"/>
        <pt x="223" y="1947" on="1"/>
        <pt x="252" y="1947" on="0"/>
        <pt x="300" y="1927" on="0"/>
        <pt x="334" y="1893" on="0"/>
        <pt x="352" y="1848" on="0"/>
        <pt x="352" y="1823" on="1"/>
        <pt x="352" y="1798" on="0"/>
        <pt x="334" y="1753" on="0"/>
        <pt x="300" y="1719" on="0"/>
        <pt x="252" y="1699" on="0"/>
      </contour>
    </TTGlyph>
    <TTGlyph name="divide" xMin="145" yMin="-18" xMax="423" yMax="881">
      <contour>
        <pt x="284" y="614" on="1"/>
        <pt x="252" y="614" on="0"/>
        <pt x="201" y="636" on="0"/>
        <pt x="165" y="672" on="0"/>
        <pt x="145" y="720" on="0"/>
        <pt x="145" y="747" on="1"/>
        <pt x="145" y="774" on="0"/>
        <pt x="165" y="822" on="0"/>
        <pt x="201" y="859" on="0"/>
        <pt x="252" y="881" on="0"/>
        <pt x="284" y="881" on="1"/>
        <pt x="315" y="881" on="0"/>
        <pt x="367" y="859" on="0"/>
        <pt x="403" y="822" on="0"/>
        <pt x="423" y="774" on="0"/>
        <pt x="423" y="747" on="1"/>
        <pt x="423" y="720" on="0"/>
        <pt x="403" y="672" on="0"/>
        <pt x="367" y="636" on="0"/>
        <pt x="315" y="614" on="0"/>
      </contour>
      <contour>
        <pt x="145" y="115" on="1"/>
        <pt x="145" y="142" on="0"/>
        <pt x="165" y="190" on="0"/>
        <pt x="201" y="227" on="0"/>
        <pt x="252" y="249" on="0"/>
        <pt x="284" y="249" on="1"/>
        <pt x="315" y="249" on="0"/>
        <pt x="367" y="227" on="0"/>
        <pt x="403" y="190" on="0"/>
        <pt x="423" y="142" on="0"/>
        <pt x="423" y="115" on="1"/>
        <pt x="423" y="88" on="0"/>
        <pt x="403" y="40" on="0"/>
        <pt x="367" y="4" on="0"/>
        <pt x="315" y="-18" on="0"/>
        <pt x="284" y="-18" on="1"/>
        <pt x="252" y="-18" on="0"/>
        <pt x="201" y="4" on="0"/>
        <pt x="165" y="40" on="0"/>
        <pt x="145" y="88" on="0"/>
      </contour>
    </TTGlyph>
    <TTGlyph name="dollar" xMin="94" yMin="-177" xMax="790" yMax="1772">
      <contour>
        <pt x="180" y="239" on="1"/>
        <pt x="229" y="210" on="0"/>
        <pt x="336" y="164" on="0"/>
        <pt x="400" y="164" on="1"/>
        <pt x="439" y="164" on="0"/>
        <pt x="511" y="186" on="0"/>
        <pt x="565" y="232" on="0"/>
        <pt x="597" y="303" on="0"/>
        <pt x="597" y="352" on="1"/>
        <pt x="597" y="385" on="0"/>
        <pt x="580" y="455" on="0"/>
        <pt x="541" y="536" on="0"/>
        <pt x="478" y="632" on="0"/>
        <pt x="431" y="691" on="1"/>
        <pt x="302" y="854" on="1"/>
        <pt x="254" y="915" on="0"/>
        <pt x="187" y="1025" on="0"/>
        <pt x="145" y="1126" on="0"/>
        <pt x="126" y="1219" on="0"/>
        <pt x="126" y="1264" on="1"/>
        <pt x="126" y="1382" on="0"/>
        <pt x="242" y="1555" on="0"/>
        <pt x="348" y="1590" on="1"/>
        <pt x="348" y="1772" on="1"/>
        <pt x="496" y="1772" on="1"/>
        <pt x="496" y="1611" on="1"/>
        <pt x="559" y="1609" on="0"/>
        <pt x="684" y="1573" on="0"/>
        <pt x="744" y="1538" on="1"/>
        <pt x="664" y="1383" on="1"/>
        <pt x="629" y="1404" on="0"/>
        <pt x="548" y="1435" on="0"/>
        <pt x="499" y="1435" on="1"/>
        <pt x="417" y="1435" on="0"/>
        <pt x="319" y="1342" on="0"/>
        <pt x="319" y="1257" on="1"/>
        <pt x="319" y="1234" on="0"/>
        <pt x="329" y="1185" on="0"/>
        <pt x="354" y="1127" on="0"/>
        <pt x="397" y="1057" on="0"/>
        <pt x="430" y="1013" on="1"/>
        <pt x="617" y="767" on="1"/>
        <pt x="653" y="719" on="0"/>
        <pt x="717" y="628" on="0"/>
        <pt x="763" y="533" on="0"/>
        <pt x="790" y="428" on="0"/>
        <pt x="790" y="367" on="1"/>
        <pt x="790" y="290" on="0"/>
        <pt x="747" y="164" on="0"/>
        <pt x="670" y="68" on="0"/>
        <pt x="562" y="4" on="0"/>
        <pt x="496" y="-9" on="1"/>
        <pt x="496" y="-177" on="1"/>
        <pt x="348" y="-177" on="1"/>
        <pt x="348" y="-16" on="1"/>
        <pt x="274" y="-9" on="0"/>
        <pt x="143" y="39" on="0"/>
        <pt x="94" y="73" on="1"/>
      </contour>
    </TTGlyph>
    <TTGlyph name="dotlessi" xMin="169" yMin="0" xMax="347" yMax="1062">
      <contour>
        <pt x="169" y="1062" on="1"/>
        <pt x="347" y="1062" on="1"/>
        <pt x="347" y="0" on="1"/>
        <pt x="169" y="0" on="1"/>
      </contour>
    </TTGlyph>
    <TTGlyph name="dotlessj" xMin="39" yMin="-354" xMax="383" yMax="1062">
      <contour>
        <pt x="39" y="-210" on="1"/>
        <pt x="88" y="-178" on="0"/>
        <pt x="152" y="-106" on="0"/>
        <pt x="190" y="-23" on="0"/>
        <pt x="205" y="70" on="0"/>
        <pt x="205" y="123" on="1"/>
        <pt x="205" y="1062" on="1"/>
        <pt x="383" y="1062" on="1"/>
        <pt x="383" y="123" on="1"/>
        <pt x="383" y="46" on="0"/>
        <pt x="356" y="-93" on="0"/>
        <pt x="296" y="-213" on="0"/>
        <pt x="198" y="-314" on="0"/>
        <pt x="126" y="-354" on="1"/>
        <pt x="39" y="-210" on="1"/>
      </contour>
    </TTGlyph>
    <TTGlyph name="e" xMin="90" yMin="-19" xMax="769" yMax="1081">
      <contour>
        <pt x="488" y="-19" on="1"/>
        <pt x="402" y="-19" on="0"/>
        <pt x="257" y="56" on="0"/>
        <pt x="150" y="199" on="0"/>
        <pt x="90" y="406" on="0"/>
        <pt x="90" y="538" on="1"/>
        <pt x="90" y="673" on="0"/>
        <pt x="152" y="877" on="0"/>
        <pt x="257" y="1013" on="0"/>
        <pt x="394" y="1081" on="0"/>
        <pt x="468" y="1081" on="1"/>
        <pt x="554" y="1081" on="0"/>
        <pt x="684" y="992" on="0"/>
        <pt x="760" y="828" on="0"/>
        <pt x="778" y="597" on="0"/>
        <pt x="753" y="455" on="1"/>
        <pt x="275" y="456" on="1"/>
        <pt x="283" y="370" on="0"/>
        <pt x="330" y="253" on="0"/>
        <pt x="395" y="181" on="0"/>
        <pt x="471" y="150" on="0"/>
        <pt x="509" y="150" on="1"/>
        <pt x="532" y="150" on="0"/>
        <pt x="579" y="160" on="0"/>
        <pt x="622" y="176" on="0"/>
        <pt x="658" y="196" on="0"/>
        <pt x="670" y="205" on="1"/>
        <pt x="738" y="53" on="1"/>
        <pt x="716" y="39" on="0"/>
        <pt x="658" y="13" on="0"/>
        <pt x="593" y="-7" on="0"/>
        <pt x="522" y="-19" on="0"/>
      </contour>
      <contour>
        <pt x="589" y="623" on="1"/>
        <pt x="594" y="707" on="0"/>
        <pt x="577" y="816" on="0"/>
        <pt x="542" y="881" on="0"/>
        <pt x="492" y="906" on="0"/>
        <pt x="464" y="906" on="1"/>
        <pt x="392" y="906" on="0"/>
        <pt x="289" y="763" on="0"/>
        <pt x="276" y="623" on="1"/>
      </contour>
    </TTGlyph>
    <TTGlyph name="eacute" xMin="90" yMin="-19" xMax="769" yMax="1631">
      <contour>
        <pt x="195" y="1329" on="1"/>
        <pt x="574" y="1631" on="1"/>
        <pt x="673" y="1508" on="1"/>
        <pt x="294" y="1206" on="1"/>
      </contour>
      <contour>
        <pt x="488" y="-19" on="1"/>
        <pt x="402" y="-19" on="0"/>
        <pt x="257" y="56" on="0"/>
        <pt x="150" y="199" on="0"/>
        <pt x="90" y="406" on="0"/>
        <pt x="90" y="538" on="1"/>
        <pt x="90" y="673" on="0"/>
        <pt x="152" y="877" on="0"/>
        <pt x="257" y="1013" on="0"/>
        <pt x="394" y="1081" on="0"/>
        <pt x="468" y="1081" on="1"/>
        <pt x="554" y="1081" on="0"/>
        <pt x="684" y="992" on="0"/>
        <pt x="760" y="828" on="0"/>
        <pt x="778" y="597" on="0"/>
        <pt x="753" y="455" on="1"/>
        <pt x="275" y="456" on="1"/>
        <pt x="283" y="370" on="0"/>
        <pt x="330" y="253" on="0"/>
        <pt x="395" y="181" on="0"/>
        <pt x="471" y="150" on="0"/>
        <pt x="509" y="150" on="1"/>
        <pt x="532" y="150" on="0"/>
        <pt x="579" y="160" on="0"/>
        <pt x="622" y="176" on="0"/>
        <pt x="658" y="196" on="0"/>
        <pt x="670" y="205" on="1"/>
        <pt x="738" y="53" on="1"/>
        <pt x="716" y="39" on="0"/>
        <pt x="658" y="13" on="0"/>
        <pt x="593" y="-7" on="0"/>
        <pt x="522" y="-19" on="0"/>
      </contour>
      <contour>
        <pt x="589" y="623" on="1"/>
        <pt x="594" y="707" on="0"/>
        <pt x="577" y="816" on="0"/>
        <pt x="542" y="881" on="0"/>
        <pt x="492" y="906" on="0"/>
        <pt x="464" y="906" on="1"/>
        <pt x="392" y="906" on="0"/>
        <pt x="289" y="763" on="0"/>
        <pt x="276" y="623" on="1"/>
      </contour>
    </TTGlyph>
    <TTGlyph name="ecircumflex" xMin="90" yMin="-19" xMax="769" yMax="1612">
      <contour>
        <pt x="163" y="1374" on="1"/>
        <pt x="456" y="1612" on="1"/>
        <pt x="749" y="1374" on="1"/>
        <pt x="657" y="1266" on="1"/>
        <pt x="456" y="1427" on="1"/>
        <pt x="255" y="1266" on="1"/>
      </contour>
      <contour>
        <pt x="488" y="-19" on="1"/>
        <pt x="402" y="-19" on="0"/>
        <pt x="257" y="56" on="0"/>
        <pt x="150" y="199" on="0"/>
        <pt x="90" y="406" on="0"/>
        <pt x="90" y="538" on="1"/>
        <pt x="90" y="673" on="0"/>
        <pt x="152" y="877" on="0"/>
        <pt x="257" y="1013" on="0"/>
        <pt x="394" y="1081" on="0"/>
        <pt x="468" y="1081" on="1"/>
        <pt x="554" y="1081" on="0"/>
        <pt x="684" y="992" on="0"/>
        <pt x="760" y="828" on="0"/>
        <pt x="778" y="597" on="0"/>
        <pt x="753" y="455" on="1"/>
        <pt x="275" y="456" on="1"/>
        <pt x="283" y="370" on="0"/>
        <pt x="330" y="253" on="0"/>
        <pt x="395" y="181" on="0"/>
        <pt x="471" y="150" on="0"/>
        <pt x="509" y="150" on="1"/>
        <pt x="532" y="150" on="0"/>
        <pt x="579" y="160" on="0"/>
        <pt x="622" y="176" on="0"/>
        <pt x="658" y="196" on="0"/>
        <pt x="670" y="205" on="1"/>
        <pt x="738" y="53" on="1"/>
        <pt x="716" y="39" on="0"/>
        <pt x="658" y="13" on="0"/>
        <pt x="593" y="-7" on="0"/>
        <pt x="522" y="-19" on="0"/>
      </contour>
      <contour>
        <pt x="589" y="623" on="1"/>
        <pt x="594" y="707" on="0"/>
        <pt x="577" y="816" on="0"/>
        <pt x="542" y="881" on="0"/>
        <pt x="492" y="906" on="0"/>
        <pt x="464" y="906" on="1"/>
        <pt x="392" y="906" on="0"/>
        <pt x="289" y="763" on="0"/>
        <pt x="276" y="623" on="1"/>
      </contour>
    </TTGlyph>
    <TTGlyph name="edieresis" xMin="90" yMin="-19" xMax="778" yMax="1521">
      <contour>
        <pt x="649" y="1273" on="1"/>
        <pt x="620" y="1273" on="0"/>
        <pt x="572" y="1293" on="0"/>
        <pt x="538" y="1327" on="0"/>
        <pt x="520" y="1372" on="0"/>
        <pt x="520" y="1397" on="1"/>
        <pt x="520" y="1422" on="0"/>
        <pt x="538" y="1467" on="0"/>
        <pt x="572" y="1501" on="0"/>
        <pt x="620" y="1521" on="0"/>
        <pt x="649" y="1521" on="1"/>
        <pt x="678" y="1521" on="0"/>
        <pt x="726" y="1501" on="0"/>
        <pt x="760" y="1467" on="0"/>
        <pt x="778" y="1422" on="0"/>
        <pt x="778" y="1397" on="1"/>
        <pt x="778" y="1372" on="0"/>
        <pt x="760" y="1327" on="0"/>
        <pt x="726" y="1293" on="0"/>
        <pt x="678" y="1273" on="0"/>
      </contour>
      <contour>
        <pt x="283" y="1273" on="1"/>
        <pt x="254" y="1273" on="0"/>
        <pt x="206" y="1293" on="0"/>
        <pt x="172" y="1327" on="0"/>
        <pt x="154" y="1372" on="0"/>
        <pt x="154" y="1397" on="1"/>
        <pt x="154" y="1422" on="0"/>
        <pt x="172" y="1467" on="0"/>
        <pt x="206" y="1501" on="0"/>
        <pt x="254" y="1521" on="0"/>
        <pt x="283" y="1521" on="1"/>
        <pt x="312" y="1521" on="0"/>
        <pt x="360" y="1501" on="0"/>
        <pt x="394" y="1467" on="0"/>
        <pt x="412" y="1422" on="0"/>
        <pt x="412" y="1397" on="1"/>
        <pt x="412" y="1372" on="0"/>
        <pt x="394" y="1327" on="0"/>
        <pt x="360" y="1293" on="0"/>
        <pt x="312" y="1273" on="0"/>
      </contour>
      <contour>
        <pt x="488" y="-19" on="1"/>
        <pt x="402" y="-19" on="0"/>
        <pt x="257" y="56" on="0"/>
        <pt x="150" y="199" on="0"/>
        <pt x="90" y="406" on="0"/>
        <pt x="90" y="538" on="1"/>
        <pt x="90" y="673" on="0"/>
        <pt x="152" y="877" on="0"/>
        <pt x="257" y="1013" on="0"/>
        <pt x="394" y="1081" on="0"/>
        <pt x="468" y="1081" on="1"/>
        <pt x="554" y="1081" on="0"/>
        <pt x="684" y="992" on="0"/>
        <pt x="760" y="828" on="0"/>
        <pt x="778" y="597" on="0"/>
        <pt x="753" y="455" on="1"/>
        <pt x="275" y="456" on="1"/>
        <pt x="283" y="370" on="0"/>
        <pt x="330" y="253" on="0"/>
        <pt x="395" y="181" on="0"/>
        <pt x="471" y="150" on="0"/>
        <pt x="509" y="150" on="1"/>
        <pt x="532" y="150" on="0"/>
        <pt x="579" y="160" on="0"/>
        <pt x="622" y="176" on="0"/>
        <pt x="658" y="196" on="0"/>
        <pt x="670" y="205" on="1"/>
        <pt x="738" y="53" on="1"/>
        <pt x="716" y="39" on="0"/>
        <pt x="658" y="13" on="0"/>
        <pt x="593" y="-7" on="0"/>
        <pt x="522" y="-19" on="0"/>
      </contour>
      <contour>
        <pt x="589" y="623" on="1"/>
        <pt x="594" y="707" on="0"/>
        <pt x="577" y="816" on="0"/>
        <pt x="542" y="881" on="0"/>
        <pt x="492" y="906" on="0"/>
        <pt x="464" y="906" on="1"/>
        <pt x="392" y="906" on="0"/>
        <pt x="289" y="763" on="0"/>
        <pt x="276" y="623" on="1"/>
      </contour>
    </TTGlyph>
    <TTGlyph name="egrave" xMin="90" yMin="-19" xMax="769" yMax="1631">
      <contour>
        <pt x="237" y="1508" on="1"/>
        <pt x="336" y="1631" on="1"/>
        <pt x="715" y="1329" on="1"/>
        <pt x="616" y="1206" on="1"/>
      </contour>
      <contour>
        <pt x="488" y="-19" on="1"/>
        <pt x="402" y="-19" on="0"/>
        <pt x="257" y="56" on="0"/>
        <pt x="150" y="199" on="0"/>
        <pt x="90" y="406" on="0"/>
        <pt x="90" y="538" on="1"/>
        <pt x="90" y="673" on="0"/>
        <pt x="152" y="877" on="0"/>
        <pt x="257" y="1013" on="0"/>
        <pt x="394" y="1081" on="0"/>
        <pt x="468" y="1081" on="1"/>
        <pt x="554" y="1081" on="0"/>
        <pt x="684" y="992" on="0"/>
        <pt x="760" y="828" on="0"/>
        <pt x="778" y="597" on="0"/>
        <pt x="753" y="455" on="1"/>
        <pt x="275" y="456" on="1"/>
        <pt x="283" y="370" on="0"/>
        <pt x="330" y="253" on="0"/>
        <pt x="395" y="181" on="0"/>
        <pt x="471" y="150" on="0"/>
        <pt x="509" y="150" on="1"/>
        <pt x="532" y="150" on="0"/>
        <pt x="579" y="160" on="0"/>
        <pt x="622" y="176" on="0"/>
        <pt x="658" y="196" on="0"/>
        <pt x="670" y="205" on="1"/>
        <pt x="738" y="53" on="1"/>
        <pt x="716" y="39" on="0"/>
        <pt x="658" y="13" on="0"/>
        <pt x="593" y="-7" on="0"/>
        <pt x="522" y="-19" on="0"/>
      </contour>
      <contour>
        <pt x="589" y="623" on="1"/>
        <pt x="594" y="707" on="0"/>
        <pt x="577" y="816" on="0"/>
        <pt x="542" y="881" on="0"/>
        <pt x="492" y="906" on="0"/>
        <pt x="464" y="906" on="1"/>
        <pt x="392" y="906" on="0"/>
        <pt x="289" y="763" on="0"/>
        <pt x="276" y="623" on="1"/>
      </contour>
    </TTGlyph>
    <TTGlyph name="eight" xMin="135" yMin="-19" xMax="965" yMax="1630">
      <contour>
        <pt x="135" y="455" on="1"/>
        <pt x="135" y="525" on="0"/>
        <pt x="163" y="651" on="0"/>
        <pt x="214" y="759" on="0"/>
        <pt x="284" y="846" on="0"/>
        <pt x="327" y="878" on="1"/>
        <pt x="264" y="939" on="0"/>
        <pt x="191" y="1117" on="0"/>
        <pt x="191" y="1223" on="1"/>
        <pt x="191" y="1317" on="0"/>
        <pt x="250" y="1468" on="0"/>
        <pt x="350" y="1573" on="0"/>
        <pt x="479" y="1630" on="0"/>
        <pt x="550" y="1630" on="1"/>
        <pt x="620" y="1630" on="0"/>
        <pt x="750" y="1574" on="0"/>
        <pt x="849" y="1469" on="0"/>
        <pt x="908" y="1318" on="0"/>
        <pt x="908" y="1224" on="1"/>
        <pt x="908" y="1118" on="0"/>
        <pt x="834" y="939" on="0"/>
        <pt x="772" y="878" on="1"/>
        <pt x="815" y="846" on="0"/>
        <pt x="886" y="759" on="0"/>
        <pt x="937" y="651" on="0"/>
        <pt x="965" y="525" on="0"/>
        <pt x="965" y="455" on="1"/>
        <pt x="965" y="349" on="0"/>
        <pt x="902" y="174" on="0"/>
        <pt x="790" y="50" on="0"/>
        <pt x="638" y="-19" on="0"/>
        <pt x="550" y="-19" on="1"/>
        <pt x="461" y="-19" on="0"/>
        <pt x="310" y="50" on="0"/>
        <pt x="198" y="174" on="0"/>
        <pt x="135" y="349" on="0"/>
      </contour>
      <contour>
        <pt x="550" y="956" on="1"/>
        <pt x="580" y="956" on="0"/>
        <pt x="639" y="983" on="0"/>
        <pt x="686" y="1043" on="0"/>
        <pt x="715" y="1137" on="0"/>
        <pt x="715" y="1205" on="1"/>
        <pt x="715" y="1272" on="0"/>
        <pt x="686" y="1367" on="0"/>
        <pt x="639" y="1427" on="0"/>
        <pt x="580" y="1455" on="0"/>
        <pt x="550" y="1455" on="1"/>
        <pt x="520" y="1455" on="0"/>
        <pt x="461" y="1427" on="0"/>
        <pt x="414" y="1367" on="0"/>
        <pt x="384" y="1272" on="0"/>
        <pt x="384" y="1205" on="1"/>
        <pt x="384" y="1137" on="0"/>
        <pt x="414" y="1043" on="0"/>
        <pt x="461" y="983" on="0"/>
        <pt x="520" y="956" on="0"/>
      </contour>
      <contour>
        <pt x="550" y="156" on="1"/>
        <pt x="598" y="156" on="0"/>
        <pt x="679" y="196" on="0"/>
        <pt x="738" y="274" on="0"/>
        <pt x="772" y="391" on="0"/>
        <pt x="772" y="469" on="1"/>
        <pt x="772" y="547" on="0"/>
        <pt x="738" y="663" on="0"/>
        <pt x="679" y="740" on="0"/>
        <pt x="598" y="779" on="0"/>
        <pt x="550" y="779" on="1"/>
        <pt x="503" y="779" on="0"/>
        <pt x="422" y="740" on="0"/>
        <pt x="362" y="663" on="0"/>
        <pt x="328" y="547" on="0"/>
        <pt x="328" y="469" on="1"/>
        <pt x="328" y="391" on="0"/>
        <pt x="362" y="274" on="0"/>
        <pt x="422" y="196" on="0"/>
        <pt x="503" y="156" on="0"/>
      </contour>
    </TTGlyph>
    <TTGlyph name="emdash" xMin="150" yMin="531" xMax="1136" yMax="699">
      <contour>
        <pt x="150" y="699" on="1"/>
        <pt x="1136" y="699" on="1"/>
        <pt x="1136" y="531" on="1"/>
        <pt x="150" y="531" on="1"/>
      </contour>
    </TTGlyph>
    <TTGlyph name="endash" xMin="150" yMin="531" xMax="775" yMax="699">
      <contour>
        <pt x="150" y="699" on="1"/>
        <pt x="775" y="699" on="1"/>
        <pt x="775" y="531" on="1"/>
        <pt x="150" y="531" on="1"/>
      </contour>
    </TTGlyph>
    <TTGlyph name="equal" xMin="176" yMin="456" xMax="883" yMax="909">
      <contour>
        <pt x="176" y="909" on="1"/>
        <pt x="883" y="909" on="1"/>
        <pt x="883" y="758" on="1"/>
        <pt x="176" y="758" on="1"/>
      </contour>
      <contour>
        <pt x="176" y="607" on="1"/>
        <pt x="883" y="607" on="1"/>
        <pt x="883" y="456" on="1"/>
        <pt x="176" y="456" on="1"/>
      </contour>
    </TTGlyph>
    <TTGlyph name="eth" xMin="86" yMin="-19" xMax="841" yMax="1612">
      <contour>
        <pt x="456" y="-19" on="1"/>
        <pt x="378" y="-19" on="0"/>
        <pt x="243" y="45" on="0"/>
        <pt x="143" y="172" on="0"/>
        <pt x="86" y="363" on="0"/>
        <pt x="86" y="491" on="1"/>
        <pt x="86" y="616" on="0"/>
        <pt x="147" y="804" on="0"/>
        <pt x="247" y="929" on="0"/>
        <pt x="375" y="992" on="0"/>
        <pt x="443" y="992" on="1"/>
        <pt x="472" y="992" on="0"/>
        <pt x="517" y="986" on="0"/>
        <pt x="557" y="971" on="0"/>
        <pt x="596" y="947" on="0"/>
        <pt x="619" y="930" on="1"/>
        <pt x="612" y="995" on="0"/>
        <pt x="561" y="1141" on="0"/>
        <pt x="519" y="1214" on="1"/>
        <pt x="359" y="1106" on="1"/>
        <pt x="276" y="1225" on="1"/>
        <pt x="438" y="1334" on="1"/>
        <pt x="375" y="1414" on="0"/>
        <pt x="299" y="1475" on="1"/>
        <pt x="382" y="1612" on="1"/>
        <pt x="489" y="1532" on="0"/>
        <pt x="573" y="1425" on="1"/>
        <pt x="747" y="1543" on="1"/>
        <pt x="831" y="1424" on="1"/>
        <pt x="655" y="1305" on="1"/>
        <pt x="749" y="1147" on="0"/>
        <pt x="841" y="782" on="0"/>
        <pt x="841" y="590" on="1"/>
        <pt x="841" y="437" on="0"/>
        <pt x="787" y="209" on="0"/>
        <pt x="687" y="57" on="0"/>
        <pt x="545" y="-19" on="0"/>
      </contour>
      <contour>
        <pt x="456" y="153" on="1"/>
        <pt x="490" y="153" on="0"/>
        <pt x="557" y="187" on="0"/>
        <pt x="611" y="267" on="0"/>
        <pt x="644" y="396" on="0"/>
        <pt x="644" y="491" on="1"/>
        <pt x="644" y="581" on="0"/>
        <pt x="613" y="706" on="0"/>
        <pt x="561" y="784" on="0"/>
        <pt x="493" y="819" on="0"/>
        <pt x="456" y="819" on="1"/>
        <pt x="422" y="819" on="0"/>
        <pt x="355" y="785" on="0"/>
        <pt x="301" y="708" on="0"/>
        <pt x="268" y="583" on="0"/>
        <pt x="268" y="491" on="1"/>
        <pt x="268" y="396" on="0"/>
        <pt x="301" y="267" on="0"/>
        <pt x="355" y="187" on="0"/>
        <pt x="422" y="153" on="0"/>
      </contour>
    </TTGlyph>
    <TTGlyph name="exclam" xMin="145" yMin="-18" xMax="423" yMax="1593">
      <contour>
        <pt x="194" y="1593" on="1"/>
        <pt x="380" y="1593" on="1"/>
        <pt x="380" y="531" on="1"/>
        <pt x="194" y="531" on="1"/>
      </contour>
      <contour>
        <pt x="145" y="115" on="1"/>
        <pt x="145" y="142" on="0"/>
        <pt x="165" y="190" on="0"/>
        <pt x="201" y="227" on="0"/>
        <pt x="252" y="249" on="0"/>
        <pt x="284" y="249" on="1"/>
        <pt x="315" y="249" on="0"/>
        <pt x="367" y="227" on="0"/>
        <pt x="403" y="190" on="0"/>
        <pt x="423" y="142" on="0"/>
        <pt x="423" y="115" on="1"/>
        <pt x="423" y="88" on="0"/>
        <pt x="403" y="40" on="0"/>
        <pt x="367" y="4" on="0"/>
        <pt x="315" y="-18" on="0"/>
        <pt x="284" y="-18" on="1"/>
        <pt x="252" y="-18" on="0"/>
        <pt x="201" y="4" on="0"/>
        <pt x="165" y="40" on="0"/>
        <pt x="145" y="88" on="0"/>
      </contour>
    </TTGlyph>
    <TTGlyph name="exclamdown" xMin="150" yMin="-354" xMax="428" yMax="1257">
      <contour>
        <pt x="289" y="990" on="1"/>
        <pt x="257" y="990" on="0"/>
        <pt x="206" y="1012" on="0"/>
        <pt x="170" y="1049" on="0"/>
        <pt x="150" y="1097" on="0"/>
        <pt x="150" y="1124" on="1"/>
        <pt x="150" y="1151" on="0"/>
        <pt x="170" y="1199" on="0"/>
        <pt x="206" y="1235" on="0"/>
        <pt x="257" y="1257" on="0"/>
        <pt x="289" y="1257" on="1"/>
        <pt x="320" y="1257" on="0"/>
        <pt x="372" y="1235" on="0"/>
        <pt x="408" y="1199" on="0"/>
        <pt x="428" y="1151" on="0"/>
        <pt x="428" y="1124" on="1"/>
        <pt x="428" y="1097" on="0"/>
        <pt x="408" y="1049" on="0"/>
        <pt x="372" y="1012" on="0"/>
        <pt x="320" y="990" on="0"/>
      </contour>
      <contour>
        <pt x="199" y="708" on="1"/>
        <pt x="385" y="708" on="1"/>
        <pt x="385" y="-354" on="1"/>
        <pt x="199" y="-354" on="1"/>
      </contour>
    </TTGlyph>
    <TTGlyph name="f" xMin="74" yMin="0" xMax="517" yMax="1612">
      <contour>
        <pt x="155" y="894" on="1"/>
        <pt x="74" y="894" on="1"/>
        <pt x="74" y="1062" on="1"/>
        <pt x="155" y="1062" on="1"/>
        <pt x="155" y="1122" on="1"/>
        <pt x="155" y="1225" on="0"/>
        <pt x="206" y="1401" on="0"/>
        <pt x="301" y="1532" on="0"/>
        <pt x="434" y="1609" on="0"/>
        <pt x="517" y="1612" on="1"/>
        <pt x="517" y="1437" on="1"/>
        <pt x="470" y="1430" on="0"/>
        <pt x="400" y="1377" on="0"/>
        <pt x="355" y="1293" on="0"/>
        <pt x="333" y="1183" on="0"/>
        <pt x="333" y="1120" on="1"/>
        <pt x="333" y="1062" on="1"/>
        <pt x="511" y="1062" on="1"/>
        <pt x="511" y="894" on="1"/>
        <pt x="333" y="894" on="1"/>
        <pt x="333" y="0" on="1"/>
        <pt x="155" y="0" on="1"/>
      </contour>
    </TTGlyph>
    <TTGlyph name="five" xMin="86" yMin="-19" xMax="853" yMax="1593">
      <contour>
        <pt x="170" y="221" on="1"/>
        <pt x="220" y="188" on="0"/>
        <pt x="324" y="156" on="0"/>
        <pt x="373" y="156" on="1"/>
        <pt x="428" y="156" on="0"/>
        <pt x="532" y="197" on="0"/>
        <pt x="612" y="279" on="0"/>
        <pt x="660" y="403" on="0"/>
        <pt x="660" y="486" on="1"/>
        <pt x="660" y="558" on="0"/>
        <pt x="622" y="673" on="0"/>
        <pt x="553" y="753" on="0"/>
        <pt x="456" y="796" on="0"/>
        <pt x="398" y="796" on="1"/>
        <pt x="354" y="796" on="0"/>
        <pt x="239" y="764" on="0"/>
        <pt x="179" y="720" on="1"/>
        <pt x="181" y="728" on="1"/>
        <pt x="179" y="726" on="1"/>
        <pt x="179" y="1593" on="1"/>
        <pt x="765" y="1593" on="1"/>
        <pt x="768" y="1417" on="1"/>
        <pt x="365" y="1417" on="1"/>
        <pt x="365" y="969" on="1"/>
        <pt x="375" y="970" on="0"/>
        <pt x="396" y="971" on="0"/>
        <pt x="408" y="971" on="1"/>
        <pt x="511" y="971" on="0"/>
        <pt x="676" y="900" on="0"/>
        <pt x="791" y="771" on="0"/>
        <pt x="853" y="590" on="0"/>
        <pt x="853" y="481" on="1"/>
        <pt x="853" y="358" on="0"/>
        <pt x="778" y="171" on="0"/>
        <pt x="650" y="45" on="0"/>
        <pt x="483" y="-19" on="0"/>
        <pt x="392" y="-19" on="1"/>
        <pt x="330" y="-19" on="0"/>
        <pt x="172" y="15" on="0"/>
        <pt x="86" y="61" on="1"/>
      </contour>
    </TTGlyph>
    <TTGlyph name="four" xMin="100" yMin="0" xMax="936" yMax="1593">
      <contour>
        <pt x="414" y="1593" on="1"/>
        <pt x="602" y="1593" on="1"/>
        <pt x="327" y="512" on="1"/>
        <pt x="604" y="512" on="1"/>
        <pt x="604" y="880" on="1"/>
        <pt x="790" y="1081" on="1"/>
        <pt x="790" y="512" on="1"/>
        <pt x="936" y="512" on="1"/>
        <pt x="936" y="336" on="1"/>
        <pt x="790" y="336" on="1"/>
        <pt x="790" y="0" on="1"/>
        <pt x="604" y="0" on="1"/>
        <pt x="604" y="336" on="1"/>
        <pt x="100" y="336" on="1"/>
      </contour>
    </TTGlyph>
    <TTGlyph name="g" xMin="100" yMin="-364" xMax="795" yMax="1084">
      <contour>
        <pt x="323" y="-220" on="1"/>
        <pt x="389" y="-193" on="0"/>
        <pt x="486" y="-134" on="0"/>
        <pt x="554" y="-68" on="0"/>
        <pt x="595" y="6" on="0"/>
        <pt x="605" y="48" on="1"/>
        <pt x="548" y="20" on="0"/>
        <pt x="474" y="20" on="1"/>
        <pt x="400" y="20" on="0"/>
        <pt x="265" y="82" on="0"/>
        <pt x="162" y="212" on="0"/>
        <pt x="100" y="413" on="0"/>
        <pt x="100" y="552" on="1"/>
        <pt x="100" y="691" on="0"/>
        <pt x="162" y="892" on="0"/>
        <pt x="265" y="1022" on="0"/>
        <pt x="400" y="1084" on="0"/>
        <pt x="474" y="1084" on="1"/>
        <pt x="585" y="1084" on="0"/>
        <pt x="663" y="1018" on="1"/>
        <pt x="795" y="1082" on="1"/>
        <pt x="795" y="163" on="1"/>
        <pt x="795" y="73" on="0"/>
        <pt x="752" y="-82" on="0"/>
        <pt x="659" y="-214" on="0"/>
        <pt x="513" y="-322" on="0"/>
        <pt x="410" y="-364" on="1"/>
      </contour>
      <contour>
        <pt x="493" y="188" on="1"/>
        <pt x="528" y="188" on="0"/>
        <pt x="591" y="211" on="0"/>
        <pt x="617" y="232" on="1"/>
        <pt x="617" y="871" on="1"/>
        <pt x="563" y="916" on="0"/>
        <pt x="493" y="916" on="1"/>
        <pt x="452" y="916" on="0"/>
        <pt x="376" y="882" on="0"/>
        <pt x="317" y="798" on="0"/>
        <pt x="281" y="658" on="0"/>
        <pt x="281" y="552" on="1"/>
        <pt x="281" y="446" on="0"/>
        <pt x="317" y="306" on="0"/>
        <pt x="376" y="222" on="0"/>
        <pt x="452" y="188" on="0"/>
      </contour>
    </TTGlyph>
    <TTGlyph name="germandbls" xMin="58" yMin="-18" xMax="982" yMax="1612">
      <contour>
        <pt x="145" y="894" on="1"/>
        <pt x="58" y="894" on="1"/>
        <pt x="58" y="1062" on="1"/>
        <pt x="145" y="1062" on="1"/>
        <pt x="145" y="1139" on="1"/>
        <pt x="145" y="1255" on="0"/>
        <pt x="206" y="1432" on="0"/>
        <pt x="311" y="1551" on="0"/>
        <pt x="453" y="1612" on="0"/>
        <pt x="535" y="1612" on="1"/>
        <pt x="604" y="1612" on="0"/>
        <pt x="721" y="1566" on="0"/>
        <pt x="807" y="1486" on="0"/>
        <pt x="855" y="1376" on="0"/>
        <pt x="855" y="1313" on="1"/>
        <pt x="855" y="1260" on="0"/>
        <pt x="827" y="1169" on="0"/>
        <pt x="785" y="1089" on="0"/>
        <pt x="736" y="1018" on="0"/>
        <pt x="694" y="950" on="0"/>
        <pt x="666" y="884" on="0"/>
        <pt x="666" y="849" on="1"/>
        <pt x="666" y="804" on="0"/>
        <pt x="713" y="727" on="0"/>
        <pt x="783" y="652" on="0"/>
        <pt x="865" y="574" on="0"/>
        <pt x="935" y="481" on="0"/>
        <pt x="982" y="368" on="0"/>
        <pt x="982" y="296" on="1"/>
        <pt x="982" y="225" on="0"/>
        <pt x="933" y="109" on="0"/>
        <pt x="845" y="27" on="0"/>
        <pt x="722" y="-18" on="0"/>
        <pt x="649" y="-18" on="1"/>
        <pt x="577" y="-18" on="0"/>
        <pt x="458" y="22" on="0"/>
        <pt x="407" y="53" on="1"/>
        <pt x="482" y="219" on="1"/>
        <pt x="533" y="190" on="0"/>
        <pt x="620" y="156" on="0"/>
        <pt x="658" y="156" on="1"/>
        <pt x="683" y="156" on="0"/>
        <pt x="731" y="171" on="0"/>
        <pt x="769" y="203" on="0"/>
        <pt x="792" y="253" on="0"/>
        <pt x="792" y="287" on="1"/>
        <pt x="792" y="336" on="0"/>
        <pt x="745" y="420" on="0"/>
        <pt x="674" y="497" on="0"/>
        <pt x="592" y="574" on="0"/>
        <pt x="521" y="659" on="0"/>
        <pt x="474" y="757" on="0"/>
        <pt x="474" y="818" on="1"/>
        <pt x="474" y="867" on="0"/>
        <pt x="504" y="958" on="0"/>
        <pt x="550" y="1042" on="0"/>
        <pt x="603" y="1122" on="0"/>
        <pt x="649" y="1198" on="0"/>
        <pt x="679" y="1271" on="0"/>
        <pt x="679" y="1307" on="1"/>
        <pt x="679" y="1337" on="0"/>
        <pt x="657" y="1386" on="0"/>
        <pt x="620" y="1422" on="0"/>
        <pt x="569" y="1444" on="0"/>
        <pt x="540" y="1446" on="1"/>
        <pt x="496" y="1449" on="0"/>
        <pt x="419" y="1417" on="0"/>
        <pt x="360" y="1344" on="0"/>
        <pt x="326" y="1231" on="0"/>
        <pt x="326" y="1155" on="1"/>
        <pt x="326" y="0" on="1"/>
        <pt x="145" y="0" on="1"/>
      </contour>
    </TTGlyph>
    <TTGlyph name="grave" xMin="94" yMin="1206" xMax="572" yMax="1631">
      <contour>
        <pt x="94" y="1508" on="1"/>
        <pt x="193" y="1631" on="1"/>
        <pt x="572" y="1329" on="1"/>
        <pt x="473" y="1206" on="1"/>
      </contour>
    </TTGlyph>
    <TTGlyph name="grave.cap" xMin="92" yMin="1671" xMax="602" yMax="2020">
      <contour>
        <pt x="92" y="1867" on="1"/>
        <pt x="159" y="2020" on="1"/>
        <pt x="602" y="1825" on="1"/>
        <pt x="534" y="1671" on="1"/>
      </contour>
    </TTGlyph>
    <TTGlyph name="greater" xMin="104" yMin="169" xMax="707" yMax="1113">
      <contour>
        <pt x="104" y="287" on="1"/>
        <pt x="484" y="641" on="1"/>
        <pt x="104" y="995" on="1"/>
        <pt x="210" y="1113" on="1"/>
        <pt x="707" y="641" on="1"/>
        <pt x="210" y="169" on="1"/>
      </contour>
    </TTGlyph>
    <TTGlyph name="guillemotleft" xMin="125" yMin="131" xMax="991" yMax="931">
      <contour>
        <pt x="883" y="931" on="1"/>
        <pt x="991" y="839" on="1"/>
        <pt x="742" y="531" on="1"/>
        <pt x="991" y="223" on="1"/>
        <pt x="883" y="131" on="1"/>
        <pt x="557" y="531" on="1"/>
      </contour>
      <contour>
        <pt x="125" y="531" on="1"/>
        <pt x="451" y="931" on="1"/>
        <pt x="559" y="839" on="1"/>
        <pt x="310" y="531" on="1"/>
        <pt x="559" y="223" on="1"/>
        <pt x="451" y="131" on="1"/>
      </contour>
    </TTGlyph>
    <TTGlyph name="guillemotright" xMin="158" yMin="131" xMax="1025" yMax="931">
      <contour>
        <pt x="840" y="531" on="1"/>
        <pt x="591" y="839" on="1"/>
        <pt x="699" y="931" on="1"/>
        <pt x="1025" y="531" on="1"/>
        <pt x="699" y="131" on="1"/>
        <pt x="591" y="223" on="1"/>
      </contour>
      <contour>
        <pt x="407" y="531" on="1"/>
        <pt x="158" y="839" on="1"/>
        <pt x="266" y="931" on="1"/>
        <pt x="592" y="531" on="1"/>
        <pt x="266" y="131" on="1"/>
        <pt x="158" y="223" on="1"/>
      </contour>
    </TTGlyph>
    <TTGlyph name="guilsinglleft" xMin="86" yMin="131" xMax="520" yMax="931">
      <contour>
        <pt x="86" y="531" on="1"/>
        <pt x="412" y="931" on="1"/>
        <pt x="520" y="839" on="1"/>
        <pt x="271" y="531" on="1"/>
        <pt x="520" y="223" on="1"/>
        <pt x="412" y="131" on="1"/>
      </contour>
    </TTGlyph>
    <TTGlyph name="guilsinglright" xMin="86" yMin="131" xMax="520" yMax="931">
      <contour>
        <pt x="86" y="223" on="1"/>
        <pt x="335" y="531" on="1"/>
        <pt x="86" y="839" on="1"/>
        <pt x="194" y="931" on="1"/>
        <pt x="520" y="531" on="1"/>
        <pt x="194" y="131" on="1"/>
      </contour>
    </TTGlyph>
    <TTGlyph name="h" xMin="145" yMin="0" xMax="853" yMax="1593">
      <contour>
        <pt x="145" y="1593" on="1"/>
        <pt x="323" y="1593" on="1"/>
        <pt x="323" y="998" on="1"/>
        <pt x="367" y="1033" on="0"/>
        <pt x="477" y="1078" on="0"/>
        <pt x="531" y="1078" on="1"/>
        <pt x="691" y="1078" on="0"/>
        <pt x="853" y="877" on="0"/>
        <pt x="853" y="688" on="1"/>
        <pt x="853" y="0" on="1"/>
        <pt x="675" y="0" on="1"/>
        <pt x="675" y="686" on="1"/>
        <pt x="675" y="789" on="0"/>
        <pt x="592" y="897" on="0"/>
        <pt x="511" y="897" on="1"/>
        <pt x="463" y="897" on="0"/>
        <pt x="364" y="850" on="0"/>
        <pt x="323" y="800" on="1"/>
        <pt x="323" y="0" on="1"/>
        <pt x="145" y="0" on="1"/>
      </contour>
    </TTGlyph>
    <TTGlyph name="hbar" xMin="37" yMin="0" xMax="853" yMax="1593">
      <contour>
        <pt x="145" y="1230" on="1"/>
        <pt x="37" y="1230" on="1"/>
        <pt x="37" y="1388" on="1"/>
        <pt x="145" y="1388" on="1"/>
        <pt x="145" y="1593" on="1"/>
        <pt x="323" y="1593" on="1"/>
        <pt x="323" y="1388" on="1"/>
        <pt x="464" y="1388" on="1"/>
        <pt x="464" y="1230" on="1"/>
        <pt x="323" y="1230" on="1"/>
        <pt x="323" y="998" on="1"/>
        <pt x="367" y="1033" on="0"/>
        <pt x="477" y="1078" on="0"/>
        <pt x="531" y="1078" on="1"/>
        <pt x="691" y="1078" on="0"/>
        <pt x="853" y="877" on="0"/>
        <pt x="853" y="688" on="1"/>
        <pt x="853" y="0" on="1"/>
        <pt x="675" y="0" on="1"/>
        <pt x="675" y="686" on="1"/>
        <pt x="675" y="789" on="0"/>
        <pt x="592" y="897" on="0"/>
        <pt x="511" y="897" on="1"/>
        <pt x="463" y="897" on="0"/>
        <pt x="364" y="850" on="0"/>
        <pt x="323" y="800" on="1"/>
        <pt x="323" y="0" on="1"/>
        <pt x="145" y="0" on="1"/>
      </contour>
    </TTGlyph>
    <TTGlyph name="hyphen" xMin="150" yMin="531" xMax="577" yMax="699">
      <contour>
        <pt x="150" y="699" on="1"/>
        <pt x="577" y="699" on="1"/>
        <pt x="577" y="531" on="1"/>
        <pt x="150" y="531" on="1"/>
      </contour>
    </TTGlyph>
    <TTGlyph name="i" xMin="135" yMin="0" xMax="393" yMax="1492">
      <contour>
        <pt x="264" y="1244" on="1"/>
        <pt x="235" y="1244" on="0"/>
        <pt x="187" y="1264" on="0"/>
        <pt x="153" y="1298" on="0"/>
        <pt x="135" y="1343" on="0"/>
        <pt x="135" y="1368" on="1"/>
        <pt x="135" y="1393" on="0"/>
        <pt x="153" y="1438" on="0"/>
        <pt x="187" y="1472" on="0"/>
        <pt x="235" y="1492" on="0"/>
        <pt x="264" y="1492" on="1"/>
        <pt x="293" y="1492" on="0"/>
        <pt x="341" y="1472" on="0"/>
        <pt x="375" y="1438" on="0"/>
        <pt x="393" y="1393" on="0"/>
        <pt x="393" y="1368" on="1"/>
        <pt x="393" y="1343" on="0"/>
        <pt x="375" y="1298" on="0"/>
        <pt x="341" y="1264" on="0"/>
        <pt x="293" y="1244" on="0"/>
      </contour>
      <contour>
        <pt x="169" y="1062" on="1"/>
        <pt x="347" y="1062" on="1"/>
        <pt x="347" y="0" on="1"/>
        <pt x="169" y="0" on="1"/>
      </contour>
    </TTGlyph>
    <TTGlyph name="iacute" xMin="4" yMin="0" xMax="482" yMax="1631">
      <contour>
        <pt x="4" y="1329" on="1"/>
        <pt x="383" y="1631" on="1"/>
        <pt x="482" y="1508" on="1"/>
        <pt x="103" y="1206" on="1"/>
      </contour>
      <contour>
        <pt x="169" y="1062" on="1"/>
        <pt x="347" y="1062" on="1"/>
        <pt x="347" y="0" on="1"/>
        <pt x="169" y="0" on="1"/>
      </contour>
    </TTGlyph>
    <TTGlyph name="icircumflex" xMin="-29" yMin="0" xMax="557" yMax="1612">
      <contour>
        <pt x="-29" y="1374" on="1"/>
        <pt x="264" y="1612" on="1"/>
        <pt x="557" y="1374" on="1"/>
        <pt x="465" y="1266" on="1"/>
        <pt x="264" y="1427" on="1"/>
        <pt x="63" y="1266" on="1"/>
      </contour>
      <contour>
        <pt x="169" y="1062" on="1"/>
        <pt x="347" y="1062" on="1"/>
        <pt x="347" y="0" on="1"/>
        <pt x="169" y="0" on="1"/>
      </contour>
    </TTGlyph>
    <TTGlyph name="idieresis" xMin="-48" yMin="0" xMax="576" yMax="1521">
      <contour>
        <pt x="447" y="1273" on="1"/>
        <pt x="418" y="1273" on="0"/>
        <pt x="370" y="1293" on="0"/>
        <pt x="336" y="1327" on="0"/>
        <pt x="318" y="1372" on="0"/>
        <pt x="318" y="1397" on="1"/>
        <pt x="318" y="1422" on="0"/>
        <pt x="336" y="1467" on="0"/>
        <pt x="370" y="1501" on="0"/>
        <pt x="418" y="1521" on="0"/>
        <pt x="447" y="1521" on="1"/>
        <pt x="476" y="1521" on="0"/>
        <pt x="524" y="1501" on="0"/>
        <pt x="558" y="1467" on="0"/>
        <pt x="576" y="1422" on="0"/>
        <pt x="576" y="1397" on="1"/>
        <pt x="576" y="1372" on="0"/>
        <pt x="558" y="1327" on="0"/>
        <pt x="524" y="1293" on="0"/>
        <pt x="476" y="1273" on="0"/>
      </contour>
      <contour>
        <pt x="81" y="1273" on="1"/>
        <pt x="52" y="1273" on="0"/>
        <pt x="4" y="1293" on="0"/>
        <pt x="-30" y="1327" on="0"/>
        <pt x="-48" y="1372" on="0"/>
        <pt x="-48" y="1397" on="1"/>
        <pt x="-48" y="1422" on="0"/>
        <pt x="-30" y="1467" on="0"/>
        <pt x="4" y="1501" on="0"/>
        <pt x="52" y="1521" on="0"/>
        <pt x="81" y="1521" on="1"/>
        <pt x="110" y="1521" on="0"/>
        <pt x="158" y="1501" on="0"/>
        <pt x="192" y="1467" on="0"/>
        <pt x="210" y="1422" on="0"/>
        <pt x="210" y="1397" on="1"/>
        <pt x="210" y="1372" on="0"/>
        <pt x="192" y="1327" on="0"/>
        <pt x="158" y="1293" on="0"/>
        <pt x="110" y="1273" on="0"/>
      </contour>
      <contour>
        <pt x="169" y="1062" on="1"/>
        <pt x="347" y="1062" on="1"/>
        <pt x="347" y="0" on="1"/>
        <pt x="169" y="0" on="1"/>
      </contour>
    </TTGlyph>
    <TTGlyph name="igrave" xMin="55" yMin="0" xMax="533" yMax="1631">
      <contour>
        <pt x="55" y="1508" on="1"/>
        <pt x="154" y="1631" on="1"/>
        <pt x="533" y="1329" on="1"/>
        <pt x="434" y="1206" on="1"/>
      </contour>
      <contour>
        <pt x="169" y="1062" on="1"/>
        <pt x="347" y="1062" on="1"/>
        <pt x="347" y="0" on="1"/>
        <pt x="169" y="0" on="1"/>
      </contour>
    </TTGlyph>
    <TTGlyph name="ij" xMin="135" yMin="-354" xMax="954" yMax="1492">
      <contour>
        <pt x="825" y="1244" on="1"/>
        <pt x="796" y="1244" on="0"/>
        <pt x="748" y="1264" on="0"/>
        <pt x="714" y="1298" on="0"/>
        <pt x="696" y="1343" on="0"/>
        <pt x="696" y="1368" on="1"/>
        <pt x="696" y="1393" on="0"/>
        <pt x="714" y="1438" on="0"/>
        <pt x="748" y="1472" on="0"/>
        <pt x="796" y="1492" on="0"/>
        <pt x="825" y="1492" on="1"/>
        <pt x="854" y="1492" on="0"/>
        <pt x="902" y="1472" on="0"/>
        <pt x="936" y="1438" on="0"/>
        <pt x="954" y="1393" on="0"/>
        <pt x="954" y="1368" on="1"/>
        <pt x="954" y="1343" on="0"/>
        <pt x="936" y="1298" on="0"/>
        <pt x="902" y="1264" on="0"/>
        <pt x="854" y="1244" on="0"/>
      </contour>
      <contour>
        <pt x="264" y="1244" on="1"/>
        <pt x="235" y="1244" on="0"/>
        <pt x="187" y="1264" on="0"/>
        <pt x="153" y="1298" on="0"/>
        <pt x="135" y="1343" on="0"/>
        <pt x="135" y="1368" on="1"/>
        <pt x="135" y="1393" on="0"/>
        <pt x="153" y="1438" on="0"/>
        <pt x="187" y="1472" on="0"/>
        <pt x="235" y="1492" on="0"/>
        <pt x="264" y="1492" on="1"/>
        <pt x="293" y="1492" on="0"/>
        <pt x="341" y="1472" on="0"/>
        <pt x="375" y="1438" on="0"/>
        <pt x="393" y="1393" on="0"/>
        <pt x="393" y="1368" on="1"/>
        <pt x="393" y="1343" on="0"/>
        <pt x="375" y="1298" on="0"/>
        <pt x="341" y="1264" on="0"/>
        <pt x="293" y="1244" on="0"/>
      </contour>
      <contour>
        <pt x="567" y="-210" on="1"/>
        <pt x="616" y="-178" on="0"/>
        <pt x="680" y="-106" on="0"/>
        <pt x="718" y="-23" on="0"/>
        <pt x="733" y="70" on="0"/>
        <pt x="733" y="123" on="1"/>
        <pt x="733" y="1062" on="1"/>
        <pt x="911" y="1062" on="1"/>
        <pt x="911" y="123" on="1"/>
        <pt x="911" y="46" on="0"/>
        <pt x="884" y="-93" on="0"/>
        <pt x="824" y="-213" on="0"/>
        <pt x="726" y="-314" on="0"/>
        <pt x="654" y="-354" on="1"/>
      </contour>
      <contour>
        <pt x="169" y="1062" on="1"/>
        <pt x="347" y="1062" on="1"/>
        <pt x="347" y="0" on="1"/>
        <pt x="169" y="0" on="1"/>
      </contour>
    </TTGlyph>
    <TTGlyph name="itilde" xMin="-64" yMin="0" xMax="592" yMax="1504">
      <contour>
        <pt x="-64" y="1359" on="1"/>
        <pt x="-49" y="1385" on="0"/>
        <pt x="-4" y="1437" on="0"/>
        <pt x="50" y="1478" on="0"/>
        <pt x="109" y="1504" on="0"/>
        <pt x="138" y="1504" on="1"/>
        <pt x="177" y="1504" on="0"/>
        <pt x="240" y="1480" on="0"/>
        <pt x="297" y="1452" on="0"/>
        <pt x="349" y="1428" on="0"/>
        <pt x="377" y="1428" on="1"/>
        <pt x="406" y="1428" on="0"/>
        <pt x="481" y="1462" on="0"/>
        <pt x="516" y="1504" on="1"/>
        <pt x="592" y="1407" on="1"/>
        <pt x="577" y="1381" on="0"/>
        <pt x="531" y="1329" on="0"/>
        <pt x="477" y="1288" on="0"/>
        <pt x="418" y="1262" on="0"/>
        <pt x="390" y="1262" on="1"/>
        <pt x="351" y="1262" on="0"/>
        <pt x="288" y="1286" on="0"/>
        <pt x="231" y="1314" on="0"/>
        <pt x="179" y="1338" on="0"/>
        <pt x="151" y="1338" on="1"/>
        <pt x="122" y="1338" on="0"/>
        <pt x="47" y="1304" on="0"/>
        <pt x="12" y="1262" on="1"/>
      </contour>
      <contour>
        <pt x="169" y="1062" on="1"/>
        <pt x="347" y="1062" on="1"/>
        <pt x="347" y="0" on="1"/>
        <pt x="169" y="0" on="1"/>
      </contour>
    </TTGlyph>
    <TTGlyph name="j" xMin="39" yMin="-354" xMax="426" yMax="1492">
      <contour>
        <pt x="297" y="1244" on="1"/>
        <pt x="268" y="1244" on="0"/>
        <pt x="220" y="1264" on="0"/>
        <pt x="186" y="1298" on="0"/>
        <pt x="168" y="1343" on="0"/>
        <pt x="168" y="1368" on="1"/>
        <pt x="168" y="1393" on="0"/>
        <pt x="186" y="1438" on="0"/>
        <pt x="220" y="1472" on="0"/>
        <pt x="268" y="1492" on="0"/>
        <pt x="297" y="1492" on="1"/>
        <pt x="326" y="1492" on="0"/>
        <pt x="374" y="1472" on="0"/>
        <pt x="408" y="1438" on="0"/>
        <pt x="426" y="1393" on="0"/>
        <pt x="426" y="1368" on="1"/>
        <pt x="426" y="1343" on="0"/>
        <pt x="408" y="1298" on="0"/>
        <pt x="374" y="1264" on="0"/>
        <pt x="326" y="1244" on="0"/>
      </contour>
      <contour>
        <pt x="39" y="-210" on="1"/>
        <pt x="88" y="-178" on="0"/>
        <pt x="152" y="-106" on="0"/>
        <pt x="190" y="-23" on="0"/>
        <pt x="205" y="70" on="0"/>
        <pt x="205" y="123" on="1"/>
        <pt x="205" y="1062" on="1"/>
        <pt x="383" y="1062" on="1"/>
        <pt x="383" y="123" on="1"/>
        <pt x="383" y="46" on="0"/>
        <pt x="356" y="-93" on="0"/>
        <pt x="296" y="-213" on="0"/>
        <pt x="198" y="-314" on="0"/>
        <pt x="126" y="-354" on="1"/>
      </contour>
    </TTGlyph>
    <TTGlyph name="jcircumflex" xMin="-2" yMin="-354" xMax="584" yMax="1612">
      <contour>
        <pt x="-2" y="1374" on="1"/>
        <pt x="291" y="1612" on="1"/>
        <pt x="584" y="1374" on="1"/>
        <pt x="492" y="1266" on="1"/>
        <pt x="291" y="1427" on="1"/>
        <pt x="90" y="1266" on="1"/>
      </contour>
      <contour>
        <pt x="39" y="-210" on="1"/>
        <pt x="88" y="-178" on="0"/>
        <pt x="152" y="-106" on="0"/>
        <pt x="190" y="-23" on="0"/>
        <pt x="205" y="70" on="0"/>
        <pt x="205" y="123" on="1"/>
        <pt x="205" y="1062" on="1"/>
        <pt x="383" y="1062" on="1"/>
        <pt x="383" y="123" on="1"/>
        <pt x="383" y="46" on="0"/>
        <pt x="356" y="-93" on="0"/>
        <pt x="296" y="-213" on="0"/>
        <pt x="198" y="-314" on="0"/>
        <pt x="126" y="-354" on="1"/>
      </contour>
    </TTGlyph>
    <TTGlyph name="k" xMin="145" yMin="0" xMax="862" yMax="1593">
      <contour>
        <pt x="145" y="1593" on="1"/>
        <pt x="323" y="1593" on="1"/>
        <pt x="323" y="571" on="1"/>
        <pt x="324" y="571" on="1"/>
        <pt x="619" y="1062" on="1"/>
        <pt x="809" y="1062" on="1"/>
        <pt x="494" y="545" on="1"/>
        <pt x="862" y="0" on="1"/>
        <pt x="642" y="0" on="1"/>
        <pt x="323" y="482" on="1"/>
        <pt x="323" y="0" on="1"/>
        <pt x="145" y="0" on="1"/>
      </contour>
    </TTGlyph>
    <TTGlyph name="kcommaaccent" xMin="145" yMin="-503" xMax="862" yMax="1593">
      <contour>
        <pt x="145" y="1593" on="1"/>
        <pt x="323" y="1593" on="1"/>
        <pt x="323" y="571" on="1"/>
        <pt x="324" y="571" on="1"/>
        <pt x="619" y="1062" on="1"/>
        <pt x="809" y="1062" on="1"/>
        <pt x="494" y="545" on="1"/>
        <pt x="862" y="0" on="1"/>
        <pt x="642" y="0" on="1"/>
        <pt x="323" y="482" on="1"/>
        <pt x="323" y="0" on="1"/>
        <pt x="145" y="0" on="1"/>
      </contour>
      <contour>
        <pt x="309" y="-188" on="1"/>
        <pt x="309" y="-167" on="0"/>
        <pt x="327" y="-128" on="0"/>
        <pt x="359" y="-98" on="0"/>
        <pt x="405" y="-81" on="0"/>
        <pt x="434" y="-81" on="1"/>
        <pt x="461" y="-81" on="0"/>
        <pt x="509" y="-98" on="0"/>
        <pt x="545" y="-131" on="0"/>
        <pt x="567" y="-182" on="0"/>
        <pt x="567" y="-215" on="1"/>
        <pt x="567" y="-339" on="0"/>
        <pt x="388" y="-503" on="1"/>
        <pt x="309" y="-436" on="1"/>
        <pt x="328" y="-420" on="0"/>
        <pt x="365" y="-383" on="0"/>
        <pt x="395" y="-345" on="0"/>
        <pt x="416" y="-309" on="0"/>
        <pt x="421" y="-293" on="1"/>
        <pt x="370" y="-288" on="0"/>
        <pt x="309" y="-227" on="0"/>
      </contour>
    </TTGlyph>
    <TTGlyph name="kgreenlandic" xMin="145" yMin="0" xMax="862" yMax="1063">
      <contour>
        <pt x="145" y="1062" on="1"/>
        <pt x="323" y="1062" on="1"/>
        <pt x="323" y="522" on="1"/>
        <pt x="619" y="1063" on="1"/>
        <pt x="809" y="1063" on="1"/>
        <pt x="493" y="502" on="1"/>
        <pt x="862" y="0" on="1"/>
        <pt x="642" y="0" on="1"/>
        <pt x="323" y="439" on="1"/>
        <pt x="323" y="0" on="1"/>
        <pt x="145" y="0" on="1"/>
      </contour>
    </TTGlyph>
    <TTGlyph name="l" xMin="145" yMin="0" xMax="323" yMax="1593">
      <contour>
        <pt x="145" y="1593" on="1"/>
        <pt x="323" y="1593" on="1"/>
        <pt x="323" y="0" on="1"/>
        <pt x="145" y="0" on="1"/>
      </contour>
    </TTGlyph>
    <TTGlyph name="ldot" xMin="145" yMin="0" xMax="786" yMax="1593">
      <contour>
        <pt x="145" y="1593" on="1"/>
        <pt x="323" y="1593" on="1"/>
        <pt x="323" y="0" on="1"/>
        <pt x="145" y="0" on="1"/>
      </contour>
      <contour>
        <pt x="647" y="616" on="1"/>
        <pt x="615" y="616" on="0"/>
        <pt x="564" y="638" on="0"/>
        <pt x="528" y="674" on="0"/>
        <pt x="508" y="722" on="0"/>
        <pt x="508" y="749" on="1"/>
        <pt x="508" y="776" on="0"/>
        <pt x="528" y="824" on="0"/>
        <pt x="564" y="861" on="0"/>
        <pt x="615" y="883" on="0"/>
        <pt x="647" y="883" on="1"/>
        <pt x="678" y="883" on="0"/>
        <pt x="730" y="861" on="0"/>
        <pt x="766" y="824" on="0"/>
        <pt x="786" y="776" on="0"/>
        <pt x="786" y="749" on="1"/>
        <pt x="786" y="722" on="0"/>
        <pt x="766" y="674" on="0"/>
        <pt x="730" y="638" on="0"/>
        <pt x="678" y="616" on="0"/>
      </contour>
    </TTGlyph>
    <TTGlyph name="less" xMin="104" yMin="167" xMax="707" yMax="1111">
      <contour>
        <pt x="104" y="639" on="1"/>
        <pt x="601" y="1111" on="1"/>
        <pt x="707" y="993" on="1"/>
        <pt x="327" y="639" on="1"/>
        <pt x="707" y="285" on="1"/>
        <pt x="601" y="167" on="1"/>
      </contour>
    </TTGlyph>
    <TTGlyph name="logicalnot" xMin="150" yMin="285" xMax="878" yMax="699">
      <contour>
        <pt x="150" y="699" on="1"/>
        <pt x="878" y="699" on="1"/>
        <pt x="878" y="285" on="1"/>
        <pt x="702" y="285" on="1"/>
        <pt x="702" y="531" on="1"/>
        <pt x="150" y="531" on="1"/>
      </contour>
    </TTGlyph>
    <TTGlyph name="lslash" xMin="-92" yMin="0" xMax="521" yMax="1593">
      <contour>
        <pt x="145" y="694" on="1"/>
        <pt x="1" y="600" on="1"/>
        <pt x="-92" y="740" on="1"/>
        <pt x="145" y="895" on="1"/>
        <pt x="145" y="1593" on="1"/>
        <pt x="323" y="1593" on="1"/>
        <pt x="323" y="1012" on="1"/>
        <pt x="428" y="1081" on="1"/>
        <pt x="521" y="941" on="1"/>
        <pt x="323" y="811" on="1"/>
        <pt x="323" y="0" on="1"/>
        <pt x="145" y="0" on="1"/>
      </contour>
    </TTGlyph>
    <TTGlyph name="m" xMin="145" yMin="0" xMax="1364" yMax="1081">
      <contour>
        <pt x="145" y="1081" on="1"/>
        <pt x="291" y="977" on="1"/>
        <pt x="313" y="998" on="0"/>
        <pt x="367" y="1035" on="0"/>
        <pt x="427" y="1062" on="0"/>
        <pt x="490" y="1078" on="0"/>
        <pt x="521" y="1078" on="1"/>
        <pt x="613" y="1078" on="0"/>
        <pt x="744" y="1011" on="0"/>
        <pt x="784" y="946" on="1"/>
        <pt x="805" y="973" on="0"/>
        <pt x="864" y="1021" on="0"/>
        <pt x="932" y="1057" on="0"/>
        <pt x="1006" y="1078" on="0"/>
        <pt x="1042" y="1078" on="1"/>
        <pt x="1202" y="1078" on="0"/>
        <pt x="1364" y="877" on="0"/>
        <pt x="1364" y="688" on="1"/>
        <pt x="1364" y="0" on="1"/>
        <pt x="1186" y="0" on="1"/>
        <pt x="1186" y="686" on="1"/>
        <pt x="1186" y="789" on="0"/>
        <pt x="1103" y="897" on="0"/>
        <pt x="1022" y="897" on="1"/>
        <pt x="977" y="897" on="0"/>
        <pt x="882" y="855" on="0"/>
        <pt x="843" y="810" on="1"/>
        <pt x="843" y="0" on="1"/>
        <pt x="665" y="0" on="1"/>
        <pt x="665" y="686" on="1"/>
        <pt x="665" y="789" on="0"/>
        <pt x="582" y="897" on="0"/>
        <pt x="501" y="897" on="1"/>
        <pt x="456" y="897" on="0"/>
        <pt x="362" y="855" on="0"/>
        <pt x="323" y="811" on="1"/>
        <pt x="323" y="0" on="1"/>
        <pt x="145" y="0" on="1"/>
      </contour>
    </TTGlyph>
    <TTGlyph name="mu" xMin="176" yMin="-354" xMax="882" yMax="1062">
      <contour>
        <pt x="354" y="-354" on="1"/>
        <pt x="176" y="-354" on="1"/>
        <pt x="176" y="1062" on="1"/>
        <pt x="354" y="1062" on="1"/>
        <pt x="354" y="373" on="1"/>
        <pt x="354" y="264" on="0"/>
        <pt x="449" y="163" on="0"/>
        <pt x="533" y="163" on="1"/>
        <pt x="560" y="163" on="0"/>
        <pt x="612" y="181" on="0"/>
        <pt x="657" y="210" on="0"/>
        <pt x="693" y="247" on="0"/>
        <pt x="704" y="266" on="1"/>
        <pt x="704" y="1062" on="1"/>
        <pt x="882" y="1062" on="1"/>
        <pt x="882" y="-20" on="1"/>
        <pt x="734" y="85" on="1"/>
        <pt x="697" y="40" on="0"/>
        <pt x="581" y="-18" on="0"/>
        <pt x="518" y="-18" on="1"/>
        <pt x="460" y="-18" on="0"/>
        <pt x="384" y="11" on="0"/>
        <pt x="354" y="29" on="1"/>
      </contour>
    </TTGlyph>
    <TTGlyph name="multiply" xMin="150" yMin="353" xMax="758" yMax="960">
      <contour>
        <pt x="150" y="460" on="1"/>
        <pt x="345" y="654" on="1"/>
        <pt x="150" y="848" on="1"/>
        <pt x="262" y="960" on="1"/>
        <pt x="456" y="766" on="1"/>
        <pt x="651" y="960" on="1"/>
        <pt x="758" y="853" on="1"/>
        <pt x="563" y="659" on="1"/>
        <pt x="758" y="465" on="1"/>
        <pt x="646" y="353" on="1"/>
        <pt x="452" y="547" on="1"/>
        <pt x="257" y="353" on="1"/>
      </contour>
    </TTGlyph>
    <TTGlyph name="n" xMin="145" yMin="0" xMax="853" yMax="1081">
      <contour>
        <pt x="145" y="1081" on="1"/>
        <pt x="295" y="974" on="1"/>
        <pt x="317" y="996" on="0"/>
        <pt x="373" y="1034" on="0"/>
        <pt x="435" y="1062" on="0"/>
        <pt x="499" y="1078" on="0"/>
        <pt x="531" y="1078" on="1"/>
        <pt x="691" y="1078" on="0"/>
        <pt x="853" y="877" on="0"/>
        <pt x="853" y="688" on="1"/>
        <pt x="853" y="0" on="1"/>
        <pt x="675" y="0" on="1"/>
        <pt x="675" y="686" on="1"/>
        <pt x="675" y="789" on="0"/>
        <pt x="592" y="897" on="0"/>
        <pt x="511" y="897" on="1"/>
        <pt x="463" y="897" on="0"/>
        <pt x="364" y="850" on="0"/>
        <pt x="323" y="800" on="1"/>
        <pt x="323" y="0" on="1"/>
        <pt x="145" y="0" on="1"/>
      </contour>
    </TTGlyph>
    <TTGlyph name="nacute" xMin="145" yMin="0" xMax="853" yMax="1631">
      <contour>
        <pt x="254" y="1329" on="1"/>
        <pt x="633" y="1631" on="1"/>
        <pt x="732" y="1508" on="1"/>
        <pt x="353" y="1206" on="1"/>
      </contour>
      <contour>
        <pt x="145" y="1081" on="1"/>
        <pt x="295" y="974" on="1"/>
        <pt x="317" y="996" on="0"/>
        <pt x="373" y="1034" on="0"/>
        <pt x="435" y="1062" on="0"/>
        <pt x="499" y="1078" on="0"/>
        <pt x="531" y="1078" on="1"/>
        <pt x="691" y="1078" on="0"/>
        <pt x="853" y="877" on="0"/>
        <pt x="853" y="688" on="1"/>
        <pt x="853" y="0" on="1"/>
        <pt x="675" y="0" on="1"/>
        <pt x="675" y="686" on="1"/>
        <pt x="675" y="789" on="0"/>
        <pt x="592" y="897" on="0"/>
        <pt x="511" y="897" on="1"/>
        <pt x="463" y="897" on="0"/>
        <pt x="364" y="850" on="0"/>
        <pt x="323" y="800" on="1"/>
        <pt x="323" y="0" on="1"/>
        <pt x="145" y="0" on="1"/>
      </contour>
    </TTGlyph>
</ttFont>
